<svg width="20" height="20" viewBox="0 0 20 20" fill="none" xmlns="http://www.w3.org/2000/svg">
<path d="M10.0001 1.66669C5.40841 1.66669 1.66675 5.40835 1.66675 10C1.66675 14.5917 5.40841 18.3334 10.0001 18.3334C14.5917 18.3334 18.3334 14.5917 18.3334 10C18.3334 5.40835 14.5917 1.66669 10.0001 1.66669ZM13.3334 10.625H10.6251V13.3334C10.6251 13.675 10.3417 13.9584 10.0001 13.9584C9.65841 13.9584 9.37508 13.675 9.37508 13.3334V10.625H6.66675C6.32508 10.625 6.04175 10.3417 6.04175 10C6.04175 9.65835 6.32508 9.37502 6.66675 9.37502H9.37508V6.66669C9.37508 6.32502 9.65841 6.04169 10.0001 6.04169C10.3417 6.04169 10.6251 6.32502 10.6251 6.66669V9.37502H13.3334C13.6751 9.37502 13.9584 9.65835 13.9584 10C13.9584 10.3417 13.6751 10.625 13.3334 10.625Z" fill="white"/>
</svg>
