<svg width="44" height="44" viewBox="0 0 44 44" fill="none" xmlns="http://www.w3.org/2000/svg">
<rect width="44" height="44" rx="22" fill="white"/>
<path d="M27.8099 15.49V16.23L24.2699 14.18C22.9299 13.41 21.0599 13.41 19.7299 14.18L16.1899 16.24V15.49C16.1899 13.24 17.4199 12 19.6699 12H24.3299C26.5799 12 27.8099 13.24 27.8099 15.49Z" fill="#369FFF"/>
<path d="M27.84 17.97L27.7 17.9L26.34 17.12L23.52 15.49C22.66 14.99 21.34 14.99 20.48 15.49L17.66 17.11L16.3 17.91L16.12 18C14.37 19.18 14.25 19.4 14.25 21.29V25.81C14.25 27.7 14.37 27.92 16.16 29.13L20.48 31.62C20.91 31.88 21.45 31.99 22 31.99C22.54 31.99 23.09 31.87 23.52 31.62L27.88 29.1C29.64 27.92 29.75 27.71 29.75 25.81V21.29C29.75 19.4 29.63 19.18 27.84 17.97ZM24.79 23.5L24.18 24.25C24.08 24.36 24.01 24.57 24.02 24.72L24.08 25.68C24.12 26.27 23.7 26.57 23.15 26.36L22.26 26C22.12 25.95 21.89 25.95 21.75 26L20.86 26.35C20.31 26.57 19.89 26.26 19.93 25.67L19.99 24.71C20 24.56 19.93 24.35 19.83 24.24L19.21 23.5C18.83 23.05 19 22.55 19.57 22.4L20.5 22.16C20.65 22.12 20.82 21.98 20.9 21.86L21.42 21.06C21.74 20.56 22.25 20.56 22.58 21.06L23.1 21.86C23.18 21.99 23.36 22.12 23.5 22.16L24.43 22.4C25 22.55 25.17 23.05 24.79 23.5Z" fill="#369FFF"/>
</svg>
