<svg width="20" height="20" viewBox="0 0 20 20" fill="none" xmlns="http://www.w3.org/2000/svg">
<path d="M17.4166 8.20833L17.9083 16.45C17.925 16.675 17.8166 16.825 17.7583 16.8917C17.6916 16.9667 17.55 17.0833 17.3167 17.0833H15.0416L16.8416 8.20833H17.4166ZM18.3333 5L18.325 5.01667C18.3417 5.21667 18.325 5.425 18.275 5.63333L12.1333 16.9083C11.9333 17.75 11.1833 18.3333 10.3167 18.3333H17.3167C18.3917 18.3333 19.2416 17.425 19.1583 16.35L18.3333 5Z" fill="#7D7D7D"/>
<path d="M9.54178 1.86671C9.62511 1.53337 9.41678 1.19171 9.08345 1.10837C8.75011 1.03337 8.40845 1.23337 8.32511 1.56671L7.90845 3.29171H9.19178L9.54178 1.86671Z" fill="#7D7D7D"/>
<path d="M15.0417 1.84171C15.1167 1.50004 14.9 1.17504 14.5583 1.10004C14.225 1.02504 13.8917 1.24171 13.8167 1.58338L13.4417 3.30838H14.725L15.0417 1.84171Z" fill="#7D7D7D"/>
<path d="M18.1833 4.44166C17.9083 3.77499 17.2583 3.29999 16.4583 3.29999H14.725L14.2583 5.45833C14.1916 5.74999 13.9333 5.94999 13.65 5.94999C13.6083 5.94999 13.5583 5.94999 13.5166 5.93333C13.1833 5.85833 12.9666 5.52499 13.0333 5.19166L13.4416 3.29166H9.19162L8.66662 5.45833C8.59996 5.74166 8.34163 5.93333 8.05829 5.93333C8.00829 5.93333 7.95829 5.92499 7.90829 5.91666C7.57496 5.83332 7.36662 5.49999 7.44996 5.15833L7.89996 3.28333H6.20829C5.39162 3.28333 4.66662 3.81666 4.42496 4.59999L0.916625 15.8917C0.549958 17.1 1.44162 18.3333 2.69996 18.3333H13.65C14.5166 18.3333 15.2666 17.75 15.4666 16.9083L18.275 5.63333C18.325 5.42499 18.3416 5.21666 18.325 5.01666C18.3083 4.81666 18.2666 4.61666 18.1833 4.44166ZM12.25 13.9583H5.58329C5.24162 13.9583 4.95829 13.675 4.95829 13.3333C4.95829 12.9917 5.24162 12.7083 5.58329 12.7083H12.25C12.5916 12.7083 12.875 12.9917 12.875 13.3333C12.875 13.675 12.5916 13.9583 12.25 13.9583ZM13.0833 10.625H6.41662C6.07496 10.625 5.79162 10.3417 5.79162 9.99999C5.79162 9.65832 6.07496 9.37499 6.41662 9.37499H13.0833C13.425 9.37499 13.7083 9.65832 13.7083 9.99999C13.7083 10.3417 13.425 10.625 13.0833 10.625Z" fill="#7D7D7D"/>
</svg>
