<svg width="45" height="44" viewBox="0 0 45 44" fill="none" xmlns="http://www.w3.org/2000/svg">
<rect x="0.5" width="44" height="44" rx="22" fill="white"/>
<path d="M26.69 12H18.31C14.67 12 12.5 14.17 12.5 17.81V26.19C12.5 29.83 14.67 32 18.31 32H26.69C30.33 32 32.5 29.83 32.5 26.19V17.81C32.5 14.17 30.33 12 26.69 12ZM20.47 24.9L18.22 27.15C18.07 27.3 17.88 27.37 17.69 27.37C17.5 27.37 17.3 27.3 17.16 27.15L16.41 26.4C16.11 26.11 16.11 25.63 16.41 25.34C16.7 25.05 17.17 25.05 17.47 25.34L17.69 25.56L19.41 23.84C19.7 23.55 20.17 23.55 20.47 23.84C20.76 24.13 20.76 24.61 20.47 24.9ZM20.47 17.9L18.22 20.15C18.07 20.3 17.88 20.37 17.69 20.37C17.5 20.37 17.3 20.3 17.16 20.15L16.41 19.4C16.11 19.11 16.11 18.63 16.41 18.34C16.7 18.05 17.17 18.05 17.47 18.34L17.69 18.56L19.41 16.84C19.7 16.55 20.17 16.55 20.47 16.84C20.76 17.13 20.76 17.61 20.47 17.9ZM28.06 26.62H22.81C22.4 26.62 22.06 26.28 22.06 25.87C22.06 25.46 22.4 25.12 22.81 25.12H28.06C28.48 25.12 28.81 25.46 28.81 25.87C28.81 26.28 28.48 26.62 28.06 26.62ZM28.06 19.62H22.81C22.4 19.62 22.06 19.28 22.06 18.87C22.06 18.46 22.4 18.12 22.81 18.12H28.06C28.48 18.12 28.81 18.46 28.81 18.87C28.81 19.28 28.48 19.62 28.06 19.62Z" fill="#8AC53E"/>
</svg>
