<svg width="20" height="20" viewBox="0 0 20 20" fill="none" xmlns="http://www.w3.org/2000/svg">
<path d="M18.0582 5.79169C17.5249 3.98335 16.0166 2.47502 14.2082 1.94169C12.8332 1.54169 11.8832 1.57502 11.2249 2.06669C10.4332 2.65835 10.3416 3.72502 10.3416 4.48336V6.55835C10.3416 8.60836 11.2749 9.65002 13.1082 9.65002H15.4999C16.2499 9.65002 17.3249 9.55836 17.9166 8.76669C18.4249 8.11669 18.4666 7.16669 18.0582 5.79169Z" fill="#7D7D7D"/>
<path d="M15.7582 11.1333C15.5416 10.8833 15.2249 10.7417 14.8999 10.7417H11.9166C10.4499 10.7417 9.25825 9.55 9.25825 8.08334V5.1C9.25825 4.775 9.11658 4.45834 8.86658 4.24167C8.62492 4.025 8.29158 3.925 7.97492 3.96667C6.01658 4.21667 4.21658 5.29167 3.04158 6.90834C1.85825 8.53334 1.42492 10.5167 1.79992 12.5C2.34158 15.3667 4.63325 17.6583 7.50825 18.2C7.96658 18.2917 8.42492 18.3333 8.88325 18.3333C10.3916 18.3333 11.8499 17.8667 13.0916 16.9583C14.7082 15.7833 15.7832 13.9833 16.0332 12.025C16.0749 11.7 15.9749 11.375 15.7582 11.1333Z" fill="#7D7D7D"/>
</svg>
