<svg width="192" height="192" viewBox="0 0 192 192" fill="none" xmlns="http://www.w3.org/2000/svg">
<path d="M103.712 25.7978C105.698 24.6314 108.3 24.6942 110.283 25.8299C111.667 26.6075 112.673 27.9775 113.057 29.5127C111.97 30.0255 111.05 30.8383 110.357 31.8164C110.005 32.3245 109.405 32.9077 109.768 33.5674C110.345 33.2491 110.599 32.623 110.955 32.1072C111.508 31.2898 112.27 30.5872 113.192 30.2122C114.903 29.577 116.934 29.6 118.482 30.6454C121.569 32.6934 122.371 37.4278 120.159 40.3942C119.164 41.758 117.595 42.5953 115.973 42.9642C115.769 43.9208 115.633 44.8898 115.466 45.8525C114.526 45.3382 113.528 44.9449 112.555 44.5025C112.071 44.3142 111.956 43.6117 112.321 43.255C112.837 42.6902 113.634 42.5478 114.361 42.4805C112.013 41.905 109.581 41.5499 107.164 41.8545C107.919 42.0611 108.754 42.2708 109.266 42.9121C109.637 43.3407 109.431 44.103 108.886 44.2698C108.133 44.5775 107.325 44.7199 106.561 44.9984C105.751 45.274 104.983 45.649 104.19 45.9658C103.757 46.1357 103.19 46.1694 102.834 45.825C102.578 45.5571 102.722 45.1637 102.805 44.8561C103.086 43.8994 103.78 43.1387 104.563 42.5524C102.482 43.327 100.738 44.7995 99.3101 46.4709C98.5371 47.3373 97.8636 48.2955 97.0126 49.0884C96.5626 49.5108 95.886 49.8659 95.2799 49.5537C94.1426 49.0256 93.7354 47.7337 92.8798 46.898C91.7609 45.8724 90.5991 44.8928 89.3837 43.9805C89.3638 44.2163 89.3501 44.4566 89.3317 44.6938C89.3317 44.4382 89.3348 44.1826 89.3348 43.9285C89.3424 41.6616 89.3011 39.3931 89.1342 37.1308C89.0485 36.067 88.9628 34.9971 88.6904 33.9608C88.3031 32.4256 88.7975 30.7877 89.7281 29.5464C91.3216 27.4157 93.9666 26.1253 96.6223 26.1284C98.4912 26.1162 100.3 26.9198 101.632 28.2147C102.038 27.2075 102.772 26.3427 103.712 25.7978Z" fill="#5B2448"/>
<path d="M108.122 47.3462C108.347 47.2926 108.658 47.2513 108.802 47.487C109.305 48.2018 109.014 49.4845 108.096 49.7003C107.282 49.9161 106.432 49.7386 105.639 49.5212C104.9 49.2901 104.139 49.0054 103.585 48.4436C103.464 48.3197 103.302 48.1712 103.405 47.9844C103.914 47.761 104.488 47.8574 105.029 47.8161C106.071 47.7503 107.109 47.6048 108.122 47.3462Z" fill="#5B2448"/>
<path d="M111.109 49.1204C111.021 48.6337 110.892 47.9005 111.465 47.6602C112.493 47.8224 113.462 48.2939 114.515 48.3627C114.783 48.3428 114.837 48.6719 114.703 48.8434C114.148 49.8107 112.835 50.0893 111.83 49.7281C112.169 50.4552 112.697 51.0996 112.882 51.8909C113 52.6057 112.325 53.1185 111.76 53.4001C111.517 53.4966 111.002 53.7369 111.038 53.2624C111.466 52.8415 112.342 52.7542 112.406 52.044C112.166 50.9924 111.272 50.2057 111.109 49.1204Z" fill="#5B2448"/>
<path d="M98.7675 63.4502C100.528 65.0268 102.559 66.3034 104.771 67.1452C104.641 68.1524 104.514 69.1611 104.481 70.1775L104.706 70.127C103.696 70.43 102.72 70.8357 101.765 71.2765C101.543 71.252 101.321 71.2275 101.1 71.2275C98.9129 69.383 97.7833 66.2069 98.7675 63.4502Z" fill="#5B2448"/>
<path d="M18.1852 121.918C19.4847 120.33 21.2955 119.217 23.2364 118.591C23.0405 120.443 22.9532 122.304 22.8935 124.164C22.7221 126.406 22.7236 128.663 22.9532 130.899C21.2312 130.704 19.4373 130.316 18.0367 129.234C16.5642 128.087 16.0346 125.95 16.6775 124.219C17.1398 123.426 17.5867 122.618 18.1852 121.918Z" fill="#5B2448"/>
<path d="M90.6526 129.405C90.3082 129.235 90.4169 128.938 90.7368 128.855C93.968 128.946 97.2039 128.866 100.438 128.895C118.603 128.901 136.767 128.898 154.931 128.9C158.418 128.886 161.905 128.944 165.392 128.871C165.756 128.921 165.794 129.209 165.485 129.414C157.734 129.361 149.983 129.407 142.23 129.39C125.037 129.399 107.845 129.364 90.6526 129.405Z" fill="#5B2448"/>
<path d="M110.356 31.8163C111.05 30.8383 111.969 30.0255 113.056 29.5127C113.102 29.7454 113.145 29.978 113.191 30.2122C112.269 30.5872 111.507 31.2898 110.955 32.1072C110.598 32.623 110.344 33.249 109.767 33.5674C109.404 32.9077 110.004 32.3245 110.356 31.8163Z" fill="#9B3C82"/>
<path d="M85.2715 45.8006C85.7429 45.3782 86.4042 45.6767 86.92 45.8512C89.0675 46.7542 90.4145 49.0166 90.5615 51.2942C90.5661 51.6524 89.9676 51.6447 89.9768 51.2896C89.787 50.1906 89.5298 49.0625 88.8624 48.141C88.3359 47.3818 87.5476 46.8323 86.6873 46.5124C86.196 46.3149 85.645 46.2032 85.2715 45.8006Z" fill="#9B3C82"/>
<path d="M106.281 54.7934C106.641 54.5377 106.783 54.9556 106.816 55.2418C107.067 56.7496 109.031 57.7399 110.344 56.8797C110.535 56.774 110.835 56.4955 110.987 56.8123C111.059 57.2593 110.538 57.5134 110.231 57.7368C108.386 58.767 105.781 56.8751 106.281 54.7934Z" fill="#9B3C82"/>
<path d="M87.335 56.0207C87.3717 55.7758 87.41 55.5324 87.4513 55.2891C88.3437 55.5217 89.2682 55.5554 90.1835 55.612C90.4208 55.6136 90.5157 56.0008 90.2983 56.1279C90.0902 56.2932 89.8055 56.2335 89.5636 56.2381C88.8197 56.1784 88.0789 56.0819 87.335 56.0207Z" fill="#9B3C82"/>
<path d="M101.098 71.2275C101.319 71.2275 101.541 71.252 101.763 71.2765C101.391 71.774 100.765 71.9225 100.24 72.1965C97.6544 73.4715 95.1702 74.9409 92.715 76.4486C90.5766 77.7834 88.4414 79.1227 86.3734 80.5631C86.303 80.5355 86.1622 80.4804 86.0918 80.4529C86.101 80.3579 86.1178 80.1651 86.1255 80.0702C86.8602 79.6692 87.5276 79.161 88.2347 78.7171C92.3997 76.0201 96.6151 73.3705 101.098 71.2275Z" fill="#9B3C82"/>
<path d="M137.22 72.7585C137.631 72.4769 137.951 73.1917 137.485 73.3187C134.38 74.9198 131.905 77.4485 129.623 80.0399C129.882 79.6205 130.159 79.2133 130.44 78.8092C130.165 78.9363 129.9 79.0771 129.631 79.2118C130.111 78.3638 130.878 77.7301 131.533 77.0214C133.223 75.3591 135.072 73.7963 137.22 72.7585Z" fill="#9B3C82"/>
<path d="M109.774 74.5557C111.255 74.5909 112.579 75.4037 113.772 76.2103C115.83 77.7196 117.613 79.6007 119.093 81.6748L118.819 81.6212C118.568 81.4926 118.32 81.3549 118.077 81.2171C117.409 80.7166 116.975 79.9849 116.379 79.4125C114.61 77.5757 112.588 75.7634 110.038 75.1725C109.709 75.1404 109.767 74.7899 109.774 74.5557Z" fill="#9B3C82"/>
<path d="M140.51 74.9822C140.785 74.8031 141.182 74.9209 141.107 75.3082C140.749 75.674 140.222 75.8118 139.799 76.095C137.718 77.3731 136.028 79.1808 134.464 81.0329C134.13 81.4018 133.888 81.8686 133.453 82.1334C133.609 81.8916 133.759 81.6467 133.905 81.4002C133.579 81.5747 133.264 81.7584 132.948 81.9452C133.415 81.2043 134.027 80.5691 134.583 79.8956C136.287 77.9746 138.162 76.098 140.51 74.9822Z" fill="#9B3C82"/>
<path d="M106.906 77.7213C106.84 77.4917 106.872 77.2254 107.161 77.207C107.91 77.3693 108.585 77.7565 109.242 78.1392C111.19 79.3484 112.84 80.9709 114.392 82.647C114.585 82.8491 114.712 83.1001 114.845 83.3465C114.265 82.8537 113.716 82.3164 113.059 81.9245C113.454 82.4373 113.896 82.9118 114.311 83.4108C114.123 83.2639 113.933 83.12 113.768 82.9516C112.251 81.297 110.601 79.7219 108.664 78.5647C108.112 78.2112 107.477 78.0336 106.906 77.7213Z" fill="#9B3C82"/>
<path d="M143.919 78.6926C144.366 78.5243 144.833 78.2334 145.327 78.3436C145.512 78.6452 145.312 78.9192 145 78.9727C142.897 79.6493 141.176 81.1402 139.757 82.7872C139.408 83.2219 139.07 83.6673 138.637 84.0224C139.076 83.4407 139.552 82.8851 139.981 82.2927C139.529 82.5713 139.105 82.8897 138.667 83.1882C139.999 81.2917 141.799 79.66 143.919 78.6926Z" fill="#9B3C82"/>
<path d="M103.517 80.5178C103.772 80.0218 104.286 80.4779 104.609 80.6387C106.752 81.828 108.541 83.5852 109.859 85.6439L109.643 85.5904C109.374 85.3837 109.107 85.171 108.835 84.9704L108.892 85.2536C108.347 84.7669 107.956 84.1393 107.438 83.6296C106.447 82.5949 105.272 81.7515 104.015 81.0703C103.808 80.9295 103.488 80.8239 103.517 80.5178Z" fill="#9B3C82"/>
<path d="M144.762 84.5476C145.919 83.7409 146.98 82.7995 148.172 82.0449C148.673 82.5837 149.225 83.0995 149.909 83.398C151.019 83.9307 152.361 83.8664 153.46 83.3353C153.782 83.1929 154.091 82.9802 154.458 82.971C154.48 83.0475 154.526 83.2006 154.549 83.2771C153.857 83.8848 152.908 84.1435 152.011 84.2598C150.531 84.4251 149.109 83.7179 148.068 82.7092C147.032 83.4929 145.992 84.272 144.962 85.0634C144.912 84.9348 144.811 84.6761 144.762 84.5476Z" fill="#9B3C82"/>
<path d="M114.374 106.978C114.726 106.088 115.544 105.351 116.511 105.223C117.466 105.099 118.418 105.642 118.917 106.446C119.003 106.58 119.089 106.72 119.17 106.862C119.505 107.738 119.491 108.745 119.08 109.594C118.504 110.814 117.423 111.742 116.225 112.323C117.071 113.193 118.271 113.834 119.514 113.651C120.029 113.579 120.416 113.207 120.722 112.816C120.101 112.149 119.647 111.287 119.631 110.361C119.62 109.891 120.003 109.446 120.48 109.427C120.971 109.397 121.376 109.795 121.53 110.234C121.818 111.032 121.659 111.913 121.356 112.683C121.971 113.17 122.747 113.514 123.546 113.465C124.004 113.45 124.305 113.04 124.464 112.653C124.757 111.978 124.746 111.232 124.806 110.513C124.778 110.268 125.291 110.24 125.25 110.531C125.412 111.419 125.53 112.414 126.223 113.067C126.702 113.514 127.451 113.412 127.988 113.132C128.887 112.639 129.323 111.599 129.433 110.624C129.017 110.225 128.415 110.001 128.1 109.483C127.729 109.008 127.628 108.188 128.179 107.81C128.527 107.565 128.943 107.819 129.202 108.074C129.776 108.633 129.921 109.472 129.955 110.24C131.299 110.796 132.758 111.018 134.201 111.125C134.297 110.22 134.469 109.313 134.826 108.472C134.904 108.206 135.418 108.339 135.257 108.654C135.009 109.49 134.718 110.335 134.734 111.22C135.672 111.313 136.638 111.351 137.536 111.667C137.951 111.794 138.291 112.225 138.121 112.671C137.999 112.874 137.861 113.07 137.715 113.259C137.175 113.77 136.57 114.298 135.822 114.456C135.231 114.596 134.659 114.183 134.449 113.647C134.383 113.473 134.328 113.292 134.282 113.115C134.161 112.636 134.169 112.137 134.154 111.648C132.715 111.512 131.29 111.249 129.912 110.81C129.759 111.884 129.249 112.998 128.268 113.551C127.593 113.912 126.681 114.038 126.032 113.556C125.597 113.253 125.375 112.758 125.123 112.314C124.904 112.963 124.585 113.736 123.848 113.915C122.871 114.12 121.896 113.684 121.105 113.144C120.725 113.626 120.22 114.058 119.589 114.142C118.115 114.355 116.678 113.585 115.717 112.509C114.045 113.003 111.945 112.751 110.858 111.255C110.985 111.058 111.261 110.92 111.416 111.172C112.386 112.204 113.99 112.492 115.305 112.065C114.5 110.709 113.849 109.114 114.214 107.511C114.26 107.33 114.313 107.153 114.374 106.978ZM114.942 106.9C114.876 107.092 114.812 107.284 114.749 107.477L114.705 107.482C114.384 109.048 114.93 110.681 115.893 111.921C117.033 111.411 118.06 110.549 118.614 109.415C118.988 108.667 118.998 107.776 118.676 107.009C118.57 106.839 118.467 106.671 118.368 106.502C117.964 106.069 117.436 105.703 116.822 105.705C116.015 105.676 115.342 106.248 114.942 106.9ZM128.438 108.159C127.982 108.938 128.816 109.639 129.439 109.977C129.399 109.267 129.136 108.469 128.438 108.159ZM120.128 110.364C120.162 111.079 120.451 111.794 120.968 112.297C121.19 111.603 121.348 110.745 120.892 110.112C120.668 109.773 120.091 109.94 120.128 110.364ZM134.654 111.702C134.657 112.16 134.692 112.617 134.755 113.073L134.806 113.067C134.864 113.245 134.913 113.427 134.956 113.612C135.433 114.29 136.287 113.843 136.768 113.41C137.037 113.271 137.224 113.02 137.415 112.793L137.49 112.789C137.581 112.593 137.795 112.265 137.46 112.178C136.57 111.823 135.589 111.824 134.654 111.702Z" fill="#9B3C82"/>
<path d="M23.2354 118.592C25.0814 117.995 27.0284 117.76 28.9632 117.739C32.1577 117.69 35.3323 118.151 38.4686 118.712C37.4706 120.066 36.6594 121.543 35.7088 122.926C34.7277 124.707 33.8919 126.562 33.0684 128.417C32.9919 128.752 32.6552 128.657 32.4072 128.625C32.5893 127.831 32.9919 127.117 33.3118 126.376C33.8965 125.068 34.5654 123.799 35.2052 122.518C31.0679 122.773 26.9641 123.401 22.8926 124.165C22.9523 122.305 23.0395 120.444 23.2354 118.592Z" fill="#9B3C82"/>
<path d="M102.896 123.14C103.023 123.14 103.277 123.14 103.404 123.14C119.243 123.144 135.081 123.14 150.921 123.142C151.207 123.14 151.491 123.139 151.779 123.14C155.072 123.147 158.364 123.137 161.655 123.144C162.205 123.099 162.704 123.439 162.916 123.938C163.741 125.582 164.565 127.227 165.391 128.871C161.905 128.945 158.418 128.887 154.931 128.9C136.766 128.899 118.602 128.902 100.438 128.896C97.2034 128.867 93.9676 128.946 90.7363 128.856C91.4052 127.212 92.0359 125.551 92.717 123.912C92.8915 123.448 93.3522 123.128 93.8528 123.151C96.8666 123.13 99.882 123.156 102.896 123.14ZM148.677 124.795C147.737 125.254 147.965 127.073 149.11 127.053C150.846 127.065 152.583 127.068 154.319 127.051C155.568 127.053 155.666 124.885 154.461 124.712C153.138 124.651 151.813 124.706 150.489 124.688C149.887 124.722 149.254 124.59 148.677 124.795ZM156.951 124.777C156.057 125.158 156.117 126.751 157.075 127.016C157.733 127.096 158.405 127.088 159.067 127.027C160.164 126.831 160.161 124.915 159.064 124.72C158.364 124.682 157.636 124.611 156.951 124.777Z" fill="#9B3C82"/>
<path d="M90.6523 129.405C107.845 129.364 125.037 129.399 142.23 129.39C149.982 129.407 157.734 129.361 165.485 129.415C165.073 131.819 164.945 134.268 164.692 136.694C164.312 140.881 163.91 145.066 163.543 149.253C162.835 156.748 162.188 164.248 161.467 171.739C161.447 171.892 161.358 171.969 161.204 171.967C139.038 171.978 116.873 171.961 94.7071 171.976C94.4331 170.793 94.4499 169.568 94.2938 168.37C93.2759 157.455 92.3192 146.535 91.2937 135.621C91.0763 133.55 90.9768 131.461 90.6523 129.405ZM92.1861 139.858C92.5534 143.892 92.9177 147.926 93.308 151.958C93.3172 152.185 93.3279 152.416 93.3387 152.649L93.3739 152.65C93.9341 158.924 94.5341 165.195 95.0989 171.468C104.355 171.463 113.609 171.489 122.865 171.456C123.19 171.529 123.526 171.457 123.857 171.439C124.105 171.493 124.368 171.465 124.625 171.474C127.205 171.451 129.787 171.502 132.366 171.448C132.79 171.546 133.235 171.46 133.666 171.43C134.086 171.514 134.523 171.46 134.951 171.457C135.27 171.522 135.599 171.462 135.922 171.445C139.412 171.486 142.911 171.476 146.402 171.439C147.38 171.532 148.371 171.46 149.353 171.47C153.223 171.476 157.094 171.46 160.965 171.477C161.464 166.451 161.914 161.418 162.364 156.386L162.399 156.371C162.407 156.177 162.419 155.984 162.433 155.794C162.63 153.723 162.82 151.652 163.005 149.581L162.75 149.677C162.817 149.648 162.952 149.59 163.019 149.561C163.278 146.535 163.582 143.512 163.844 140.484C161.972 140.466 160.1 140.435 158.228 140.44C158.023 140.434 157.812 140.425 157.611 140.425C155.84 140.405 154.071 140.392 152.3 140.374C152.096 140.373 151.894 140.374 151.694 140.376C148.559 140.34 145.423 140.31 142.286 140.293C142.031 140.293 141.773 140.295 141.521 140.307C139.897 140.226 138.264 140.272 136.637 140.236C136.401 140.235 136.165 140.233 135.934 140.235C134.991 140.216 134.048 140.215 133.107 140.207C130.323 140.181 127.537 140.148 124.752 140.14C124.625 140.137 124.368 140.132 124.241 140.129C123.057 140.112 121.872 140.108 120.689 140.094C120.558 140.094 120.3 140.094 120.17 140.094C119.397 140.083 118.624 140.068 117.851 140.082C117.718 140.076 117.453 140.066 117.32 140.06C116.236 140.059 115.154 140.047 114.07 140.033C113.889 140.036 113.709 140.043 113.531 140.057C112.714 140.001 111.893 140.013 111.074 140.019C110.894 140.011 110.713 140.007 110.536 140.002C109.427 139.996 108.319 139.982 107.211 139.976C107.037 139.973 106.861 139.97 106.688 139.97C101.854 139.938 97.0199 139.866 92.1861 139.858Z" fill="#9B3C82"/>
<path d="M107.164 41.8548C109.581 41.5502 112.013 41.9053 114.362 42.4808C113.634 42.5482 112.837 42.6905 112.321 43.2553C111.957 43.612 112.072 44.3146 112.555 44.5028C113.529 44.9452 114.527 45.3386 115.467 45.8529C114.831 48.83 115.407 51.8898 116.117 54.7996C116.65 57.0757 117.371 59.3334 117.492 61.6845C117.558 63.1525 117.285 64.7474 116.255 65.8633C114.804 67.5164 112.516 68.1042 110.392 68.1547C108.479 68.1899 106.544 67.8746 104.77 67.146C102.559 66.3041 100.527 65.0275 98.7671 63.4509C97.7829 66.2077 98.9125 69.3838 101.1 71.2282C96.6165 73.3712 92.4011 76.0207 88.2361 78.7178C87.529 79.1617 86.8616 79.6698 86.1269 80.0709C84.5702 79.0499 82.8482 78.1147 81.8104 76.5075C83.1941 73.4033 84.3758 70.2088 85.383 66.9623C86.4667 63.2917 87.5045 59.5064 87.3162 55.643C87.2733 55.5144 87.2228 55.3905 87.1631 55.2695C84.8074 54.7858 82.4716 53.4649 81.3344 51.2714C80.0884 48.9479 80.491 45.7993 82.4502 43.9885C83.3334 43.1574 84.5457 42.6921 85.7595 42.7242C87.0437 42.7441 88.2621 43.2553 89.3351 43.9288C89.3351 44.1829 89.3321 44.4385 89.3321 44.6942C89.3504 44.4569 89.3642 44.2166 89.3841 43.9809C90.5995 44.8932 91.7612 45.8728 92.8802 46.8983C93.7358 47.7341 94.143 49.0259 95.2802 49.554C95.8864 49.8663 96.5629 49.5112 97.013 49.0887C97.864 48.2958 98.5375 47.3376 99.3105 46.4713C100.739 44.7998 102.482 43.3273 104.564 42.5528C103.78 43.139 103.087 43.8998 102.805 44.8564C102.722 45.1641 102.578 45.5575 102.834 45.8253C103.191 46.1697 103.757 46.1361 104.19 45.9662C104.983 45.6493 105.752 45.2743 106.561 44.9988C107.325 44.7202 108.133 44.5778 108.886 44.2702C109.431 44.1033 109.638 43.3411 109.266 42.9125C108.755 42.2711 107.919 42.0614 107.164 41.8548ZM85.2728 45.8008C85.6462 46.2034 86.1973 46.3151 86.6886 46.5126C87.5489 46.8325 88.3371 47.382 88.8637 48.1412C89.5311 49.0627 89.7882 50.1908 89.978 51.2898C89.9688 51.6449 90.5673 51.6526 90.5627 51.2944C90.4158 49.0168 89.0688 46.7544 86.9213 45.8514C86.4055 45.6769 85.7442 45.3784 85.2728 45.8008ZM91.2883 46.41C91.3648 46.4896 91.3648 46.4896 91.2883 46.41V46.41ZM108.123 47.3468C107.109 47.6055 106.071 47.7509 105.029 47.8167C104.489 47.8581 103.915 47.7616 103.405 47.9851C103.302 48.1718 103.465 48.3203 103.586 48.4443C104.14 49.0061 104.9 49.2908 105.64 49.5219C106.433 49.7392 107.282 49.9168 108.096 49.701C109.015 49.4852 109.306 48.2025 108.802 47.4876C108.658 47.2519 108.348 47.2932 108.123 47.3468ZM111.109 49.1209C111.271 50.2061 112.165 50.9929 112.405 52.0444C112.341 52.7547 111.465 52.8419 111.037 53.2628C111.002 53.7373 111.516 53.497 111.759 53.4006C112.324 53.1189 112.999 52.6062 112.881 51.8914C112.696 51.1 112.168 50.4556 111.83 49.7285C112.834 50.0898 114.147 49.8112 114.703 48.8438C114.836 48.6724 114.782 48.3433 114.515 48.3632C113.461 48.2943 112.493 47.8228 111.464 47.6606C110.891 47.9009 111.02 48.6341 111.109 49.1209ZM98.4334 52.2005C98.037 52.92 98.0171 53.8032 98.2084 54.5869C98.565 55.5435 99.2477 56.5476 100.321 56.7436C101.095 56.9915 101.937 56.8813 102.679 56.5737C103.875 55.9951 104.666 54.6588 104.502 53.3225C104.343 52.2113 103.716 51.1429 102.77 50.5229C102.405 50.6837 102.024 50.5138 101.655 50.4801C100.361 50.2872 99.0044 51.0311 98.4334 52.2005ZM97.1002 53.1817C97.2364 53.2154 97.3757 53.2506 97.515 53.2858C97.5349 53.644 97.5625 54.0037 97.6206 54.3603C97.6727 53.9103 97.6773 53.4572 97.665 53.0057C97.4752 53.0638 97.2854 53.122 97.1002 53.1817ZM106.283 54.7935C105.782 56.8752 108.387 58.7671 110.232 57.737C110.539 57.5135 111.06 57.2594 110.988 56.8124C110.836 56.4956 110.536 56.7742 110.345 56.8798C109.032 57.74 107.068 56.7497 106.817 55.242C106.785 54.9557 106.642 54.5379 106.283 54.7935ZM87.3361 56.0211C88.08 56.0823 88.8208 56.1787 89.5647 56.2384C89.8066 56.2339 90.0913 56.2935 90.2995 56.1282C90.5168 56.0012 90.4219 55.6139 90.1847 55.6124C89.2693 55.5558 88.3448 55.5221 87.4524 55.2894C87.4111 55.5328 87.3728 55.7762 87.3361 56.0211Z" fill="#F4ADA2"/>
<path d="M136.399 69.8112C140.368 68.7673 144.697 69.9536 147.901 72.4271C153.084 75.8237 157.16 80.6498 160.498 85.8158C164.054 91.3461 166.78 97.3739 168.957 103.567C171.08 109.601 172.838 115.794 173.711 122.142C174.224 125.939 174.413 129.806 173.956 133.618C173.585 136.652 172.782 139.669 171.282 142.349C169.583 145.411 166.889 147.981 163.625 149.294L163.543 149.254C163.91 145.066 164.313 140.881 164.692 136.695C164.945 134.269 165.073 131.82 165.485 129.415C165.794 129.21 165.756 128.922 165.392 128.872C164.565 127.228 163.742 125.582 162.917 123.939C162.704 123.44 162.205 123.1 161.655 123.144C158.364 123.138 155.072 123.147 151.78 123.141C151.372 121.338 150.925 119.542 150.549 117.732C148.968 108.379 147.383 99.0285 145.804 89.6746C145.504 88.1424 145.355 86.5766 144.963 85.0643C145.994 84.2729 147.033 83.4938 148.069 82.7101C149.11 83.7188 150.532 84.426 152.012 84.2607C152.909 84.1443 153.858 83.8857 154.55 83.278C154.527 83.2015 154.481 83.0484 154.46 82.9719C154.092 82.981 153.783 83.1938 153.462 83.3362C152.363 83.8673 151.02 83.9316 149.911 83.3989C149.226 83.1004 148.674 82.5846 148.173 82.0458C146.981 82.8004 145.92 83.7418 144.763 84.5484C144.68 84.602 144.518 84.7122 144.437 84.7673C142.877 85.7577 141.284 86.7036 139.623 87.5149C139.173 87.7077 138.74 87.9343 138.305 88.1562C137.88 88.294 137.436 88.372 136.989 88.369C136.934 88.1838 136.883 88.0016 136.836 87.8179C136.909 87.0541 137.231 86.3454 137.589 85.6765C137.903 85.1056 138.204 84.5178 138.637 84.0234C139.07 83.6683 139.409 83.2229 139.758 82.7882C141.177 81.1412 142.897 79.6503 145 78.9738C145.312 78.9202 145.513 78.6462 145.328 78.3447C144.833 78.2345 144.367 78.5253 143.92 78.6936C141.8 79.661 140 81.2927 138.668 83.1892C137.595 83.8627 136.51 84.5194 135.427 85.1775C134.459 85.7638 133.445 86.4388 132.276 86.4648C131.951 86.4924 131.702 86.1878 131.731 85.8771C131.746 85.0704 132.133 84.3372 132.496 83.6377C132.764 83.1402 133.02 82.6305 133.378 82.1897L133.454 82.1346C133.889 81.8698 134.131 81.4029 134.465 81.034C136.029 79.1819 137.719 77.3742 139.801 76.0961C140.223 75.8129 140.75 75.6752 141.108 75.3094C141.183 74.9221 140.786 74.8042 140.511 74.9833C138.163 76.0992 136.288 77.9758 134.584 79.8967C134.028 80.5702 133.416 81.2055 132.949 81.9463C131.866 82.5724 130.757 83.2061 129.537 83.5198C129.155 83.6209 128.509 83.6362 128.466 83.1081C128.438 81.9846 129.083 80.982 129.623 80.0406C131.905 77.4492 134.38 74.9206 137.485 73.3195C137.952 73.1924 137.632 72.4776 137.22 72.7593C135.072 73.7971 133.223 75.3599 131.533 77.0222C130.878 77.7309 130.111 78.3646 129.631 79.2125C128.829 79.6121 127.987 80.0284 127.076 80.0697C126.756 80.1003 126.386 79.932 126.338 79.5845C126.262 78.9263 126.629 78.3263 126.935 77.7722C127.796 76.364 128.87 75.0951 130.04 73.9348C130.228 73.7511 130.413 73.5659 130.603 73.3838C132.311 71.8837 134.154 70.3929 136.399 69.8112Z" fill="#F4ADA2"/>
<path d="M104.706 70.128C106.549 69.577 108.541 69.7607 110.367 70.2933C112.07 70.8015 113.664 71.6694 115.025 72.8143C115.652 73.3348 116.359 73.8108 116.803 74.5088C116.912 74.7154 117.079 74.8823 117.261 75.0292C118.798 76.3134 120.028 77.9482 120.973 79.7069C121.32 80.4309 121.733 81.2177 121.603 82.0458C121.568 82.3519 121.231 82.5019 120.956 82.4453C120.195 82.3289 119.496 81.9754 118.821 81.6218L119.095 81.6754C117.614 79.6013 115.831 77.7201 113.774 76.2109C112.58 75.4042 111.256 74.5914 109.776 74.5562C109.768 74.7904 109.71 75.1409 110.039 75.1731C112.589 75.7639 114.611 77.5762 116.381 79.413C116.976 79.9855 117.411 80.7172 118.078 81.2177C118.441 82.1483 119.102 82.9382 119.398 83.904C119.551 84.4091 119.768 85.0719 119.381 85.5173C118.916 85.7638 118.355 85.5801 117.878 85.4576C116.656 85.1102 115.778 84.1489 114.847 83.3468C114.714 83.1004 114.587 82.8494 114.394 82.6473C112.842 80.9712 111.192 79.3487 109.243 78.1395C108.587 77.7569 107.912 77.3696 107.163 77.2073C106.874 77.2257 106.842 77.4921 106.907 77.7217C107.478 78.0339 108.114 78.2115 108.666 78.565C110.602 79.7222 112.253 81.2973 113.769 82.9519C113.935 83.1203 114.125 83.2642 114.313 83.4111C114.796 83.8979 115.092 84.5255 115.442 85.1086C115.96 86.0362 116.52 87.0602 116.407 88.1562C116.368 88.6307 115.813 88.6797 115.444 88.6827C114.222 88.6276 113.14 87.9725 112.119 87.3602C111.267 86.8107 110.442 86.2168 109.644 85.5908L109.86 85.6444C108.542 83.5856 106.753 81.8284 104.61 80.6391C104.287 80.4784 103.773 80.0222 103.519 80.5182C103.489 80.8243 103.809 80.9299 104.016 81.0707C105.273 81.7519 106.448 82.5953 107.439 83.63C107.957 84.1397 108.348 84.7673 108.893 85.254C109.298 85.7729 109.559 86.3852 109.903 86.9454C110.359 87.7398 110.823 88.5373 111.163 89.3914C111.241 89.6578 111.403 89.9731 111.221 90.2333C110.359 90.6481 109.419 90.1369 108.636 89.7695C106.248 88.4654 104.106 86.7311 102.222 84.7765C102.031 85.7638 101.783 86.8107 101.063 87.5592C100.431 88.196 99.6444 88.6598 98.8271 89.0195C98.6541 89.0868 98.4811 89.1511 98.3082 89.2123C98.2163 89.2414 98.1275 89.272 98.0388 89.3057C97.9622 89.3562 97.8061 89.4603 97.7281 89.5124C97.9867 91.5007 98.3419 93.4768 98.6357 95.462C96.479 100.761 93.9412 105.9 91.186 110.911C86.4884 119.397 81.105 127.536 74.7558 134.883C71.4098 138.719 67.8388 142.395 63.7749 145.478C60.3982 148.03 56.6756 150.185 52.6332 151.481C49.2091 152.588 45.5538 153.04 41.9736 152.606C40.3986 152.458 38.8664 152.026 37.3954 151.451C33.2733 149.866 29.69 146.958 27.244 143.285C24.772 139.616 23.4143 135.279 22.9536 130.9C22.724 128.664 22.7224 126.407 22.8939 124.165C26.9654 123.401 31.0692 122.774 35.2065 122.518C34.5667 123.799 33.8978 125.068 33.3131 126.377C32.9932 127.118 32.5906 127.831 32.4085 128.625C32.6565 128.658 32.9932 128.752 33.0697 128.417C33.8932 126.562 34.729 124.707 35.7101 122.927C36.6607 121.543 37.4719 120.066 38.4699 118.713C41.4532 114.504 45.162 110.867 49.1019 107.56C53.0066 104.283 57.0904 101.23 61.1513 98.1514C63.5422 96.3575 65.9453 94.5804 68.3699 92.8324C68.8031 92.5415 68.8919 91.9905 69.0893 91.5435C69.5225 90.469 69.8592 89.3608 70.245 88.271C70.2985 87.9817 70.822 87.9802 70.8312 88.3062C70.5787 89.5353 70.0414 90.6848 69.6557 91.8742C72.6558 89.7787 75.6375 87.6526 78.6697 85.6C77.3503 83.2412 76.7426 80.5717 76.2697 77.9359C76.2482 77.6819 76.0967 77.391 76.3049 77.1783C76.4013 77.1645 76.5942 77.1385 76.6906 77.1247C76.7289 77.1568 76.8054 77.2227 76.8421 77.2548C77.2126 80.0069 77.857 82.7851 79.1978 85.2387C81.5749 83.656 83.9689 82.1009 86.3751 80.5641C88.443 79.1237 90.5783 77.7844 92.7167 76.4497C95.1718 74.942 97.6561 73.4725 100.241 72.1975C100.766 71.9235 101.392 71.775 101.764 71.2776C102.72 70.8367 103.696 70.4311 104.706 70.128Z" fill="#F4ADA2"/>
<path d="M133.107 140.208C134.049 140.216 134.992 140.217 135.935 140.236C137.626 142.346 139.483 144.339 141.621 146.003C142.011 146.294 142.383 146.628 142.836 146.819C144.159 146.063 145.412 145.173 146.675 144.318C146.117 143.608 145.319 143.15 144.673 142.53C143.854 141.811 143.022 141.1 142.287 140.294C145.423 140.311 148.559 140.341 151.694 140.376C153.027 143.006 154.618 145.521 156.58 147.73C156.822 147.985 157.039 148.296 157.375 148.443C158.795 147.949 160.166 147.315 161.564 146.758C161.367 146.098 160.941 145.548 160.623 144.948C159.798 143.459 158.96 141.977 158.229 140.441C160.101 140.436 161.973 140.467 163.845 140.485C163.583 143.513 163.278 146.536 163.02 149.562C162.952 149.591 162.818 149.649 162.75 149.678C159.871 150.765 156.759 151.042 153.706 151.07C146.703 150.999 139.741 149.071 133.634 145.66C133.463 143.842 133.27 142.026 133.107 140.208Z" fill="#F4ADA2"/>
<path d="M91.2881 46.4102C91.3646 46.4898 91.3646 46.4898 91.2881 46.4102V46.4102Z" fill="#B86E92"/>
<path d="M98.4316 52.2C99.0025 51.0306 100.359 50.2867 101.654 50.4796C102.022 50.5133 102.404 50.6832 102.768 50.5224C103.714 51.1424 104.341 52.2108 104.501 53.322C104.664 54.6583 103.873 55.9946 102.678 56.5732C101.935 56.8808 101.093 56.991 100.319 56.7431C99.2459 56.5471 98.5632 55.543 98.2065 54.5864C98.0152 53.8027 98.0351 52.9195 98.4316 52.2Z" fill="#EC8E91"/>
<path d="M97.0986 53.1809C97.2838 53.1212 97.4736 53.063 97.6634 53.0049C97.6757 53.4564 97.6711 53.9095 97.6191 54.3595C97.5609 54.0029 97.5333 53.6432 97.5134 53.285C97.3742 53.2498 97.2349 53.2146 97.0986 53.1809Z" fill="#EC8E91"/>
<path opacity="0.97" d="M116.803 74.5078C121.407 74.1879 125.999 73.6951 130.603 73.3828C130.413 73.565 130.228 73.7502 130.04 73.9338C125.779 74.2737 121.517 74.6303 117.26 75.0283C117.078 74.8813 116.911 74.7145 116.803 74.5078Z" fill="#90BCE9"/>
<path opacity="0.97" d="M144.438 84.7667C144.519 84.7116 144.681 84.6014 144.764 84.5479C144.813 84.6764 144.914 84.9351 144.964 85.0637C145.356 86.576 145.504 88.1418 145.804 89.674C147.384 99.0279 148.968 108.379 150.549 117.731C150.926 119.542 151.373 121.337 151.78 123.14C151.492 123.139 151.208 123.14 150.921 123.142C148.763 110.35 146.585 97.56 144.438 84.7667Z" fill="#90BCE9"/>
<path opacity="0.97" d="M139.624 87.5137C140.031 87.4051 140.452 87.3898 140.871 87.376C140.871 87.4969 140.871 87.7403 140.873 87.8627C140.02 87.9913 139.163 88.0831 138.306 88.1551C138.74 87.9331 139.174 87.7066 139.624 87.5137Z" fill="#90BCE9"/>
<path opacity="0.97" d="M103.5 91.6823C114.612 90.4011 125.722 89.0894 136.836 87.8174C136.883 88.0011 136.934 88.1832 136.989 88.3684C135.83 88.4143 134.684 88.621 133.531 88.7327C123.617 89.8868 113.701 91.0348 103.787 92.1905C103.549 92.2104 103.304 92.2349 103.079 92.1492C102.936 91.8507 103.236 91.6747 103.5 91.6823Z" fill="#90BCE9"/>
<path opacity="0.97" d="M98.3077 89.2114C98.4806 89.1502 98.6536 89.0859 98.8266 89.0186C100.333 100.394 101.912 111.763 103.405 123.14C103.278 123.14 103.024 123.14 102.897 123.14C102.255 118.469 101.485 113.815 100.774 109.154C100.057 104.59 99.3669 100.022 98.6352 95.4611C98.3413 93.4758 97.9862 91.4998 97.7275 89.5114C97.8056 89.4594 97.9617 89.3553 98.0383 89.3048C98.0842 89.3522 98.173 89.4487 98.2189 89.4961C98.4745 90.8982 98.6811 92.3156 98.8908 93.7284C98.9551 94.0254 98.8403 94.4723 99.0118 94.6866C99.1204 94.2504 98.9215 93.8157 98.874 93.3855C98.6827 91.9942 98.4913 90.6043 98.3077 89.2114Z" fill="#90BCE9"/>
<path opacity="0.97" d="M132.59 96.5726C135.765 96.2266 138.932 95.7889 142.111 95.498C142.112 95.6205 142.112 95.8623 142.114 95.9833C133.588 97.0241 125.05 97.9731 116.52 98.9788C112.583 99.4303 108.649 99.9018 104.711 100.34C104.299 100.511 104.105 99.8528 104.556 99.8329C113.899 98.7385 123.246 97.6624 132.59 96.5726Z" fill="#90BCE9"/>
<path opacity="0.97" d="M118.919 106.445C126.797 105.552 134.676 104.642 142.552 103.731C142.805 103.719 143.073 103.633 143.319 103.743C143.482 103.982 143.253 104.236 143.007 104.221C135.084 105.145 127.155 106.021 119.236 106.968L119.172 106.861C119.09 106.719 119.005 106.579 118.919 106.445Z" fill="#90BCE9"/>
<path opacity="0.97" d="M114.944 106.9C116.087 106.784 117.229 106.652 118.369 106.502C118.469 106.67 118.572 106.839 118.677 107.009C117.371 107.185 116.058 107.304 114.751 107.477C114.814 107.284 114.878 107.091 114.944 106.9Z" fill="#90BCE9"/>
<path opacity="0.97" d="M105.696 107.981C108.586 107.629 111.482 107.308 114.375 106.979C114.314 107.153 114.26 107.331 114.214 107.511C111.462 107.868 108.702 108.16 105.945 108.472C105.609 108.589 105.425 108.182 105.696 107.981Z" fill="#90BCE9"/>
<path opacity="0.97" d="M138.121 112.671C140.111 112.484 142.095 112.221 144.082 112.01C144.256 112.017 144.662 111.918 144.665 112.19C144.758 112.454 144.379 112.515 144.203 112.533C142.041 112.777 139.882 113.043 137.716 113.259C137.861 113.07 137.999 112.874 138.121 112.671Z" fill="#90BCE9"/>
<path opacity="0.97" d="M134.807 113.067C135.676 112.967 136.542 112.847 137.416 112.793C137.225 113.02 137.038 113.271 136.769 113.41C136.161 113.45 135.554 113.494 134.957 113.612C134.914 113.427 134.865 113.245 134.807 113.067Z" fill="#90BCE9"/>
<path opacity="0.97" d="M107.039 116.225C116.118 115.182 125.204 114.172 134.283 113.114C134.329 113.292 134.384 113.472 134.45 113.647C125.354 114.668 116.262 115.726 107.166 116.739C106.769 116.892 106.639 116.258 107.039 116.225Z" fill="#90BCE9"/>
<path opacity="0.97" d="M106.688 139.97C106.861 139.97 107.037 139.973 107.212 139.976C107.512 141.679 107.735 143.397 107.884 145.12C108.066 147.528 108.115 149.982 107.538 152.344C107.411 152.999 107.121 153.616 107.028 154.278C107.391 154.629 107.836 154.877 108.256 155.157C109.156 153.74 109.924 152.238 110.605 150.704C110.902 149.934 111.407 149.19 111.337 148.33C111.251 145.541 110.922 142.765 110.536 140.002C110.714 140.006 110.894 140.011 111.075 140.019C111.403 142.534 111.701 145.056 111.834 147.589C112.724 145.165 113.187 142.609 113.532 140.057C113.709 140.043 113.89 140.036 114.071 140.032C113.68 142.786 113.169 145.541 112.199 148.157C111.285 150.707 110.114 153.163 108.702 155.475C109.707 156.095 110.718 156.715 111.805 157.182C113.028 155.113 114.077 152.939 114.889 150.677C116.138 147.257 116.872 143.666 117.32 140.06C117.453 140.066 117.718 140.075 117.851 140.081C117.424 143.29 116.827 146.489 115.82 149.572C114.928 152.302 113.752 154.946 112.26 157.404C113.088 157.755 113.95 158.019 114.813 158.275C116.878 157.5 118.88 156.521 120.645 155.189C122.942 153.489 124.944 151.413 126.702 149.167C127.191 148.56 127.599 147.889 128.105 147.295C129.621 148.023 131.119 148.783 132.636 149.51C132.833 149.613 133.048 149.703 133.207 149.869C133.262 150.072 133.065 150.221 132.977 150.383C130.244 153.86 127.04 156.988 123.397 159.504C126.637 159.582 129.988 159.175 132.904 157.676C133.502 157.378 134.085 157.049 134.664 156.715C136.158 155.837 137.543 154.782 138.827 153.62C140.817 154.168 142.809 154.708 144.799 155.256C145.021 155.289 145.065 155.601 144.866 155.711C143.713 156.727 142.49 157.66 141.266 158.587C142.79 158.451 144.28 158.025 145.689 157.438C146.614 157.037 147.534 156.591 148.324 155.956C149.489 155.024 150.451 153.859 151.253 152.607C151.37 152.466 151.474 152.186 151.711 152.279C153.401 152.532 155.086 152.812 156.775 153.069C156.969 153.115 157.255 153.097 157.306 153.358C156.917 154.197 156.427 154.987 155.922 155.76C155.388 156.561 154.704 157.24 154.111 157.995C155.553 157.976 157.01 157.84 158.392 157.404C159.776 156.965 161.106 156.382 162.433 155.794C162.42 155.984 162.407 156.176 162.4 156.371L162.365 156.386C161.111 156.931 159.854 157.474 158.55 157.888C157.137 158.336 155.646 158.488 154.171 158.488C153.886 158.498 153.568 158.462 153.343 158.67C152.385 159.408 151.434 160.191 150.337 160.71C149.867 160.925 149.916 160.257 150.274 160.171C152.978 158.645 155.248 156.354 156.638 153.567C155.01 153.311 153.383 153.051 151.754 152.795C150.559 154.618 149.075 156.354 147.092 157.341C145.477 158.165 143.739 158.786 141.936 159.022C141.338 159.12 140.655 158.985 140.148 159.386C138.016 160.883 135.749 162.18 133.435 163.369C136.06 166.028 139.117 168.374 142.64 169.698C141.962 168.108 141.364 166.484 140.88 164.825C140.657 164.015 140.36 163.219 140.294 162.376C142.011 162.17 143.733 162.005 145.454 161.843C145.737 161.751 145.879 161.998 145.898 162.249C146.502 165.492 147.659 168.636 149.354 171.469C148.371 171.46 147.381 171.532 146.403 171.439C144.101 170.806 141.785 170.121 139.703 168.921C136.371 167.033 133.473 164.439 131.009 161.521C129.642 162.347 128.293 163.199 126.916 164.006C129.526 166.912 132.624 169.362 135.922 171.445C135.599 171.462 135.27 171.521 134.952 171.457C132.402 169.808 130.028 167.894 127.851 165.777C127.168 166.031 126.477 166.254 125.798 166.522C128.143 168.556 130.813 170.206 133.666 171.429C133.236 171.46 132.791 171.546 132.367 171.448C128.632 169.643 125.28 167.093 122.422 164.096C121.073 165.001 119.711 165.887 118.387 166.828C119.896 168.699 121.797 170.213 123.858 171.439C123.527 171.457 123.19 171.529 122.866 171.455C121.453 170.551 120.133 169.504 118.953 168.312C115.783 168.879 112.567 169.345 109.341 169.27C109.329 169.152 109.304 168.916 109.292 168.8C112.39 168.722 115.482 168.44 118.525 167.849C118.22 167.476 117.931 167.09 117.663 166.689C119.238 165.555 120.868 164.499 122.483 163.424C123.411 164.292 124.253 165.264 125.255 166.051C126.008 165.974 126.695 165.585 127.419 165.374C127.046 164.916 126.59 164.532 126.239 164.059C126.253 163.997 126.284 163.874 126.297 163.813C127.147 163.201 128.084 162.715 128.965 162.149C129.668 161.746 130.323 161.258 131.056 160.911C131.283 160.932 131.392 161.176 131.548 161.319C132.015 161.889 132.51 162.435 133.025 162.965C136.164 161.398 139.203 159.59 141.929 157.37C142.653 156.775 143.432 156.245 144.113 155.599C142.392 155.123 140.67 154.647 138.947 154.187C137.018 155.933 134.811 157.364 132.457 158.468C129.723 159.702 126.679 160.058 123.706 160.037C123.228 160.049 122.697 159.913 122.278 160.208C120.057 161.581 117.609 162.536 115.13 163.326C112.379 164.196 109.566 164.863 106.733 165.399C105.907 165.527 105.092 165.745 104.254 165.777C103.709 165.164 103.411 164.372 102.959 163.69C102.424 162.74 101.83 161.821 101.322 160.856C101.147 160.631 101.421 160.372 101.658 160.456C105.81 160.533 109.974 159.896 113.916 158.586C111.38 157.77 109.047 156.438 106.904 154.872C104.77 153.337 102.837 151.543 101.037 149.631C99.7956 150.452 98.5328 151.245 97.3266 152.119C98.0537 153.19 98.6047 154.404 99.5614 155.301C100.806 156.582 102.167 157.77 103.705 158.688C103.837 158.808 104.192 158.929 104.032 159.166C103.945 159.484 103.582 159.209 103.406 159.135C101.66 158.084 100.128 156.706 98.7547 155.209C98.3062 154.736 97.6526 154.571 97.0893 154.281C95.9031 153.752 94.7459 153.152 93.5428 152.664C93.5015 152.659 93.4173 152.653 93.3744 152.65L93.3392 152.648C93.3285 152.416 93.3178 152.184 93.3086 151.958C94.8576 152.66 96.3883 153.401 97.9434 154.093C97.5256 153.374 97.0541 152.69 96.6424 151.969C97.922 151.003 99.3073 150.185 100.621 149.267C100.817 149.172 101.094 148.869 101.289 149.126C102.895 150.874 104.628 152.52 106.535 153.937C107.311 151.698 107.59 149.31 107.476 146.948C107.382 144.606 107.086 142.278 106.688 139.97ZM120.737 155.762C118.546 157.369 116.027 158.462 113.452 159.288C109.766 160.45 105.9 161.003 102.04 161.015C102.831 162.444 103.648 163.868 104.522 165.25C109.633 164.379 114.755 163.231 119.501 161.094C122.347 159.78 124.898 157.908 127.222 155.817C129.154 154.049 130.954 152.134 132.566 150.069C131.145 149.345 129.705 148.662 128.281 147.948C126.135 150.873 123.7 153.635 120.737 155.762ZM140.892 162.816C141.44 165.086 142.178 167.317 143.132 169.449C143.257 169.668 143.315 169.989 143.605 170.053C145.246 170.604 146.932 171.044 148.647 171.292C147.056 168.55 145.968 165.518 145.399 162.403C143.891 162.478 142.397 162.712 140.892 162.816Z" fill="#90BCE9"/>
<path opacity="0.97" d="M120.17 140.094C120.3 140.094 120.559 140.094 120.689 140.094C121.012 142.096 121.15 144.126 121.11 146.154C122.27 146.526 123.423 146.924 124.59 147.27C124.725 144.883 124.595 142.492 124.241 140.129C124.369 140.132 124.626 140.137 124.753 140.14C125.105 142.632 125.337 145.177 125.028 147.684C124.978 148.029 124.597 147.796 124.385 147.769C123.121 147.335 121.838 146.963 120.585 146.503C120.658 144.358 120.499 142.212 120.17 140.094Z" fill="#90BCE9"/>
<path opacity="0.97" d="M135.935 140.235C136.166 140.233 136.401 140.235 136.637 140.237C138.332 142.372 140.266 144.333 142.452 145.966C142.61 146.035 142.793 146.275 142.974 146.133C143.96 145.53 144.903 144.858 145.879 144.241C144.372 142.992 142.884 141.714 141.521 140.307C141.774 140.295 142.031 140.293 142.287 140.293C143.022 141.1 143.854 141.81 144.673 142.529C145.319 143.149 146.117 143.607 146.675 144.317C145.412 145.173 144.159 146.062 142.836 146.818C142.383 146.627 142.011 146.293 141.621 146.003C139.483 144.339 137.626 142.346 135.935 140.235Z" fill="#90BCE9"/>
<path opacity="0.97" d="M151.694 140.375C151.895 140.374 152.097 140.372 152.3 140.374C153.672 143.083 155.35 145.659 157.44 147.868C158.595 147.418 159.736 146.94 160.88 146.463C159.743 144.476 158.625 142.477 157.612 140.424C157.812 140.424 158.024 140.433 158.229 140.439C158.96 141.976 159.798 143.458 160.623 144.947C160.941 145.547 161.367 146.097 161.564 146.757C160.167 147.314 158.795 147.947 157.375 148.442C157.039 148.295 156.822 147.984 156.58 147.729C154.618 145.52 153.028 143.005 151.694 140.375Z" fill="#90BCE9"/>
<path d="M52.603 76.2714C55.6138 74.8754 58.8404 73.8162 62.1712 73.608C65.2386 73.4044 68.3152 74.2861 70.9036 75.9193C71.7026 76.3647 72.3899 76.9908 73.1736 77.45C74.245 77.3428 75.3272 77.2602 76.3849 77.0444C78.2003 76.9632 79.9988 76.6586 81.8096 76.5071C82.8474 78.1143 84.5694 79.0495 86.1261 80.0705C86.1184 80.1654 86.1016 80.3582 86.0924 80.4531C86.1628 80.4807 86.3036 80.5358 86.374 80.5634C83.9678 82.1001 81.5739 83.6553 79.1967 85.238C77.8559 82.7844 77.2115 80.0062 76.841 77.2541C76.8043 77.2219 76.7278 77.1561 76.6895 77.124C76.5931 77.1377 76.4002 77.1638 76.3038 77.1775C76.0956 77.3903 76.2471 77.6811 76.2686 77.9352C76.7416 80.571 77.3492 83.2405 78.6687 85.5992C75.6364 87.6519 72.6547 89.778 69.6546 91.8734C70.0403 90.6841 70.5776 89.5346 70.8301 88.3055C70.8209 87.9794 70.2975 87.981 70.2439 88.2703C69.8582 89.3601 69.5214 90.4683 69.0882 91.5428C68.8908 91.9898 68.802 92.5408 68.3688 92.8316C65.9442 94.5796 63.5411 96.3568 61.1502 98.1507C57.0894 101.229 53.0055 104.283 49.1008 107.56C45.1609 110.866 41.4521 114.503 38.4688 118.712C35.3325 118.15 32.1579 117.69 28.9634 117.739C27.0286 117.76 25.0816 117.994 23.2357 118.591C21.2948 119.217 19.484 120.33 18.1845 121.919C17.586 122.618 17.139 123.427 16.6768 124.219C17.3732 121.672 18.4799 119.262 19.5422 116.851C22.2285 110.972 25.3449 105.29 28.8578 99.8635C32.037 94.9792 35.5621 90.3014 39.6076 86.0967C43.3945 82.1843 47.6666 78.6378 52.603 76.2714Z" fill="#5D5FEF"/>
<path d="M98.6341 95.4609C99.3658 100.022 100.056 104.59 100.772 109.154C101.484 113.815 102.254 118.468 102.895 123.14C99.8816 123.155 96.8662 123.129 93.8523 123.151C93.3518 123.128 92.891 123.448 92.7166 123.911C92.0354 125.551 91.4048 127.212 90.7359 128.855C90.416 128.938 90.3073 129.235 90.6517 129.405C90.9762 131.461 91.0757 133.55 91.293 135.621C92.3186 146.535 93.2752 157.454 94.2931 168.37C94.4493 169.568 94.4324 170.793 94.7064 171.976C75.2486 171.964 55.7908 171.971 36.333 171.973C36.3958 165.12 36.7723 158.273 37.3938 151.45C38.8647 152.025 40.3969 152.457 41.972 152.605C45.5522 153.038 49.2074 152.587 52.6315 151.48C56.674 150.184 60.3966 148.029 63.7732 145.477C67.8371 142.394 71.4082 138.718 74.7542 134.882C81.1034 127.534 86.4867 119.396 91.1844 110.91C93.9396 105.899 96.4774 100.76 98.6341 95.4609Z" fill="#5D5FEF"/>
<path d="M156.952 124.777C157.636 124.611 158.364 124.682 159.064 124.72C160.161 124.914 160.165 126.831 159.067 127.027C158.406 127.088 157.734 127.096 157.076 127.016C156.117 126.751 156.058 125.158 156.952 124.777Z" fill="#F94F46"/>
<path d="M92.1855 139.858C97.0194 139.866 101.853 139.938 106.687 139.97C107.085 142.278 107.38 144.607 107.475 146.948C107.589 149.31 107.31 151.698 106.534 153.937C104.627 152.52 102.894 150.875 101.288 149.127C101.092 148.869 100.815 149.172 100.62 149.267C99.3062 150.186 97.9209 151.003 96.6413 151.969C97.0531 152.69 97.5245 153.374 97.9424 154.094C96.3872 153.402 94.8565 152.661 93.3075 151.958C92.9172 147.927 92.5529 143.892 92.1855 139.858Z" fill="#F94F46"/>
<path d="M111.074 140.019C111.893 140.013 112.714 140.001 113.531 140.057C113.187 142.609 112.723 145.165 111.833 147.59C111.7 145.057 111.402 142.534 111.074 140.019Z" fill="#F94F46"/>
<path d="M117.85 140.082C118.623 140.068 119.396 140.083 120.169 140.094C120.498 142.212 120.658 144.358 120.584 146.503C121.838 146.964 123.12 147.335 124.385 147.769C124.596 147.796 124.977 148.029 125.028 147.684C125.337 145.177 125.104 142.632 124.752 140.14C127.536 140.147 130.322 140.181 133.106 140.207C133.269 142.026 133.462 143.841 133.633 145.659C133.982 149.344 134.342 153.028 134.663 156.715C134.085 157.049 133.501 157.378 132.903 157.677C129.987 159.175 126.636 159.582 123.396 159.504C127.039 156.988 130.243 153.861 132.976 150.383C133.064 150.221 133.261 150.072 133.206 149.869C133.047 149.703 132.832 149.613 132.635 149.511C131.118 148.783 129.62 148.023 128.104 147.296C127.598 147.89 127.19 148.56 126.701 149.168C124.943 151.413 122.941 153.489 120.644 155.189C118.879 156.521 116.877 157.501 114.812 158.275C113.949 158.02 113.087 157.755 112.259 157.404C113.751 154.946 114.927 152.302 115.819 149.572C116.826 146.489 117.423 143.29 117.85 140.082Z" fill="#F94F46"/>
<path d="M117.261 75.028C121.518 74.63 125.779 74.2734 130.04 73.9336C128.871 75.0938 127.796 76.3628 126.936 77.771C126.63 78.3251 126.263 78.9251 126.339 79.5833C126.387 79.9307 126.757 80.0991 127.077 80.0685C127.988 80.0272 128.83 79.6108 129.632 79.2113C129.901 79.0766 130.166 78.9358 130.441 78.8088C130.16 79.2129 129.883 79.62 129.624 80.0394C129.084 80.9808 128.439 81.9834 128.467 83.1069C128.51 83.6349 129.156 83.6196 129.538 83.5186C130.758 83.2048 131.867 82.5711 132.95 81.9451C133.266 81.7583 133.581 81.5747 133.907 81.4002C133.761 81.6466 133.611 81.8915 133.455 82.1334L133.379 82.1885C133.021 82.6293 132.765 83.139 132.497 83.6365C132.134 84.336 131.747 85.0692 131.732 85.8758C131.703 86.1866 131.952 86.4912 132.277 86.4636C133.446 86.4376 134.459 85.7626 135.428 85.1763C136.511 84.5181 137.596 83.8615 138.669 83.188C139.107 82.8895 139.531 82.5711 139.982 82.2926C139.554 82.8849 139.077 83.4405 138.638 84.0222C138.205 84.5166 137.903 85.1044 137.59 85.6753C137.232 86.3442 136.91 87.0529 136.837 87.8167C125.722 89.0887 114.613 90.4005 103.5 91.6816C103.237 91.674 102.937 91.85 103.079 92.1485C103.304 92.2342 103.549 92.2097 103.788 92.1898C113.702 91.0342 123.618 89.8862 133.532 88.7321C134.684 88.6203 135.831 88.4137 136.99 88.3678C137.437 88.3708 137.881 88.2928 138.306 88.155C139.163 88.0831 140.02 87.9912 140.873 87.8626C140.871 87.7402 140.871 87.4968 140.871 87.3759C140.452 87.3897 140.031 87.405 139.624 87.5136C141.285 86.7024 142.878 85.7564 144.438 84.7661C146.585 97.5594 148.764 110.35 150.922 123.141C135.082 123.14 119.245 123.143 103.405 123.14C101.913 111.762 100.333 100.394 98.8271 89.0183C99.6445 88.6586 100.431 88.1948 101.063 87.558C101.783 86.8095 102.031 85.7626 102.222 84.7753C104.106 86.7299 106.248 88.4642 108.636 89.7683C109.419 90.1357 110.359 90.6469 111.221 90.2321C111.403 89.9719 111.241 89.6566 111.163 89.3902C110.823 88.5361 110.359 87.7387 109.903 86.9442C109.559 86.384 109.298 85.7717 108.893 85.2529L108.836 84.9697C109.109 85.1702 109.375 85.383 109.644 85.5896C110.442 86.2156 111.267 86.8095 112.119 87.359C113.14 87.9713 114.223 88.6264 115.444 88.6815C115.813 88.6785 116.369 88.6295 116.407 88.155C116.52 87.059 115.96 86.035 115.443 85.1074C115.092 84.5243 114.797 83.8967 114.313 83.4099C113.898 82.9109 113.456 82.4364 113.061 81.9237C113.717 82.3155 114.267 82.8528 114.847 83.3457C115.778 84.1477 116.656 85.109 117.878 85.4564C118.355 85.5789 118.916 85.7626 119.381 85.5161C119.768 85.0707 119.551 84.4079 119.398 83.9028C119.102 82.937 118.441 82.1471 118.078 81.2165C118.322 81.3543 118.57 81.492 118.821 81.6206C119.496 81.9742 120.195 82.3278 120.956 82.4441C121.231 82.5007 121.568 82.3507 121.603 82.0446C121.734 81.2165 121.32 80.4297 120.973 79.7057C120.028 77.947 118.798 76.3122 117.261 75.028ZM132.591 96.5721C123.246 97.6619 113.9 98.738 104.556 99.8324C104.105 99.8523 104.299 100.511 104.711 100.339C108.649 99.9013 112.583 99.4299 116.52 98.9783C125.05 97.9727 133.589 97.0237 142.114 95.9828C142.113 95.8619 142.113 95.62 142.111 95.4976C138.932 95.7884 135.765 96.2262 132.591 96.5721ZM118.919 106.445C118.42 105.641 117.468 105.098 116.512 105.222C115.545 105.35 114.728 106.087 114.376 106.978C111.483 107.307 108.587 107.628 105.697 107.98C105.426 108.181 105.61 108.588 105.946 108.471C108.703 108.159 111.463 107.867 114.215 107.51C113.851 109.113 114.501 110.708 115.306 112.064C113.991 112.491 112.387 112.203 111.417 111.172C111.262 110.919 110.987 111.057 110.86 111.254C111.946 112.75 114.047 113.002 115.718 112.508C116.679 113.584 118.117 114.354 119.591 114.141C120.221 114.057 120.726 113.625 121.106 113.143C121.897 113.683 122.872 114.12 123.849 113.915C124.587 113.735 124.905 112.962 125.124 112.313C125.377 112.757 125.598 113.252 126.033 113.555C126.682 114.037 127.594 113.911 128.269 113.55C129.251 112.998 129.76 111.883 129.913 110.809C131.291 111.248 132.716 111.511 134.155 111.648C134.17 112.136 134.163 112.635 134.283 113.114C125.205 114.172 116.119 115.182 107.039 116.224C106.64 116.258 106.77 116.892 107.166 116.739C116.263 115.725 125.355 114.668 134.45 113.647C134.66 114.182 135.232 114.596 135.823 114.455C136.572 114.297 137.176 113.769 137.717 113.258C139.883 113.042 142.042 112.776 144.204 112.532C144.38 112.514 144.759 112.453 144.666 112.189C144.663 111.917 144.257 112.017 144.083 112.009C142.096 112.22 140.112 112.483 138.122 112.67C138.292 112.225 137.952 111.793 137.538 111.666C136.639 111.351 135.673 111.312 134.735 111.219C134.72 110.334 135.011 109.489 135.258 108.654C135.419 108.338 134.905 108.205 134.827 108.471C134.47 109.312 134.299 110.22 134.202 111.124C132.759 111.017 131.3 110.795 129.956 110.239C129.923 109.471 129.777 108.632 129.203 108.074C128.944 107.818 128.528 107.564 128.181 107.809C127.63 108.187 127.731 109.007 128.101 109.482C128.416 110.001 129.018 110.224 129.434 110.624C129.324 111.599 128.888 112.638 127.989 113.131C127.452 113.411 126.704 113.514 126.225 113.067C125.531 112.413 125.413 111.418 125.251 110.53C125.292 110.239 124.78 110.267 124.807 110.512C124.747 111.231 124.758 111.977 124.466 112.652C124.307 113.039 124.005 113.449 123.547 113.465C122.748 113.514 121.972 113.169 121.357 112.682C121.66 111.912 121.819 111.031 121.531 110.233C121.377 109.794 120.973 109.396 120.481 109.427C120.004 109.445 119.621 109.89 119.632 110.36C119.649 111.286 120.102 112.148 120.723 112.816C120.417 113.206 120.03 113.578 119.516 113.65C118.273 113.833 117.073 113.192 116.226 112.323C117.425 111.741 118.505 110.813 119.081 109.593C119.493 108.744 119.506 107.737 119.171 106.861L119.235 106.968C127.155 106.021 135.084 105.145 143.007 104.221C143.253 104.236 143.481 103.982 143.319 103.743C143.073 103.633 142.805 103.719 142.552 103.731C134.675 104.642 126.797 105.553 118.919 106.445Z" fill="white"/>
<path d="M98.0391 89.3043C98.1278 89.2706 98.2166 89.24 98.3085 89.2109C98.4921 90.6038 98.6835 91.9937 98.8748 93.3851C98.9223 93.8152 99.1212 94.2499 99.0126 94.6861C98.8411 94.4718 98.9559 94.0249 98.8916 93.7279C98.6819 92.3151 98.4753 90.8977 98.2197 89.4956C98.1738 89.4482 98.085 89.3518 98.0391 89.3043Z" fill="white"/>
<path d="M114.943 106.9C115.343 106.248 116.016 105.675 116.823 105.704C117.437 105.703 117.965 106.068 118.369 106.502C117.229 106.652 116.087 106.783 114.943 106.9Z" fill="white"/>
<path d="M114.751 107.476C116.058 107.303 117.372 107.184 118.677 107.008C119 107.775 118.989 108.666 118.616 109.414C118.062 110.548 117.035 111.41 115.894 111.92C114.932 110.68 114.385 109.047 114.707 107.481L114.751 107.476Z" fill="white"/>
<path d="M128.439 108.157C129.137 108.468 129.401 109.265 129.441 109.976C128.818 109.637 127.983 108.936 128.439 108.157Z" fill="white"/>
<path d="M120.13 110.364C120.093 109.94 120.67 109.773 120.893 110.111C121.35 110.745 121.192 111.602 120.97 112.297C120.453 111.793 120.163 111.079 120.13 110.364Z" fill="white"/>
<path d="M134.655 111.701C135.591 111.824 136.572 111.822 137.461 112.177C137.796 112.264 137.582 112.592 137.492 112.788L137.417 112.793C136.543 112.846 135.676 112.967 134.807 113.067L134.756 113.073C134.694 112.617 134.658 112.159 134.655 111.701Z" fill="white"/>
<path d="M134.957 113.611C135.554 113.493 136.162 113.449 136.769 113.409C136.289 113.842 135.435 114.289 134.957 113.611Z" fill="white"/>
<path d="M107.212 139.976C108.32 139.982 109.428 139.995 110.537 140.002C110.922 142.764 111.251 145.541 111.337 148.33C111.408 149.19 110.902 149.934 110.605 150.704C109.924 152.238 109.156 153.739 108.256 155.157C107.837 154.877 107.391 154.629 107.028 154.278C107.122 153.615 107.411 152.998 107.538 152.343C108.115 149.982 108.066 147.528 107.884 145.12C107.735 143.397 107.512 141.679 107.212 139.976Z" fill="white"/>
<path d="M114.071 140.032C115.155 140.046 116.237 140.058 117.321 140.06C116.872 143.666 116.139 147.257 114.89 150.676C114.077 152.939 113.029 155.112 111.806 157.182C110.719 156.715 109.707 156.095 108.703 155.475C110.114 153.162 111.285 150.707 112.199 148.157C113.17 145.541 113.681 142.786 114.071 140.032Z" fill="white"/>
<path d="M120.69 140.094C121.874 140.108 123.058 140.112 124.243 140.129C124.597 142.492 124.727 144.883 124.592 147.27C123.424 146.924 122.272 146.526 121.111 146.154C121.151 144.126 121.013 142.096 120.69 140.094Z" fill="white"/>
<path d="M136.638 140.236C138.265 140.272 139.898 140.226 141.522 140.307C142.884 141.713 144.372 142.992 145.88 144.241C144.903 144.857 143.96 145.529 142.975 146.132C142.794 146.275 142.61 146.034 142.453 145.966C140.267 144.332 138.332 142.372 136.638 140.236Z" fill="white"/>
<path d="M152.301 140.374C154.072 140.392 155.841 140.405 157.612 140.425C158.625 142.477 159.743 144.476 160.88 146.463C159.737 146.941 158.595 147.418 157.441 147.868C155.35 145.659 153.672 143.083 152.301 140.374Z" fill="white"/>
<path d="M120.738 155.761C123.701 153.635 126.137 150.872 128.283 147.947C129.706 148.662 131.147 149.345 132.567 150.069C130.955 152.134 129.155 154.048 127.223 155.816C124.9 157.907 122.348 159.779 119.503 161.094C114.756 163.231 109.635 164.379 104.524 165.25C103.65 163.868 102.832 162.444 102.041 161.015C105.901 161.002 109.768 160.45 113.454 159.288C116.028 158.461 118.548 157.369 120.738 155.761Z" fill="white"/>
<path d="M97.3272 152.118C98.5333 151.244 99.7961 150.451 101.038 149.631C102.838 151.543 104.771 153.337 106.905 154.872C109.047 156.438 111.38 157.769 113.917 158.585C109.975 159.896 105.81 160.532 101.659 160.456C101.422 160.372 101.148 160.63 101.322 160.855C101.83 161.821 102.424 162.739 102.96 163.69C103.412 164.371 103.71 165.164 104.255 165.776C105.092 165.744 105.908 165.527 106.733 165.398C109.566 164.862 112.38 164.195 115.13 163.326C117.61 162.536 120.058 161.581 122.279 160.208C122.698 159.912 123.229 160.049 123.707 160.036C126.679 160.058 129.724 159.701 132.457 158.467C134.812 157.364 137.019 155.933 138.947 154.186C140.671 154.647 142.393 155.123 144.113 155.599C143.432 156.245 142.653 156.774 141.929 157.37C139.203 159.589 136.165 161.397 133.025 162.964C132.511 162.435 132.015 161.888 131.548 161.319C131.392 161.175 131.283 160.932 131.057 160.91C130.324 161.258 129.669 161.746 128.966 162.149C128.084 162.715 127.148 163.2 126.298 163.812C126.284 163.874 126.254 163.996 126.24 164.059C126.59 164.532 127.047 164.916 127.42 165.374C126.696 165.585 126.009 165.974 125.256 166.05C124.253 165.264 123.411 164.292 122.484 163.424C120.869 164.498 119.239 165.554 117.664 166.689C117.931 167.09 118.221 167.475 118.525 167.849C115.482 168.44 112.39 168.721 109.292 168.799C109.305 168.916 109.329 169.151 109.341 169.269C112.568 169.344 115.784 168.879 118.954 168.311C120.134 169.503 121.454 170.55 122.866 171.455C113.61 171.489 104.356 171.463 95.1001 171.467C94.5352 165.195 93.9352 158.924 93.375 152.649C93.4179 152.652 93.502 152.659 93.5434 152.663C94.7465 153.151 95.9037 153.751 97.0899 154.281C97.6532 154.57 98.3068 154.736 98.7553 155.209C100.128 156.706 101.66 158.083 103.407 159.135C103.583 159.208 103.946 159.484 104.033 159.165C104.192 158.928 103.837 158.807 103.705 158.688C102.167 157.769 100.806 156.582 99.5619 155.3C98.6053 154.403 98.0542 153.19 97.3272 152.118Z" fill="white"/>
<path d="M151.755 152.795C153.383 153.051 155.01 153.311 156.639 153.566C155.249 156.354 152.979 158.645 150.274 160.171C149.916 160.257 149.867 160.924 150.337 160.71C151.435 160.191 152.385 159.407 153.343 158.67C153.568 158.461 153.887 158.498 154.171 158.487C155.647 158.487 157.138 158.336 158.551 157.887C159.855 157.474 161.111 156.931 162.365 156.386C161.915 161.417 161.465 166.45 160.966 171.477C157.095 171.46 153.224 171.475 149.354 171.469C147.66 168.636 146.503 165.492 145.898 162.248C145.88 161.997 145.737 161.751 145.454 161.843C143.734 162.005 142.012 162.17 140.294 162.375C140.36 163.219 140.657 164.015 140.881 164.824C141.364 166.484 141.963 168.108 142.641 169.698C139.117 168.374 136.061 166.028 133.436 163.369C135.75 162.179 138.017 160.883 140.149 159.386C140.656 158.985 141.338 159.12 141.937 159.022C143.74 158.786 145.477 158.165 147.092 157.341C149.076 156.354 150.559 154.618 151.755 152.795Z" fill="white"/>
<path d="M126.916 164.006C128.294 163.199 129.642 162.347 131.009 161.521C133.473 164.439 136.371 167.033 139.703 168.921C141.785 170.121 144.101 170.806 146.403 171.439C142.911 171.475 139.412 171.486 135.922 171.445C132.624 169.362 129.526 166.912 126.916 164.006Z" fill="white"/>
<path d="M140.894 162.817C142.398 162.713 143.892 162.478 145.4 162.403C145.969 165.518 147.058 168.55 148.648 171.292C146.934 171.044 145.247 170.605 143.606 170.054C143.317 169.989 143.258 169.668 143.133 169.449C142.179 167.317 141.442 165.087 140.894 162.817Z" fill="white"/>
<path d="M118.387 166.828C119.711 165.887 121.073 165 122.422 164.096C125.279 167.093 128.631 169.643 132.366 171.447C129.787 171.501 127.205 171.451 124.626 171.473C124.369 171.464 124.105 171.492 123.857 171.438C121.797 170.212 119.896 168.698 118.387 166.828Z" fill="white"/>
<path d="M125.799 166.522C126.477 166.254 127.169 166.03 127.851 165.776C130.028 167.893 132.402 169.808 134.952 171.457C134.524 171.46 134.087 171.513 133.666 171.429C130.813 170.206 128.144 168.556 125.799 166.522Z" fill="white"/>
<path d="M148.678 124.795C149.255 124.59 149.888 124.721 150.49 124.688C151.814 124.706 153.139 124.651 154.462 124.712C155.667 124.885 155.569 127.053 154.32 127.051C152.584 127.068 150.846 127.065 149.111 127.053C147.966 127.073 147.738 125.254 148.678 124.795Z" fill="#FFCF2D"/>
</svg>
