<svg width="45" height="44" viewBox="0 0 45 44" fill="none" xmlns="http://www.w3.org/2000/svg">
<rect x="0.75" width="44" height="44" rx="22" fill="white"/>
<path d="M23.5 25.9199H24.15C24.8 25.9199 25.34 25.3399 25.34 24.6399C25.34 23.7699 25.03 23.5999 24.52 23.4199L23.51 23.0699V25.9199H23.5Z" fill="#FF993A"/>
<path d="M22.7201 11.9C17.2001 11.92 12.7301 16.41 12.7501 21.93C12.7701 27.45 17.2601 31.92 22.7801 31.9C28.3001 31.88 32.7701 27.39 32.7501 21.87C32.7301 16.35 28.2401 11.89 22.7201 11.9ZM25.0101 22C25.7901 22.27 26.8401 22.85 26.8401 24.64C26.8401 26.18 25.6301 27.42 24.1501 27.42H23.5001V28C23.5001 28.41 23.1601 28.75 22.7501 28.75C22.3401 28.75 22.0001 28.41 22.0001 28V27.42H21.6401C20.0001 27.42 18.6701 26.04 18.6701 24.34C18.6701 23.93 19.0101 23.59 19.4201 23.59C19.8301 23.59 20.1701 23.93 20.1701 24.34C20.1701 25.21 20.8301 25.92 21.6401 25.92H22.0001V22.54L20.4901 22C19.7101 21.73 18.6601 21.15 18.6601 19.36C18.6601 17.82 19.8701 16.58 21.3501 16.58H22.0001V16C22.0001 15.59 22.3401 15.25 22.7501 15.25C23.1601 15.25 23.5001 15.59 23.5001 16V16.58H23.8601C25.5001 16.58 26.8301 17.96 26.8301 19.66C26.8301 20.07 26.4901 20.41 26.0801 20.41C25.6701 20.41 25.3301 20.07 25.3301 19.66C25.3301 18.79 24.6701 18.08 23.8601 18.08H23.5001V21.46L25.0101 22Z" fill="#FF993A"/>
<path d="M20.1699 19.37C20.1699 20.24 20.4799 20.41 20.9899 20.59L21.9999 20.94V18.08H21.3499C20.6999 18.08 20.1699 18.66 20.1699 19.37Z" fill="#FF993A"/>
</svg>
