<svg width="14" height="14" viewBox="0 0 14 14" fill="none" xmlns="http://www.w3.org/2000/svg">
<path d="M12.1987 12.256H2.17123C1.94283 12.256 1.75342 12.0666 1.75342 11.8382C1.75342 11.6098 1.94283 11.4204 2.17123 11.4204H12.1987C12.4271 11.4204 12.6165 11.6098 12.6165 11.8382C12.6165 12.0666 12.4271 12.256 12.1987 12.256Z" fill="#292D32"/>
<path d="M11.0957 1.93883C10.015 0.858091 8.95653 0.830237 7.84794 1.93883L7.17387 2.6129C7.11816 2.66861 7.09587 2.75775 7.11816 2.83574C7.54154 4.31201 8.72256 5.49302 10.1988 5.91641C10.2211 5.92198 10.2434 5.92755 10.2657 5.92755C10.327 5.92755 10.3827 5.90527 10.4272 5.8607L11.0957 5.18663C11.6472 4.64069 11.9146 4.11146 11.9146 3.57666C11.9202 3.02515 11.6528 2.49035 11.0957 1.93883Z" fill="#292D32"/>
<path d="M9.19601 6.42336C9.03446 6.34537 8.87847 6.26738 8.72806 6.17824C8.6055 6.10582 8.48851 6.02783 8.37153 5.94427C8.27682 5.88299 8.16541 5.79386 8.05956 5.70472C8.04842 5.69915 8.00942 5.66573 7.96486 5.62116C7.78102 5.46518 7.5749 5.26463 7.39106 5.04179C7.37435 5.03065 7.34649 4.99166 7.3075 4.94152C7.25179 4.87467 7.15708 4.76325 7.07352 4.63512C7.00667 4.55156 6.92868 4.429 6.85626 4.30644C6.76713 4.15603 6.68913 4.00562 6.61114 3.84964C6.50889 3.63051 6.22129 3.56542 6.0503 3.7364L2.91768 6.86903C2.84526 6.94145 2.77841 7.08072 2.7617 7.17542L2.46087 9.30905C2.40516 9.68787 2.51101 10.0444 2.74499 10.2839C2.94554 10.4789 3.22408 10.5848 3.5249 10.5848C3.59175 10.5848 3.6586 10.5792 3.72545 10.5681L5.86465 10.2672C5.96493 10.2505 6.1042 10.1837 6.17105 10.1113L9.30884 6.97346C9.47641 6.80589 9.41345 6.51758 9.19601 6.42336Z" fill="#292D32"/>
</svg>
