<svg width="43" height="44" viewBox="0 0 43 44" fill="none" xmlns="http://www.w3.org/2000/svg">
<path d="M26.6063 7.57726V14.3856H23.9188V7.57726C23.9188 7.09351 23.4888 6.8606 23.2022 6.8606C23.1126 6.8606 23.023 6.87851 22.9334 6.91435L8.7255 12.2714C7.77591 12.6298 7.16675 13.5256 7.16675 14.5468V15.7473C5.53633 16.9656 4.47925 18.9185 4.47925 21.1223V14.5468C4.47925 12.4148 5.78716 10.5156 7.77591 9.7631L22.0017 4.3881C22.3959 4.24476 22.808 4.1731 23.2022 4.1731C24.9938 4.1731 26.6063 5.62435 26.6063 7.57726Z" fill="url(#paint0_linear_1214_17135)"/>
<path d="M38.5206 26.4791V28.2708C38.5206 28.7545 38.1444 29.1487 37.6427 29.1666H35.0269C34.0773 29.1666 33.2173 28.4678 33.1456 27.5362C33.0919 26.9808 33.3069 26.4612 33.6652 26.1028C33.9877 25.7624 34.4356 25.5833 34.9194 25.5833H37.6248C38.1444 25.6012 38.5206 25.9953 38.5206 26.4791Z" fill="url(#paint1_linear_1214_17135)"/>
<path d="M34.9017 23.7022H36.7292C37.7147 23.7022 38.5209 22.8959 38.5209 21.9105V21.1222C38.5209 17.4134 35.493 14.3855 31.7842 14.3855H11.2159C9.693 14.3855 8.2955 14.8872 7.16675 15.7472C5.53633 16.9655 4.47925 18.9184 4.47925 21.1222V33.1801C4.47925 36.8888 7.50716 39.9167 11.2159 39.9167H31.7842C35.493 39.9167 38.5209 36.8888 38.5209 33.1801V32.8397C38.5209 31.8542 37.7147 31.048 36.7292 31.048H35.1705C33.4505 31.048 31.8022 29.9909 31.3542 28.3247C30.978 26.963 31.4259 25.6551 32.3217 24.7772C32.9847 24.0963 33.8984 23.7022 34.9017 23.7022ZM25.0834 23.3438H12.5417C11.8072 23.3438 11.198 22.7347 11.198 22.0001C11.198 21.2655 11.8072 20.6563 12.5417 20.6563H25.0834C25.818 20.6563 26.4272 21.2655 26.4272 22.0001C26.4272 22.7347 25.818 23.3438 25.0834 23.3438Z" fill="url(#paint2_linear_1214_17135)"/>
<defs>
<linearGradient id="paint0_linear_1214_17135" x1="21.7193" y1="14.6268" x2="-10.7147" y2="27.8777" gradientUnits="userSpaceOnUse">
<stop stop-color="#3D29D0"/>
<stop offset="1" stop-color="#5D5FEF"/>
</linearGradient>
<linearGradient id="paint1_linear_1214_17135" x1="37.3317" y1="27.7933" x2="29.7907" y2="31.3386" gradientUnits="userSpaceOnUse">
<stop stop-color="#3D29D0"/>
<stop offset="1" stop-color="#5D5FEF"/>
</linearGradient>
<linearGradient id="paint2_linear_1214_17135" x1="31.0024" y1="30.1323" x2="-18.5903" y2="50.8254" gradientUnits="userSpaceOnUse">
<stop stop-color="#3D29D0"/>
<stop offset="1" stop-color="#5D5FEF"/>
</linearGradient>
</defs>
</svg>
