<svg width="38" height="37" viewBox="0 0 38 37" fill="none" xmlns="http://www.w3.org/2000/svg">
<g clip-path="url(#clip0_249_14385)">
<rect width="38" height="36" transform="translate(0 0.696655)" fill="white"/>
<path d="M23.8602 17.7966L8.83691 15.0966V35.0469C8.83691 35.958 9.56215 36.6966 10.4568 36.6966H36.3799C37.2745 36.6966 37.9997 35.958 37.9997 35.0469V27.6966L23.8602 17.7966Z" fill="#185C37"/>
<path d="M23.8602 0.696655H10.4568C9.56215 0.696655 8.83691 1.43525 8.83691 2.34635V9.69666L23.8602 18.6967L31.8137 21.3967L37.9997 18.6967V9.69666L23.8602 0.696655Z" fill="#21A366"/>
<path d="M8.83691 9.69666H23.8602V18.6967H8.83691V9.69666Z" fill="#107C41"/>
<path opacity="0.1" d="M19.5892 7.89685H8.83691V30.3969H19.5892C20.4826 30.3939 21.2061 29.657 21.209 28.7472V9.54655C21.2061 8.63668 20.4826 7.89981 19.5892 7.89685Z" fill="black"/>
<path opacity="0.2" d="M18.7054 8.79675H8.83691V31.2968H18.7054C19.5988 31.2938 20.3224 30.5569 20.3253 29.6471V10.4464C20.3224 9.53658 19.5988 8.79971 18.7054 8.79675Z" fill="black"/>
<path opacity="0.2" d="M18.7054 8.79675H8.83691V29.4968H18.7054C19.5988 29.4938 20.3224 28.7569 20.3253 27.8471V10.4464C20.3224 9.53658 19.5988 8.79971 18.7054 8.79675Z" fill="black"/>
<path opacity="0.2" d="M17.8217 8.79675H8.83691V29.4968H17.8217C18.7151 29.4938 19.4387 28.7569 19.4416 27.8471V10.4464C19.4387 9.53658 18.7151 8.79971 17.8217 8.79675Z" fill="black"/>
<path d="M1.61986 8.79663H17.822C18.7166 8.79663 19.4418 9.53522 19.4418 10.4463V26.9469C19.4418 27.858 18.7166 28.5966 17.822 28.5966H1.61986C0.725232 28.5966 0 27.858 0 26.9469V10.4463C0 9.53522 0.725232 8.79663 1.61986 8.79663Z" fill="url(#paint0_linear_249_14385)"/>
<path d="M5.0166 24.0587L8.42423 18.6812L5.30205 13.3334H7.81357L9.51739 16.7534C9.6747 17.0783 9.78251 17.3195 9.84084 17.4788H9.86293C9.97487 17.2196 10.0927 16.9679 10.2164 16.7237L12.0378 13.3352H14.3434L11.1417 18.6515L14.4247 24.0587H11.9715L10.0034 20.3048C9.91074 20.1451 9.83208 19.9773 9.76838 19.8035H9.73922C9.68157 19.9738 9.60508 20.1368 9.51122 20.2895L7.48485 24.0587H5.0166Z" fill="white"/>
<path d="M36.38 0.696655H23.8604V9.69666H37.9999V2.34635C37.9999 1.43525 37.2747 0.696655 36.38 0.696655Z" fill="#33C481"/>
<path d="M23.8604 18.6967H37.9999V27.6967H23.8604V18.6967Z" fill="#107C41"/>
</g>
<defs>
<linearGradient id="paint0_linear_249_14385" x1="3.37744" y1="7.50759" x2="16.4149" y2="29.6796" gradientUnits="userSpaceOnUse">
<stop stop-color="#18884F"/>
<stop offset="0.5" stop-color="#117E43"/>
<stop offset="1" stop-color="#0B6631"/>
</linearGradient>
<clipPath id="clip0_249_14385">
<rect width="38" height="36" fill="white" transform="translate(0 0.696655)"/>
</clipPath>
</defs>
</svg>
