<svg width="24" height="25" viewBox="0 0 24 25" fill="none" xmlns="http://www.w3.org/2000/svg">
<path d="M21.14 10.5967H12.75V16.0767C12.75 16.4867 12.41 16.8267 12 16.8267C11.59 16.8267 11.25 16.4867 11.25 16.0767V10.5967H2.86C2.38 10.5967 2 10.9767 2 11.4567C2 17.3467 6.11 21.4567 12 21.4567C17.89 21.4567 22 17.3467 22 11.4567C22 10.9767 21.62 10.5967 21.14 10.5967Z" fill="#5D5FEF"/>
<path d="M12.7499 6.49665L14.3099 8.05665C14.5999 8.34665 15.0799 8.34665 15.3699 8.05665C15.6599 7.76665 15.6599 7.28665 15.3699 6.99665L12.5199 4.15665C12.2299 3.86665 11.7499 3.86665 11.4599 4.15665L8.6199 7.00665C8.4799 7.15665 8.3999 7.34665 8.3999 7.53665C8.3999 7.72665 8.4699 7.91665 8.6199 8.06665C8.9099 8.35665 9.3899 8.35665 9.6799 8.06665L11.2399 6.50665V10.5966H12.7399V6.49665H12.7499Z" fill="#5D5FEF"/>
</svg>
