<svg width="14" height="14" viewBox="0 0 14 14" fill="none" xmlns="http://www.w3.org/2000/svg">
<path d="M12.3381 5.09747C11.0512 3.07525 9.16831 1.91095 7.18509 1.91095C6.19348 1.91095 5.22973 2.20063 4.34954 2.741C3.46935 3.28695 2.67829 4.08357 2.03207 5.09747C1.47499 5.97209 1.47499 7.39265 2.03207 8.26727C3.31893 10.2951 5.20187 11.4538 7.18509 11.4538C8.1767 11.4538 9.14045 11.1641 10.0206 10.6237C10.9008 10.0778 11.6919 9.28116 12.3381 8.26727C12.8952 7.39822 12.8952 5.97209 12.3381 5.09747ZM7.18509 8.93577C5.93722 8.93577 4.93447 7.92745 4.93447 6.68515C4.93447 5.44286 5.93722 4.43454 7.18509 4.43454C8.43296 4.43454 9.43571 5.44286 9.43571 6.68515C9.43571 7.92745 8.43296 8.93577 7.18509 8.93577Z" fill="#292D32"/>
<path d="M7.1851 5.09192C6.31048 5.09192 5.59741 5.80499 5.59741 6.68518C5.59741 7.5598 6.31048 8.27286 7.1851 8.27286C8.05972 8.27286 8.77836 7.5598 8.77836 6.68518C8.77836 5.81056 8.05972 5.09192 7.1851 5.09192Z" fill="#292D32"/>
</svg>
