<svg width="20" height="20" viewBox="0 0 20 20" fill="none" xmlns="http://www.w3.org/2000/svg">
<path d="M15.0165 10.2748L13.9998 9.25817C13.7582 9.04984 13.6165 8.7415 13.6082 8.39984C13.5915 8.02484 13.7415 7.64984 14.0165 7.37484L15.0165 6.37484C15.8832 5.50817 16.2082 4.67484 15.9332 4.0165C15.6665 3.3665 14.8415 3.00817 13.6248 3.00817H4.9165V2.2915C4.9165 1.94984 4.63317 1.6665 4.2915 1.6665C3.94984 1.6665 3.6665 1.94984 3.6665 2.2915V17.7082C3.6665 18.0498 3.94984 18.3332 4.2915 18.3332C4.63317 18.3332 4.9165 18.0498 4.9165 17.7082V13.6415H13.6248C14.8248 13.6415 15.6332 13.2748 15.9082 12.6165C16.1832 11.9582 15.8665 11.1332 15.0165 10.2748Z" fill="white"/>
</svg>
