<svg width="26" height="25" viewBox="0 0 26 25" fill="none" xmlns="http://www.w3.org/2000/svg">
<rect x="0.5" y="0.000244141" width="25" height="25" rx="12.5" fill="#FE572D"/>
<path d="M16.7623 12.7065L15.9998 11.944C15.8185 11.7877 15.7123 11.5565 15.706 11.3002C15.6935 11.019 15.806 10.7377 16.0123 10.5315L16.7623 9.78149C17.4123 9.13149 17.656 8.50649 17.4498 8.01274C17.2498 7.52524 16.631 7.25649 15.7185 7.25649H9.18726V6.71899C9.18726 6.46274 8.97476 6.25024 8.71851 6.25024C8.46226 6.25024 8.24976 6.46274 8.24976 6.71899V18.2815C8.24976 18.5377 8.46226 18.7502 8.71851 18.7502C8.97476 18.7502 9.18726 18.5377 9.18726 18.2815V15.2315H15.7185C16.6185 15.2315 17.2248 14.9565 17.431 14.4627C17.6373 13.969 17.3998 13.3502 16.7623 12.7065Z" fill="white"/>
</svg>
