<svg width="30" height="29" viewBox="0 0 30 29" fill="none" xmlns="http://www.w3.org/2000/svg">
<g filter="url(#filter0_dd_7_2647)">
<rect x="3.21143" y="3" width="23" height="23" rx="11.5" fill="#5D5FEF"/>
<path d="M14.4113 19.7417C17.4719 19.7417 19.953 17.2606 19.953 14.2C19.953 11.1394 17.4719 8.65833 14.4113 8.65833C11.3507 8.65833 8.86963 11.1394 8.86963 14.2C8.86963 17.2606 11.3507 19.7417 14.4113 19.7417Z" fill="white"/>
<path d="M14.4115 22.8767C13.976 22.8767 13.6198 22.5521 13.6198 22.1167V22.0534C13.6198 21.6179 13.976 21.2617 14.4115 21.2617C14.8469 21.2617 15.2031 21.6179 15.2031 22.0534C15.2031 22.4888 14.8469 22.8767 14.4115 22.8767ZM20.064 20.6442C19.8581 20.6442 19.6602 20.565 19.5019 20.4146L19.399 20.3117C19.0902 20.0029 19.0902 19.5042 19.399 19.1954C19.7077 18.8867 20.2065 18.8867 20.5152 19.1954L20.6181 19.2984C20.9269 19.6071 20.9269 20.1059 20.6181 20.4146C20.4677 20.565 20.2698 20.6442 20.064 20.6442ZM8.75896 20.6442C8.55312 20.6442 8.35521 20.565 8.19687 20.4146C7.88812 20.1059 7.88812 19.6071 8.19687 19.2984L8.29979 19.1954C8.60854 18.8867 9.10729 18.8867 9.41604 19.1954C9.72479 19.5042 9.72479 20.0029 9.41604 20.3117L9.31312 20.4146C9.16271 20.565 8.95687 20.6442 8.75896 20.6442ZM22.3281 14.9917H22.2648C21.8294 14.9917 21.4731 14.6354 21.4731 14.2C21.4731 13.7646 21.8294 13.4084 22.2648 13.4084C22.7002 13.4084 23.0881 13.7646 23.0881 14.2C23.0881 14.6354 22.7635 14.9917 22.3281 14.9917ZM6.55812 14.9917H6.49479C6.05937 14.9917 5.70312 14.6354 5.70312 14.2C5.70312 13.7646 6.05937 13.4084 6.49479 13.4084C6.93021 13.4084 7.31812 13.7646 7.31812 14.2C7.31812 14.6354 6.99354 14.9917 6.55812 14.9917ZM19.961 9.44212C19.7552 9.44212 19.5573 9.36295 19.399 9.21253C19.0902 8.90378 19.0902 8.40503 19.399 8.09628L19.5019 7.99337C19.8106 7.68462 20.3094 7.68462 20.6181 7.99337C20.9269 8.30212 20.9269 8.80087 20.6181 9.10962L20.5152 9.21253C20.3648 9.36295 20.1669 9.44212 19.961 9.44212ZM8.86187 9.44212C8.65604 9.44212 8.45813 9.36295 8.29979 9.21253L8.19687 9.1017C7.88812 8.79295 7.88812 8.2942 8.19687 7.98545C8.50563 7.6767 9.00437 7.6767 9.31312 7.98545L9.41604 8.08837C9.72479 8.39712 9.72479 8.89587 9.41604 9.20462C9.26562 9.36295 9.05979 9.44212 8.86187 9.44212ZM14.4115 7.1067C13.976 7.1067 13.6198 6.78212 13.6198 6.3467V6.28337C13.6198 5.84795 13.976 5.4917 14.4115 5.4917C14.8469 5.4917 15.2031 5.84795 15.2031 6.28337C15.2031 6.71878 14.8469 7.1067 14.4115 7.1067Z" fill="white"/>
</g>
<defs>
<filter id="filter0_dd_7_2647" x="-0.238574" y="0.7" width="29.9" height="29.9" filterUnits="userSpaceOnUse" color-interpolation-filters="sRGB">
<feFlood flood-opacity="0" result="BackgroundImageFix"/>
<feColorMatrix in="SourceAlpha" type="matrix" values="0 0 0 0 0 0 0 0 0 0 0 0 0 0 0 0 0 0 127 0" result="hardAlpha"/>
<feOffset dy="1.15"/>
<feGaussianBlur stdDeviation="1.15"/>
<feColorMatrix type="matrix" values="0 0 0 0 0.0627451 0 0 0 0 0.0941176 0 0 0 0 0.156863 0 0 0 0.06 0"/>
<feBlend mode="normal" in2="BackgroundImageFix" result="effect1_dropShadow_7_2647"/>
<feColorMatrix in="SourceAlpha" type="matrix" values="0 0 0 0 0 0 0 0 0 0 0 0 0 0 0 0 0 0 127 0" result="hardAlpha"/>
<feOffset dy="1.15"/>
<feGaussianBlur stdDeviation="1.725"/>
<feColorMatrix type="matrix" values="0 0 0 0 0.0627451 0 0 0 0 0.0941176 0 0 0 0 0.156863 0 0 0 0.1 0"/>
<feBlend mode="normal" in2="effect1_dropShadow_7_2647" result="effect2_dropShadow_7_2647"/>
<feBlend mode="normal" in="SourceGraphic" in2="effect2_dropShadow_7_2647" result="shape"/>
</filter>
</defs>
</svg>
