<svg width="16" height="15" viewBox="0 0 16 15" fill="none" xmlns="http://www.w3.org/2000/svg">
<path d="M15.0589 10.4475C14.9389 10.245 14.6014 9.93003 13.7614 10.08C13.2964 10.1625 12.8239 10.2 12.3514 10.1775C10.6039 10.1025 9.0214 9.30003 7.9189 8.06253C6.9439 6.97503 6.3439 5.55753 6.3364 4.02753C6.3364 3.17253 6.5014 2.34753 6.8389 1.56753C7.1689 0.810027 6.9364 0.412526 6.7714 0.247526C6.5989 0.0750263 6.1939 -0.164974 5.3989 0.165026C2.3314 1.45503 0.433902 4.53003 0.658902 7.82253C0.883902 10.92 3.0589 13.5675 5.9389 14.565C6.6289 14.805 7.3564 14.9475 8.1064 14.9775C8.2264 14.985 8.3464 14.9925 8.4664 14.9925C10.9789 14.9925 13.3339 13.8075 14.8189 11.79C15.3214 11.0925 15.1864 10.65 15.0589 10.4475Z" fill="#A1A1AA"/>
</svg>
