<svg width="45" height="44" viewBox="0 0 45 44" fill="none" xmlns="http://www.w3.org/2000/svg">
<rect x="0.25" width="44" height="44" rx="22" fill="white"/>
<path d="M17.25 12H16.25C13.25 12 12.25 13.79 12.25 16V17V31C12.25 31.83 13.19 32.3 13.85 31.8L15.56 30.52C15.96 30.22 16.52 30.26 16.88 30.62L18.54 32.29C18.93 32.68 19.57 32.68 19.96 32.29L21.64 30.61C21.99 30.26 22.55 30.22 22.94 30.52L24.65 31.8C25.31 32.29 26.25 31.82 26.25 31V14C26.25 12.9 27.15 12 28.25 12H17.25ZM16.22 24.01C15.67 24.01 15.22 23.56 15.22 23.01C15.22 22.46 15.67 22.01 16.22 22.01C16.77 22.01 17.22 22.46 17.22 23.01C17.22 23.56 16.77 24.01 16.22 24.01ZM16.22 20.01C15.67 20.01 15.22 19.56 15.22 19.01C15.22 18.46 15.67 18.01 16.22 18.01C16.77 18.01 17.22 18.46 17.22 19.01C17.22 19.56 16.77 20.01 16.22 20.01ZM22.25 23.76H19.25C18.84 23.76 18.5 23.42 18.5 23.01C18.5 22.6 18.84 22.26 19.25 22.26H22.25C22.66 22.26 23 22.6 23 23.01C23 23.42 22.66 23.76 22.25 23.76ZM22.25 19.76H19.25C18.84 19.76 18.5 19.42 18.5 19.01C18.5 18.6 18.84 18.26 19.25 18.26H22.25C22.66 18.26 23 18.6 23 19.01C23 19.42 22.66 19.76 22.25 19.76Z" fill="#8038AB"/>
<path d="M28.26 12V13.5C28.92 13.5 29.55 13.77 30.01 14.22C30.49 14.71 30.75 15.34 30.75 16V18.42C30.75 19.16 30.42 19.5 29.67 19.5H27.75V14.01C27.75 13.73 27.98 13.5 28.26 13.5V12ZM28.26 12C27.15 12 26.25 12.9 26.25 14.01V21H29.67C31.25 21 32.25 20 32.25 18.42V16C32.25 14.9 31.8 13.9 31.08 13.17C30.35 12.45 29.36 12.01 28.26 12C28.27 12 28.26 12 28.26 12Z" fill="#8038AB"/>
</svg>
