<svg width="21" height="20" viewBox="0 0 21 20" fill="none" xmlns="http://www.w3.org/2000/svg">
<path d="M17.6404 7.04134C16.7654 3.19134 13.4071 1.45801 10.4571 1.45801C10.4571 1.45801 10.4571 1.45801 10.4488 1.45801C7.50711 1.45801 4.14044 3.18301 3.26544 7.03301C2.29044 11.333 4.92378 14.9747 7.30711 17.2663C8.19044 18.1163 9.32378 18.5413 10.4571 18.5413C11.5904 18.5413 12.7238 18.1163 13.5988 17.2663C15.9821 14.9747 18.6154 11.3413 17.6404 7.04134ZM10.4571 11.2163C9.00711 11.2163 7.83211 10.0413 7.83211 8.59134C7.83211 7.14134 9.00711 5.96634 10.4571 5.96634C11.9071 5.96634 13.0821 7.14134 13.0821 8.59134C13.0821 10.0413 11.9071 11.2163 10.4571 11.2163Z" fill="#5D5FEF"/>
</svg>
