<svg width="20" height="20" viewBox="0 0 20 20" fill="none" xmlns="http://www.w3.org/2000/svg">
<path d="M14 1.66663H11.8333C9.16667 1.66663 7.5 3.33329 7.5 5.99996V9.37496H12.7083C13.05 9.37496 13.3333 9.65829 13.3333 9.99996C13.3333 10.3416 13.05 10.625 12.7083 10.625H7.5V14C7.5 16.6666 9.16667 18.3333 11.8333 18.3333H13.9917C16.6583 18.3333 18.325 16.6666 18.325 14V5.99996C18.3333 3.33329 16.6667 1.66663 14 1.66663Z" fill="#FF234F"/>
<path d="M3.8002 9.37503L5.5252 7.65003C5.6502 7.52503 5.70853 7.3667 5.70853 7.20837C5.70853 7.05003 5.6502 6.88337 5.5252 6.7667C5.28353 6.52503 4.88353 6.52503 4.64186 6.7667L1.8502 9.55837C1.60853 9.80003 1.60853 10.2 1.8502 10.4417L4.64186 13.2334C4.88353 13.475 5.28353 13.475 5.5252 13.2334C5.76686 12.9917 5.76686 12.5917 5.5252 12.35L3.8002 10.625H7.5002V9.37503H3.8002Z" fill="#FF234F"/>
</svg>
