<svg width="20" height="20" viewBox="0 0 20 20" fill="none" xmlns="http://www.w3.org/2000/svg">
<path d="M15.7834 4.51668L11.4751 2.02501C10.6501 1.55001 9.3584 1.55001 8.5334 2.02501L4.1834 4.53335C2.4584 5.70001 2.3584 5.87501 2.3584 7.73335V12.2583C2.3584 14.1167 2.4584 14.3 4.21673 15.4833L8.52506 17.975C8.94173 18.2167 9.47507 18.3333 10.0001 18.3333C10.5251 18.3333 11.0584 18.2167 11.4667 17.975L15.8167 15.4667C17.5417 14.3 17.6417 14.125 17.6417 12.2667V7.73335C17.6417 5.87501 17.5417 5.70001 15.7834 4.51668ZM10.0001 12.7083C8.5084 12.7083 7.29173 11.4917 7.29173 10C7.29173 8.50835 8.5084 7.29168 10.0001 7.29168C11.4917 7.29168 12.7084 8.50835 12.7084 10C12.7084 11.4917 11.4917 12.7083 10.0001 12.7083Z" fill="#7D7D7D"/>
</svg>
