<svg width="338" height="304" viewBox="0 0 338 304" fill="none" xmlns="http://www.w3.org/2000/svg">
<path d="M131.051 27.6032C132.983 25.8294 135.771 25.0486 138.345 25.5267C140.677 25.9278 142.706 27.5145 143.807 29.589C142.085 30.9348 140.654 32.7992 140.332 35.0087C140.384 35.3152 140.785 35.4752 141.013 35.2381C141.264 34.6385 141.358 33.9849 141.655 33.4026C142.191 32.1764 143.134 31.1739 144.19 30.3718C146.377 28.8892 149.282 28.4573 151.767 29.4078C155.429 30.8847 157.679 35.2284 156.759 39.0709C156.213 41.3498 154.391 43.1564 152.263 44.0278C152.353 45.335 152.681 46.6152 152.841 47.9166C151.503 47.5946 150.117 47.7585 148.767 47.5522C148.222 47.4693 147.466 47.1454 147.611 46.4629C147.865 45.4102 148.817 44.7142 149.724 44.2245C146.564 44.6024 143.361 45.1673 140.477 46.5709C141.587 46.3781 142.808 46.3935 143.82 46.943C144.254 47.1666 144.52 47.7084 144.304 48.175C143.942 49.0561 143.084 49.5747 142.303 50.0451C140.976 50.7874 139.91 51.8864 138.798 52.9024C138.314 53.3381 137.604 53.6813 136.953 53.45C136.49 53.2475 136.451 52.6846 136.434 52.2508C136.357 50.7527 136.981 49.3009 137.938 48.173C137.336 48.5085 136.893 49.0522 136.442 49.5593C134.305 52.1274 132.715 55.135 131.724 58.3201C131.35 59.3072 131.072 60.4139 130.282 61.162C129.545 61.7712 128.573 61.2333 127.922 60.7648C125.278 58.8002 123.009 56.0277 119.633 55.3317L119.521 55.2314C119.724 53.9185 119.579 52.5804 119.346 51.2829C118.777 48.3793 117.555 45.6416 116.065 43.1005C115.282 41.747 114.971 40.1391 115.156 38.5909C115.6 34.785 118.59 31.4129 122.321 30.5318C124.355 30.0421 126.545 30.393 128.379 31.3782C128.554 31.4284 128.759 31.7137 128.944 31.5402C129.136 30.0267 129.933 28.6289 131.051 27.6032Z" fill="#5B2448"/>
<path d="M148.794 51.9192C150.129 51.8401 151.484 51.8883 152.789 51.5432C153.092 51.4468 153.281 51.8247 153.156 52.0754C152.847 53.5638 151.341 54.6107 149.834 54.3812C150.543 55.4108 151.968 55.8716 152.326 57.1479C152.463 58.1968 151.59 59.0219 150.867 59.6466C150.597 59.6042 150.478 59.4538 150.503 59.1993C150.975 58.6113 151.781 58.0888 151.706 57.2443C151.465 56.5715 150.801 56.1974 150.296 55.7424C149.452 55.0792 148.812 54.1865 148.389 53.2052C148.212 52.7598 148.222 52.0503 148.794 51.9192Z" fill="#5B2448"/>
<path d="M144.535 52.8792C144.817 52.7269 145.191 52.8561 145.355 53.1222C145.833 53.8066 146.222 54.7822 145.702 55.5495C145.063 56.3728 143.961 56.6138 142.991 56.8008C141.61 56.9762 140.097 57.036 138.832 56.3728C138.464 56.2455 138.479 55.6748 138.9 55.6401C140.878 54.9441 142.8 54.065 144.535 52.8792Z" fill="#5B2448"/>
<path d="M135.869 75.938C138.527 77.7252 141.632 78.7355 144.768 79.2908C144.886 81.6622 144.94 84.0491 145.274 86.4051C145.262 86.4803 145.241 86.6287 145.229 86.7039C144.992 86.4514 145.158 86.0503 145.125 85.7457C141.84 85.3235 138.491 83.7618 136.759 80.8197C135.946 79.3756 135.258 77.5768 135.869 75.938Z" fill="#5B2448"/>
<path d="M160.555 152.59C164.112 150.822 167.777 149.268 171.278 147.388C173.216 153.438 175.917 159.228 179.085 164.73C176.652 164.753 174.267 165.492 172.13 166.626C170.673 167.404 169.304 168.388 168.236 169.658C165.215 164.192 162.652 158.472 160.555 152.59Z" fill="#5B2448"/>
<path d="M168.579 170.192C171.221 167.071 175.358 165.299 179.428 165.357C181.451 165.465 183.572 166.034 185.039 167.508C185.972 168.411 186.475 169.668 186.616 170.944C186.595 170.962 186.554 170.996 186.533 171.014C186.163 169.41 184.757 168.268 183.244 167.786C180.747 166.973 178.015 167.294 175.565 168.118C172.711 169.109 169.985 170.844 168.35 173.439C167.4 174.926 166.991 176.919 167.891 178.529C167.116 177.775 166.74 176.684 166.621 175.631C166.432 173.634 167.34 171.706 168.579 170.192Z" fill="#5B2448"/>
<path d="M175.299 171.395C175.214 170.967 175.831 170.705 176.078 171.058C176.589 172.122 177.036 173.217 177.52 174.295C179.19 173.522 180.842 172.716 182.508 171.939C182.799 171.717 183.262 172.001 183.186 172.367C183.157 172.666 182.836 172.743 182.618 172.865C180.902 173.661 179.205 174.5 177.483 175.282C177.21 175.467 176.909 175.186 176.843 174.93C176.332 173.75 175.789 172.583 175.299 171.395Z" fill="#5B2448"/>
<path d="M140.333 35.0085C140.655 32.799 142.086 30.9346 143.807 29.5889C143.95 29.8414 144.081 30.0998 144.191 30.3716C143.134 31.1737 142.192 32.1762 141.656 33.4025C141.359 33.9847 141.264 34.6383 141.014 35.2379C140.786 35.4751 140.385 35.315 140.333 35.0085Z" fill="#9B3C82"/>
<path d="M116.653 60.0686C118.685 59.7504 120.847 60.2903 122.47 61.5589C123.683 62.4959 124.608 63.7722 125.243 65.1604C125.511 65.6193 124.707 65.9644 124.543 65.4805C123.837 64.0325 122.85 62.6694 121.469 61.7999C120.085 60.9034 118.369 60.5833 116.748 60.8378C116.22 60.9805 116.148 60.0821 116.653 60.0686Z" fill="#9B3C82"/>
<path d="M146.048 63.2345C146.331 63.0398 146.703 63.1612 146.752 63.5198C147.114 64.8251 148.336 65.8546 149.705 65.8874C150.556 65.953 151.394 65.6638 152.065 65.1509C152.414 64.7923 152.944 65.3977 152.605 65.7274C151.392 67.4298 148.666 67.5686 147.157 66.1805C146.351 65.471 145.751 64.3161 146.048 63.2345Z" fill="#9B3C82"/>
<path d="M126.523 70.8846C126.737 70.7554 126.964 70.8383 127.165 70.9521C127.182 71.2181 127.165 71.5459 126.841 71.6037C125.755 72.0684 124.579 72.3075 123.403 72.3692C123.423 72.0915 123.48 71.8197 123.573 71.5575C124.589 71.5131 125.578 71.2451 126.523 70.8846Z" fill="#9B3C82"/>
<path d="M202.661 88.8497C205.858 88.4738 209.166 89.0792 212.01 90.5946C215.43 92.3973 218.137 95.4956 219.485 99.1163C220.792 102.575 220.844 106.487 219.63 109.979C217.989 114.853 213.849 118.784 208.894 120.159C205.062 121.265 200.82 120.856 197.272 119.035C193.951 117.357 191.269 114.467 189.817 111.041C188.581 108.151 188.226 104.895 188.811 101.806C189.402 98.6073 191.003 95.6055 193.326 93.3285C195.826 90.8568 199.168 89.2546 202.661 88.8497ZM202.461 92.11C198.541 92.7269 195.003 95.3047 193.189 98.831C191.82 101.445 191.392 104.542 192.017 107.428C192.651 110.466 194.44 113.243 196.945 115.074C199.102 116.673 201.774 117.56 204.46 117.563C207.342 117.589 210.217 116.584 212.467 114.783C214.883 112.873 216.564 110.064 217.096 107.031C217.58 104.374 217.202 101.569 216.013 99.1433C214.821 96.6871 212.824 94.628 210.396 93.3767C207.979 92.1177 205.15 91.6723 202.461 92.11Z" fill="#9B3C82"/>
<path d="M197.568 120.083C198.455 120.452 199.374 120.743 200.29 121.036C199.617 122.918 199.08 124.857 198.339 126.706C197.473 126.407 196.6 126.134 195.746 125.806L195.663 125.738C196.319 123.86 196.93 121.967 197.568 120.083Z" fill="#9B3C82"/>
<path d="M197.263 143.954C198.738 142.766 200.049 141.359 201.055 139.753C201.244 139.842 201.429 139.944 201.611 140.059C200.516 141.756 199.152 143.302 197.531 144.511C197.116 144.665 196.954 144.162 197.263 143.954Z" fill="#9B3C82"/>
<path d="M198.896 150.022C200.325 148.863 201.522 147.43 202.421 145.826C202.609 145.986 202.735 146.179 202.796 146.407C201.885 147.997 200.67 149.426 199.214 150.544C198.836 150.843 198.514 150.228 198.896 150.022Z" fill="#9B3C82"/>
<path d="M199.158 155.111C200.114 154.396 200.88 153.469 201.612 152.535C201.765 152.719 201.848 152.956 201.938 153.179C201.179 154.041 200.45 154.953 199.513 155.636C199.339 155.773 199.148 155.805 198.936 155.732C198.838 155.483 198.925 155.237 199.158 155.111Z" fill="#9B3C82"/>
<path d="M253.148 194.732C253.164 194.242 253.735 194.47 254.022 194.5C257.762 195.25 261.501 196.209 264.956 197.857C266.045 198.43 267.238 199.051 267.855 200.169C268.202 200.782 267.948 201.507 267.512 201.998C267.184 202.008 266.857 202.008 266.535 201.993C267.015 201.621 267.68 201.042 267.273 200.377C266.641 199.38 265.517 198.856 264.502 198.335C260.972 196.693 257.168 195.742 253.361 195.006C253.308 194.936 253.2 194.801 253.148 194.732Z" fill="#9B3C82"/>
<path d="M221.729 35.0337C225.278 34.4533 229.015 35.1474 232.125 36.952C234.926 38.5581 237.203 41.0567 238.555 43.9912C240.018 47.1396 240.394 50.7777 239.602 54.1575C238.815 57.5951 236.827 60.7397 234.064 62.9318C232.755 64.0424 231.109 64.6092 229.547 65.2589C227.447 66.113 225.294 66.8264 223.188 67.6574C221.428 68.9106 221.05 71.1779 220.271 73.0538C220 73.9773 218.908 74.55 218.002 74.1971C216.132 73.5127 214.266 72.8205 212.399 72.1245C211.489 71.7929 211.034 70.6438 211.449 69.7705C212.149 67.9562 212.698 66.0629 213.724 64.3933C215.158 62.0199 217.198 59.9068 219.809 58.858C222.541 57.8226 225.319 56.8972 227.989 55.7038C230.455 54.0225 231.305 50.4519 229.946 47.8067C228.718 45.1904 225.564 43.6962 222.76 44.4172C221.492 44.7122 220.329 45.4198 219.466 46.3915C218.933 47.0567 217.929 47.2476 217.2 46.806C215.451 45.869 213.701 44.9378 211.958 43.9931C211.111 43.5496 210.797 42.3581 211.322 41.5561C213.71 38.0857 217.57 35.6873 221.729 35.0337Z" fill="#21A0AA"/>
<path d="M209.963 76.2504C210.372 76.1502 210.798 76.2427 211.183 76.4008C212.959 77.0621 214.742 77.7022 216.516 78.3732C217.382 78.6874 217.866 79.7459 217.528 80.6058C217.069 81.8648 216.603 83.1237 216.134 84.3789C215.824 85.2407 214.775 85.7323 213.917 85.4046C212.049 84.724 210.183 84.0318 208.318 83.3397C207.48 83.037 206.992 82.0248 207.287 81.1823C207.655 80.1431 208.048 79.1135 208.426 78.0801C208.648 77.2896 209.064 76.4105 209.963 76.2504Z" fill="#21A0AA"/>
<path d="M140.477 46.5707C143.362 45.1672 146.564 44.6023 149.724 44.2244C148.818 44.7141 147.865 45.4101 147.611 46.4628C147.466 47.1453 148.222 47.4692 148.768 47.5521C150.117 47.7584 151.504 47.5945 152.842 47.9165L152.865 47.9203C153.279 50.2995 153.856 52.6517 154.498 54.9807C154.982 56.7776 155.797 58.4723 156.798 60.0378C158.489 62.6985 160.739 65.1027 161.597 68.2106C162.161 69.9208 161.959 71.8526 161.045 73.4046C160.027 75.215 158.19 76.3506 156.377 77.2472C152.774 78.9284 148.716 79.4875 144.769 79.2908C141.632 78.7356 138.528 77.7253 135.869 75.938C135.258 77.5768 135.946 79.3757 136.76 80.8197C138.491 83.7619 141.84 85.3235 145.126 85.7458C145.158 86.0504 144.993 86.4514 145.23 86.704L145.27 86.7445C145.519 89.4032 146.018 92.0311 146.518 94.6512C144.987 96.7816 143.416 99.0933 141.019 100.318C140.79 100.402 140.558 100.48 140.325 100.547C138.908 100.672 137.499 100.389 136.114 100.123C132.2 99.2688 128.395 97.8922 124.857 96.0085C122.034 94.4719 119.319 92.5825 117.347 90.0086C119.857 84.3191 121.793 78.3847 123.364 72.3712L123.403 72.3693C124.579 72.3076 125.755 72.0685 126.841 71.6039C127.164 71.5461 127.182 71.2183 127.164 70.9522C126.964 70.8385 126.736 70.7556 126.522 70.8848C125.578 71.2453 124.589 71.5133 123.573 71.5576C120.771 71.5056 118.033 70.4702 115.751 68.8758C113.692 67.424 111.98 65.2319 111.731 62.656C111.33 59.4941 113.476 56.2146 116.547 55.347C117.551 55.0443 118.62 55.1195 119.634 55.3316C123.01 56.0276 125.279 58.8 127.922 60.7647C128.574 61.2332 129.546 61.7711 130.282 61.1618C131.072 60.4138 131.35 59.3071 131.724 58.32C132.715 55.1349 134.306 52.1272 136.442 49.5591C136.893 49.0521 137.337 48.5084 137.938 48.1729C136.982 49.3008 136.357 50.7526 136.434 52.2506C136.452 52.6844 136.49 53.2474 136.953 53.4498C137.605 53.6812 138.314 53.338 138.798 52.9023C139.91 51.8862 140.977 50.7873 142.303 50.045C143.084 49.5746 143.942 49.0559 144.304 48.1748C144.52 47.7083 144.254 47.1665 143.82 46.9428C142.808 46.3934 141.588 46.3779 140.477 46.5707ZM148.795 51.919C148.222 52.0501 148.212 52.7596 148.39 53.205C148.812 54.1863 149.452 55.079 150.297 55.7422C150.802 56.1972 151.465 56.5713 151.706 57.2442C151.781 58.0886 150.975 58.6111 150.503 59.1991C150.478 59.4536 150.597 59.604 150.867 59.6464C151.59 59.0218 152.464 58.1966 152.327 57.1477C151.968 55.8714 150.543 55.4106 149.834 54.3811C151.342 54.6105 152.847 53.5636 153.156 52.0752C153.281 51.8245 153.092 51.4467 152.789 51.5431C151.484 51.8882 150.129 51.84 148.795 51.919ZM144.536 52.8792C142.801 54.0649 140.878 54.944 138.9 55.6401C138.48 55.6748 138.464 56.2454 138.833 56.3727C140.097 57.0359 141.611 56.9762 142.991 56.8007C143.961 56.6137 145.064 56.3727 145.702 55.5494C146.223 54.7821 145.833 53.8065 145.355 53.1221C145.191 52.856 144.817 52.7268 144.536 52.8792ZM137.057 59.4652C135.181 59.7621 133.579 61.3334 133.324 63.2306C133.207 64.3218 133.334 65.5114 134.018 66.4099C134.969 67.9426 136.912 68.737 138.671 68.361C141.034 67.8867 142.694 65.3321 142.099 62.9838C141.717 60.703 139.313 59.0892 137.057 59.4652ZM116.653 60.0687C116.148 60.0822 116.219 60.9806 116.747 60.8379C118.369 60.5834 120.085 60.9035 121.469 61.8C122.85 62.6695 123.837 64.0326 124.542 65.4806C124.706 65.9645 125.51 65.6194 125.242 65.1605C124.608 63.7724 123.682 62.496 122.47 61.559C120.846 60.2904 118.685 59.7505 116.653 60.0687ZM146.047 63.2344C145.75 64.3161 146.35 65.4709 147.156 66.1804C148.665 67.5686 151.392 67.4298 152.604 65.7274C152.944 65.3977 152.414 64.7923 152.065 65.1509C151.394 65.6637 150.555 65.9529 149.705 65.8874C148.336 65.8546 147.113 64.825 146.751 63.5198C146.703 63.1612 146.331 63.0397 146.047 63.2344Z" fill="#F4ADA2"/>
<path d="M188.099 129.33C188.705 128.823 189.67 128.732 190.237 129.347C191.277 130.429 191.46 132.031 191.519 133.464C191.552 135.288 191.095 137.069 190.463 138.766C192.805 138.183 194.575 136.354 196.771 135.419C197.637 135.023 198.694 134.775 199.582 135.239C200.392 135.689 200.999 136.523 201.132 137.447C201.244 138.21 201.21 138.997 201.055 139.753C200.049 141.359 198.738 142.766 197.263 143.954C196.954 144.162 197.116 144.665 197.531 144.511C199.152 143.302 200.515 141.756 201.611 140.059C202.366 140.62 202.796 141.528 202.872 142.456C203.006 143.601 202.694 144.725 202.42 145.826C201.522 147.43 200.325 148.863 198.896 150.021C198.514 150.228 198.836 150.843 199.214 150.544C200.67 149.426 201.884 147.997 202.796 146.406C203.313 147.237 203.388 148.292 203.165 149.235C202.879 150.426 202.272 151.512 201.613 152.535C200.88 153.469 200.114 154.396 199.158 155.111C198.925 155.237 198.838 155.483 198.936 155.732C199.149 155.805 199.339 155.773 199.513 155.636C200.45 154.953 201.179 154.041 201.938 153.179C202.295 154.654 201.53 156.075 200.76 157.278C199.883 158.645 198.838 159.897 197.741 161.09C194.346 164.709 190.527 167.9 186.617 170.944C186.476 169.668 185.973 168.411 185.039 167.508C183.572 166.033 181.451 165.465 179.429 165.357C179.313 165.146 179.198 164.936 179.086 164.73C175.918 159.228 173.217 153.438 171.279 147.388C171.788 147.176 172.253 146.879 172.729 146.607C172.939 146.482 173.153 146.364 173.365 146.242C176.022 144.627 178.706 142.932 180.775 140.576C182.309 138.61 183.653 136.496 184.835 134.3C185.826 132.596 186.447 130.539 188.099 129.33Z" fill="#F4ADA2"/>
<path d="M156.948 154.119C158.158 153.629 159.367 153.135 160.555 152.59C162.653 158.472 165.215 164.192 168.236 169.658C168.346 169.836 168.462 170.013 168.579 170.192C167.34 171.706 166.432 173.634 166.62 175.631C166.74 176.684 167.116 177.775 167.891 178.529C168.836 180.106 170.654 180.841 172.397 181.109C170.102 182.674 167.743 184.145 165.342 185.543C165.209 185.383 165.082 185.221 164.959 185.059C162.308 181.114 160.387 176.738 158.61 172.348C157.229 168.858 155.989 165.312 154.954 161.705C154.451 159.866 153.93 158.021 153.666 156.129C153.643 155.894 153.576 155.676 153.46 155.474C154.642 155.073 155.793 154.591 156.948 154.119Z" fill="#F4ADA2"/>
<path d="M239.785 176.504C240.338 176.585 240.865 176.934 241.412 177.117C248.877 180.206 256.076 183.916 263.029 188.026C268.202 191.063 273.28 194.255 278.459 197.281C279.388 197.878 280.329 198.557 280.903 199.525C281.227 200.043 281.247 200.791 280.763 201.223C280.059 201.863 279.052 202 278.137 202.025C274.595 202.031 271.053 201.985 267.511 201.998C267.947 201.507 268.202 200.782 267.855 200.169C267.238 199.05 266.044 198.43 264.955 197.857C261.5 196.209 257.762 195.25 254.021 194.5C253.734 194.47 253.163 194.242 253.148 194.732C253.2 194.801 253.308 194.936 253.36 195.005C257.168 195.742 260.972 196.692 264.502 198.335C265.516 198.856 266.64 199.38 267.272 200.377C267.679 201.042 267.014 201.62 266.534 201.993C255.112 201.906 243.691 201.873 232.27 201.767C232.081 199.81 232.262 197.84 232.563 195.904C233.048 192.779 233.862 189.711 234.872 186.715C236.099 183.137 237.649 179.641 239.785 176.504Z" fill="#F4ADA2"/>
<path d="M137.057 59.4653C139.312 59.0894 141.717 60.7031 142.098 62.9839C142.694 65.3322 141.034 67.8868 138.67 68.3611C136.912 68.7371 134.969 67.9428 134.018 66.41C133.334 65.5116 133.206 64.322 133.324 63.2307C133.578 61.3336 135.181 59.7623 137.057 59.4653Z" fill="#EC8E91"/>
<path d="M183.67 67.1445C186.456 66.4542 189.572 67.8848 190.871 70.4413C191.633 71.9066 191.895 73.7054 191.297 75.2748C190.946 76.3564 190.484 77.3956 190.117 78.4715C190.056 79.341 190.626 80.0486 190.987 80.7889C191.232 81.1321 191.089 81.6604 190.709 81.8397C189.967 82.2369 189.236 82.661 188.48 83.0293C187.788 83.276 187.493 82.4875 187.243 82.0151C186.392 80.5884 185.934 78.8185 186.448 77.1951C186.863 76.0113 187.383 74.8642 187.734 73.6592C187.871 72.2903 186.747 70.9715 185.38 70.8713C184.054 70.7074 182.733 71.7196 182.54 73.0384C182.413 73.5223 182.729 74.174 182.236 74.5191C181.455 74.8738 180.632 75.1283 179.835 75.4406C179.446 75.6373 178.906 75.4252 178.81 74.9876C178.281 72.9073 178.904 70.5879 180.383 69.0358C181.258 68.0969 182.419 67.4337 183.67 67.1445Z" fill="#3FB1B5"/>
<path d="M250.79 82.9541C251.918 82.7343 253.096 82.9965 254.202 83.2645C257.025 84.0261 259.506 85.958 260.941 88.5068C262.329 90.938 262.745 93.9013 262.08 96.6198C261.429 99.3711 259.678 101.841 257.297 103.366C254.347 105.294 250.449 105.706 247.181 104.37C244.99 103.241 243.039 101.712 240.961 100.401C239.521 99.9205 238.084 100.638 236.69 100.948C236.035 101.181 235.252 100.763 235.094 100.086C234.728 98.7849 234.379 97.4778 234.024 96.1744C233.789 95.5401 234.161 94.7651 234.814 94.5761C235.617 94.3428 236.426 94.1288 237.236 93.9167C239.596 93.3538 242.228 93.4656 244.375 94.6783C245.829 95.5864 247.204 96.6179 248.658 97.5298C249.215 97.846 249.72 98.3164 250.375 98.4167C251.773 98.702 253.291 98.2663 254.324 97.283C255.548 96.1551 256.049 94.312 255.55 92.7214C255.064 91.019 253.485 89.706 251.723 89.5421C251.154 89.5113 250.628 89.0697 250.557 88.4971C250.362 87.0858 250.185 85.6726 250.011 84.2575C249.928 83.7118 250.275 83.1469 250.79 82.9541Z" fill="#3FB1B5"/>
<path d="M191.417 83.5479C191.75 83.2857 192.311 83.2606 192.556 83.6597C192.855 84.1706 193.136 84.6931 193.404 85.2233C193.584 85.5511 193.412 85.9984 193.082 86.1584C192.386 86.5479 191.683 86.9257 190.977 87.2959C190.636 87.5215 190.14 87.3595 189.973 87.0009C189.697 86.5054 189.421 86.0119 189.169 85.5067C188.997 85.1616 189.188 84.7201 189.531 84.5717C190.158 84.2265 190.79 83.893 191.417 83.5479Z" fill="#3FB1B5"/>
<path d="M229.232 96.126C229.917 95.8311 230.798 96.2205 230.964 96.9647C231.338 98.3182 231.714 99.6716 232.069 101.029C232.219 101.64 231.812 102.313 231.209 102.477C230.304 102.737 229.394 102.974 228.488 103.219C227.858 103.418 227.117 103.021 226.952 102.38C226.57 101.029 226.204 99.6755 225.843 98.3201C225.662 97.7147 226.045 97.0226 226.645 96.8394C227.501 96.5849 228.371 96.3709 229.232 96.126Z" fill="#3FB1B5"/>
<path d="M117.347 90.0088C119.319 92.5827 122.034 94.4721 124.857 96.0087C128.395 97.8924 132.2 99.269 136.114 100.123C137.499 100.389 138.908 100.673 140.325 100.547C140.244 104.214 139.781 107.878 138.972 111.456C138.447 113.415 137.89 115.536 136.388 116.993C135.358 117.973 133.797 117.55 132.719 116.889C130.404 115.472 128.593 113.399 126.854 111.352C124.228 108.217 121.928 104.831 119.593 101.48C118.645 100.241 117.796 98.9181 116.709 97.7902C115.749 96.7722 114.675 95.8545 113.481 95.1218C114.854 93.485 116.264 91.8577 117.347 90.0088Z" fill="#5D5FEF"/>
<path d="M146.517 94.6514C148.526 96.3519 150.535 98.089 152.147 100.183C152.536 102.44 152.909 104.704 153.121 106.985C153.178 108.331 153.369 109.719 153.001 111.037C152.837 111.706 151.968 111.56 151.472 111.411C150.134 110.881 149.186 109.73 148.231 108.703C145.848 105.89 143.631 102.928 141.019 100.318C143.415 99.0935 144.986 96.7818 146.517 94.6514Z" fill="#66B0F0"/>
<path d="M96.1023 97.1463C101.414 94.8404 107.466 94.1309 113.107 95.573C115.612 97.2388 117.671 99.5312 119.101 102.174C121.207 105.961 122.256 110.239 122.875 114.5C123.532 119.077 123.553 123.718 123.389 128.33C122.855 137.9 121.253 147.419 118.552 156.617C117.841 158.921 117.098 161.225 116.109 163.429C116.005 163.726 115.66 163.755 115.398 163.82C112.363 164.406 109.336 165.043 106.348 165.839C106.049 165.849 106.016 166.128 105.976 166.363C106.219 166.46 106.465 166.469 106.716 166.39C114.592 164.368 122.647 163.18 130.635 161.703C134.591 160.992 138.54 160.23 142.457 159.328C142.673 159.29 142.891 159.261 143.111 159.241C143.919 165.745 145.561 172.14 147.89 178.263C149.714 182.973 151.937 187.564 154.901 191.668C155.01 191.823 155.242 192.127 154.943 192.241C144.106 199.255 132.343 204.862 120.01 208.696C120.563 209.055 121.328 208.895 121.938 208.747C129.553 206.263 136.945 203.103 144.032 199.371C146.097 201.536 148.615 203.258 151.316 204.532C152.261 204.935 153.273 205.367 154.324 205.236C155.224 204.987 155.942 204.341 156.657 203.772C158.419 202.267 160.01 200.568 161.487 198.787C162.231 197.807 163.112 196.862 163.501 195.677C163.251 193.003 162.931 190.334 162.605 187.668C163.519 186.96 164.427 186.249 165.343 185.543C167.743 184.145 170.103 182.674 172.397 181.109C174.169 181.282 175.979 181.14 177.684 180.611C177.757 180.634 177.905 180.685 177.979 180.71C178.459 187.818 178.621 194.971 178.096 202.083C173.357 203.776 168.441 204.906 163.507 205.86C149.199 208.533 134.581 209.568 120.04 208.891C119.715 208.876 119.383 208.837 119.073 208.963C114.15 210.391 109.126 211.5 104.038 212.148C98.7938 212.797 93.4591 212.969 88.2091 212.258C82.5774 211.508 77.0055 209.67 72.3475 206.356C67.9979 203.354 64.647 199.049 62.4587 194.263C59.3932 187.608 58.2114 180.235 58.0109 172.955C57.8547 167.067 58.3714 161.171 59.3913 155.372C60.0179 151.925 60.7679 148.491 61.8456 145.153C64.3077 137.231 67.3848 129.473 71.3989 122.204C75.0833 115.572 79.5697 109.3 85.24 104.216C88.4733 101.328 92.1037 98.8468 96.1023 97.1463Z" fill="#5D5FEF"/>
<path d="M153.123 100.354C156.133 100.723 159.011 101.881 161.643 103.364C166.983 106.441 171.266 111.047 174.842 116.008C178.898 121.672 182.107 127.902 184.835 134.301C183.653 136.497 182.309 138.61 180.774 140.576C178.706 142.932 176.022 144.627 173.365 146.243C172.997 145.551 172.929 144.756 172.704 144.016C170.836 136.823 168.526 129.733 165.647 122.879C162.514 115.455 158.735 108.275 154.031 101.721C153.711 101.276 153.368 100.846 153.123 100.354Z" fill="#5D5FEF"/>
<path d="M153.04 101.413C154.023 102.741 154.947 104.114 155.851 105.496C163.955 118.015 169.131 132.199 172.729 146.607C172.253 146.879 171.788 147.176 171.279 147.388C167.778 149.268 164.113 150.822 160.555 152.59C159.368 153.135 158.159 153.629 156.948 154.119C155.294 146.522 153.376 138.984 151.253 131.505C149.834 126.467 148.311 121.46 146.855 116.434C145.417 117.454 143.603 117.864 141.862 117.587C142.153 122.293 142.691 126.98 143.099 131.677C143.915 140.484 144.47 149.316 144.619 158.16C138.854 159.594 133.004 160.645 127.159 161.69C123.692 162.27 120.243 162.957 116.774 163.502C117.935 160.751 118.855 157.907 119.663 155.032C121.851 147.029 123.287 138.818 123.864 130.539C124.188 125.47 124.243 120.359 123.607 115.312C123.158 111.691 122.381 108.091 121.016 104.698C122.558 106.742 123.989 108.874 125.62 110.852C127.583 113.235 129.607 115.67 132.245 117.334C133.411 118.067 134.988 118.603 136.272 117.841C137.587 117.008 138.274 115.52 138.81 114.116C139.723 114.986 140.63 115.865 141.545 116.731C141.806 117.014 142.224 116.951 142.569 117.007C144.094 117.157 145.619 116.602 146.786 115.63C147.096 113.428 147.343 111.219 147.659 109.019C148.629 110.06 149.575 111.196 150.875 111.838C151.594 112.192 152.537 112.35 153.235 111.865C153.667 111.465 153.719 110.825 153.79 110.278C153.95 108.221 153.674 106.163 153.416 104.126C153.32 103.217 153.052 102.331 153.04 101.413Z" fill="#5D5FEF"/>
<path d="M144.503 158.823C147.609 158.11 150.649 157.144 153.667 156.13C153.931 158.021 154.451 159.866 154.955 161.705C155.99 165.313 157.23 168.858 158.61 172.348C160.388 176.738 162.308 181.115 164.959 185.059C162.109 187.269 159.217 189.424 156.204 191.406C156.021 191.501 155.814 191.715 155.6 191.568C152.546 187.398 150.269 182.709 148.419 177.897C146.151 171.825 144.457 165.506 143.745 159.056C143.99 158.956 144.243 158.875 144.503 158.823ZM157.106 182.464C156.215 182.8 156.088 184.18 156.909 184.662C157.629 185.173 158.764 184.637 158.789 183.744C158.926 182.861 157.926 182.075 157.106 182.464Z" fill="#5D5FEF"/>
<path d="M186.616 170.944C190.526 167.9 194.346 164.709 197.741 161.09C201.986 162.122 206.13 163.539 210.261 164.946C217.283 167.374 224.22 170.042 231.119 172.801C226.673 177.528 223.854 183.619 222.473 189.922C221.623 193.843 221.382 197.884 221.681 201.885C211.833 202.001 201.986 202.313 192.136 202.363C187.679 202.382 183.219 202.324 178.766 202.112C179.032 197.533 179.122 192.943 178.976 188.358C178.97 185.674 178.677 183.002 178.615 180.32C181.098 179.458 183.426 177.993 185.076 175.922C186.152 174.557 186.929 172.776 186.534 171.014C186.555 170.996 186.595 170.962 186.616 170.944Z" fill="#5D5FEF"/>
<path d="M231.706 173.046C234.425 174.147 237.12 175.304 239.823 176.441L239.784 176.505C237.648 179.642 236.098 183.137 234.872 186.715C233.862 189.712 233.048 192.779 232.562 195.904C232.261 197.84 232.08 199.81 232.269 201.767C228.963 201.79 225.654 201.802 222.348 201.871C221.958 198.141 222.24 194.358 222.957 190.683C224.249 184.176 227.158 177.92 231.706 173.046ZM226.524 196.934C225.594 197.026 225.107 198.241 225.71 198.949C226.217 199.648 227.426 199.529 227.773 198.731C228.27 197.915 227.455 196.766 226.524 196.934Z" fill="#5D5FEF"/>
<path d="M113.107 95.573C113.202 95.4612 113.387 95.2337 113.481 95.1218C114.675 95.8545 115.749 96.7722 116.709 97.7902C117.796 98.9181 118.644 100.241 119.593 101.48C121.928 104.831 124.228 108.217 126.854 111.352C128.593 113.399 130.403 115.472 132.719 116.889C133.797 117.55 135.358 117.972 136.388 116.993C137.89 115.535 138.447 113.415 138.971 111.456C139.781 107.877 140.244 104.214 140.325 100.547C140.558 100.48 140.789 100.403 141.019 100.318C143.631 102.928 145.849 105.89 148.232 108.703C149.186 109.73 150.135 110.881 151.473 111.411C151.968 111.56 152.838 111.706 153.001 111.037C153.37 109.719 153.179 108.331 153.121 106.985C152.909 104.704 152.537 102.441 152.147 100.183C152.462 100.206 152.778 100.246 153.092 100.299L153.123 100.354C153.368 100.846 153.711 101.276 154.031 101.721C158.735 108.275 162.514 115.455 165.647 122.879C168.526 129.733 170.835 136.823 172.704 144.016C172.929 144.756 172.997 145.551 173.365 146.243C173.153 146.364 172.939 146.482 172.729 146.607C169.131 132.199 163.954 118.015 155.851 105.496C154.947 104.114 154.023 102.741 153.04 101.413C153.052 102.331 153.32 103.218 153.416 104.126C153.674 106.163 153.95 108.221 153.79 110.278C153.719 110.825 153.667 111.465 153.235 111.865C152.537 112.35 151.594 112.192 150.875 111.838C149.575 111.196 148.629 110.06 147.659 109.019C145.438 106.41 143.44 103.588 140.948 101.226C140.691 105.574 140.254 109.981 138.809 114.116C138.273 115.52 137.587 117.008 136.272 117.841C134.988 118.603 133.411 118.067 132.245 117.334C129.607 115.67 127.583 113.235 125.62 110.852C123.989 108.874 122.558 106.742 121.016 104.698C122.381 108.091 123.158 111.691 123.607 115.312C124.243 120.359 124.187 125.47 123.864 130.539C123.287 138.818 121.851 147.029 119.662 155.033C118.855 157.907 117.935 160.751 116.774 163.502C120.243 162.957 123.692 162.27 127.159 161.69C133.004 160.645 138.854 159.594 144.618 158.16C147.607 157.41 150.58 156.575 153.46 155.474C153.576 155.676 153.643 155.894 153.667 156.13C150.649 157.144 147.609 158.11 144.503 158.823C144.243 158.875 143.99 158.956 143.745 159.056C144.457 165.505 146.151 171.825 148.419 177.897C150.269 182.709 152.546 187.398 155.6 191.568C155.814 191.715 156.021 191.501 156.204 191.406C159.217 189.424 162.109 187.269 164.959 185.059C165.082 185.221 165.21 185.383 165.343 185.543C164.427 186.249 163.519 186.96 162.605 187.668C156.732 192.048 150.503 195.941 144.032 199.371C136.945 203.103 129.553 206.263 121.938 208.747C121.328 208.895 120.563 209.055 120.01 208.696C132.343 204.862 144.106 199.255 154.943 192.241C155.242 192.127 155.01 191.823 154.901 191.668C151.937 187.564 149.714 182.973 147.89 178.263C145.561 172.14 143.919 165.744 143.111 159.241C142.891 159.261 142.673 159.29 142.457 159.328C138.54 160.23 134.591 160.992 130.635 161.703C122.647 163.18 114.592 164.368 106.716 166.39C106.465 166.469 106.219 166.46 105.976 166.363C106.016 166.128 106.049 165.849 106.348 165.839C109.336 165.043 112.363 164.406 115.398 163.82C115.66 163.755 116.005 163.726 116.109 163.429C117.098 161.225 117.841 158.921 118.552 156.617C121.253 147.419 122.855 137.9 123.389 128.33C123.553 123.718 123.532 119.077 122.875 114.5C122.256 110.239 121.207 105.961 119.101 102.174C117.671 99.5312 115.612 97.2388 113.107 95.573Z" fill="#B0DCF7"/>
<path d="M222.473 189.922C223.853 183.619 226.672 177.528 231.118 172.801C231.313 172.874 231.509 172.957 231.706 173.046C227.158 177.92 224.248 184.176 222.957 190.683C222.239 194.358 221.958 198.141 222.347 201.871C222.124 201.873 221.9 201.877 221.68 201.885C221.381 197.884 221.622 193.843 222.473 189.922Z" fill="#B0DCF7"/>
<path d="M177.684 180.611C177.992 180.513 178.304 180.418 178.615 180.32C178.677 183.002 178.97 185.674 178.975 188.358C179.122 192.943 179.031 197.533 178.765 202.112C178.54 202.112 178.316 202.103 178.096 202.083C178.621 194.971 178.459 187.818 177.979 180.71C177.905 180.684 177.757 180.634 177.684 180.611Z" fill="#B0DCF7"/>
<path d="M157.106 182.464C157.926 182.075 158.926 182.861 158.79 183.744C158.765 184.637 157.629 185.173 156.91 184.662C156.088 184.18 156.216 182.8 157.106 182.464Z" fill="#B0DCF7"/>
<path d="M226.524 196.934C227.455 196.766 228.271 197.915 227.773 198.731C227.426 199.529 226.217 199.648 225.71 198.948C225.107 198.241 225.595 197.026 226.524 196.934Z" fill="#B0DCF7"/>
<path d="M140.948 101.226C143.441 103.588 145.438 106.41 147.659 109.019C147.343 111.219 147.096 113.428 146.786 115.63C145.619 116.602 144.094 117.157 142.569 117.007C142.224 116.951 141.806 117.014 141.545 116.731C140.63 115.865 139.723 114.986 138.81 114.116C140.254 109.981 140.691 105.573 140.948 101.226Z" fill="#F94F46"/>
<path d="M141.861 117.587C143.602 117.864 145.417 117.454 146.855 116.434C148.31 121.46 149.834 126.467 151.253 131.505C153.375 138.984 155.294 146.522 156.948 154.119C155.793 154.591 154.642 155.073 153.46 155.474C150.58 156.575 147.607 157.41 144.618 158.16C144.47 149.316 143.915 140.484 143.099 131.677C142.69 126.98 142.152 122.293 141.861 117.587Z" fill="#F94F46"/>
<path d="M144.032 199.371C150.503 195.941 156.732 192.048 162.605 187.668C162.93 190.334 163.251 193.002 163.501 195.677C163.112 196.862 162.231 197.807 161.486 198.787C160.01 200.568 158.419 202.267 156.657 203.772C155.941 204.341 155.224 204.987 154.324 205.236C153.273 205.367 152.261 204.935 151.316 204.532C148.615 203.258 146.097 201.536 144.032 199.371Z" fill="#F94F46"/>
<path d="M194.419 126.089C194.66 125.573 195.298 125.607 195.746 125.806C196.6 126.134 197.473 126.407 198.339 126.706C198.823 126.806 199.22 127.312 199.033 127.811C198.285 130.348 197.525 132.882 196.771 135.419C194.575 136.354 192.805 138.184 190.463 138.766C191.095 137.069 191.552 135.288 191.519 133.464C192.487 131.006 193.43 128.538 194.419 126.089Z" fill="#FFCF2D"/>
<path d="M172.131 166.625C174.267 165.492 176.652 164.753 179.085 164.73C179.197 164.937 179.313 165.147 179.428 165.357C175.358 165.299 171.221 167.071 168.58 170.192C168.462 170.013 168.346 169.836 168.236 169.658C169.304 168.388 170.673 167.404 172.131 166.625Z" fill="white"/>
<path d="M175.565 168.118C178.015 167.294 180.747 166.972 183.244 167.786C184.757 168.268 186.163 169.409 186.533 171.014C186.928 172.776 186.151 174.557 185.076 175.922C183.425 177.993 181.098 179.458 178.615 180.32C178.304 180.418 177.992 180.513 177.684 180.611C175.979 181.139 174.169 181.282 172.397 181.109C170.654 180.841 168.836 180.106 167.891 178.529C166.991 176.919 167.4 174.925 168.35 173.439C169.985 170.844 172.711 169.109 175.565 168.118ZM175.299 171.395C175.788 172.583 176.332 173.749 176.843 174.929C176.909 175.186 177.209 175.467 177.483 175.282C179.205 174.499 180.901 173.661 182.617 172.864C182.835 172.743 183.157 172.666 183.186 172.367C183.261 172.001 182.799 171.717 182.507 171.939C180.842 172.716 179.189 173.522 177.52 174.295C177.036 173.217 176.588 172.122 176.078 171.058C175.831 170.705 175.214 170.967 175.299 171.395Z" fill="white"/>
<path d="M8.20668 272.71C8.16122 272.252 7.96615 271.896 7.62145 271.642C7.27675 271.388 6.80895 271.261 6.21804 271.261C5.81652 271.261 5.47751 271.318 5.20099 271.432C4.92448 271.542 4.71236 271.695 4.56463 271.892C4.42069 272.089 4.34872 272.312 4.34872 272.562C4.34115 272.771 4.38471 272.953 4.4794 273.108C4.57789 273.263 4.71236 273.398 4.88281 273.511C5.05327 273.621 5.25024 273.718 5.47372 273.801C5.69721 273.881 5.93584 273.949 6.18963 274.006L7.23509 274.256C7.74266 274.369 8.20857 274.521 8.63281 274.71C9.05706 274.9 9.42448 275.133 9.73509 275.409C10.0457 275.686 10.2862 276.011 10.4567 276.386C10.6309 276.761 10.7199 277.191 10.7237 277.676C10.7199 278.388 10.5381 279.006 10.1783 279.528C9.82221 280.047 9.30706 280.451 8.63281 280.739C7.96236 281.023 7.15365 281.165 6.20668 281.165C5.26728 281.165 4.4491 281.021 3.75213 280.733C3.05895 280.445 2.51728 280.019 2.12713 279.455C1.74077 278.886 1.53812 278.184 1.51918 277.347H3.89986C3.92637 277.737 4.03812 278.062 4.23509 278.324C4.43584 278.581 4.70289 278.777 5.03622 278.909C5.37334 279.038 5.75402 279.102 6.17827 279.102C6.59493 279.102 6.95668 279.042 7.26349 278.92C7.5741 278.799 7.81463 278.631 7.98509 278.415C8.15554 278.199 8.24077 277.951 8.24077 277.67C8.24077 277.409 8.16312 277.189 8.00781 277.011C7.8563 276.833 7.63281 276.682 7.33736 276.557C7.04569 276.432 6.68774 276.318 6.26349 276.216L4.99645 275.898C4.01539 275.659 3.24077 275.286 2.67259 274.778C2.1044 274.271 1.82221 273.587 1.82599 272.727C1.82221 272.023 2.00971 271.407 2.38849 270.881C2.77107 270.354 3.29569 269.943 3.96236 269.648C4.62902 269.352 5.3866 269.205 6.23509 269.205C7.09872 269.205 7.85251 269.352 8.49645 269.648C9.14418 269.943 9.64796 270.354 10.0078 270.881C10.3677 271.407 10.5533 272.017 10.5646 272.71H8.20668ZM16.2763 281.17C15.3937 281.17 14.6304 280.983 13.9865 280.608C13.3464 280.229 12.852 279.703 12.5036 279.028C12.1551 278.35 11.9808 277.564 11.9808 276.67C11.9808 275.769 12.1551 274.981 12.5036 274.307C12.852 273.629 13.3464 273.102 13.9865 272.727C14.6304 272.348 15.3937 272.159 16.2763 272.159C17.1589 272.159 17.9202 272.348 18.5604 272.727C19.2043 273.102 19.7005 273.629 20.049 274.307C20.3975 274.981 20.5717 275.769 20.5717 276.67C20.5717 277.564 20.3975 278.35 20.049 279.028C19.7005 279.703 19.2043 280.229 18.5604 280.608C17.9202 280.983 17.1589 281.17 16.2763 281.17ZM16.2876 279.295C16.6892 279.295 17.0244 279.182 17.2933 278.955C17.5623 278.723 17.7649 278.409 17.9013 278.011C18.0414 277.614 18.1115 277.161 18.1115 276.653C18.1115 276.146 18.0414 275.693 17.9013 275.295C17.7649 274.898 17.5623 274.583 17.2933 274.352C17.0244 274.121 16.6892 274.006 16.2876 274.006C15.8823 274.006 15.5414 274.121 15.2649 274.352C14.9922 274.583 14.7857 274.898 14.6456 275.295C14.5092 275.693 14.4411 276.146 14.4411 276.653C14.4411 277.161 14.5092 277.614 14.6456 278.011C14.7857 278.409 14.9922 278.723 15.2649 278.955C15.5414 279.182 15.8823 279.295 16.2876 279.295ZM22.1456 281V272.273H24.4922V273.795H24.5831C24.7422 273.254 25.0092 272.845 25.3842 272.568C25.7592 272.288 26.1911 272.148 26.6797 272.148C26.8009 272.148 26.9316 272.155 27.0717 272.17C27.2119 272.186 27.335 272.206 27.4411 272.233V274.381C27.3274 274.347 27.1702 274.316 26.9695 274.29C26.7687 274.263 26.585 274.25 26.4183 274.25C26.0623 274.25 25.7441 274.328 25.4638 274.483C25.1873 274.634 24.9676 274.847 24.8047 275.119C24.6456 275.392 24.5661 275.706 24.5661 276.062V281H22.1456ZM28.6925 281V272.273H31.0391V273.795H31.13C31.2891 273.254 31.5561 272.845 31.9311 272.568C32.3061 272.288 32.7379 272.148 33.2266 272.148C33.3478 272.148 33.4785 272.155 33.6186 272.17C33.7588 272.186 33.8819 272.206 33.9879 272.233V274.381C33.8743 274.347 33.7171 274.316 33.5163 274.29C33.3156 274.263 33.1319 274.25 32.9652 274.25C32.6091 274.25 32.291 274.328 32.0107 274.483C31.7341 274.634 31.5144 274.847 31.3516 275.119C31.1925 275.392 31.1129 275.706 31.1129 276.062V281H28.6925ZM36.9993 284.273C36.6925 284.273 36.4046 284.248 36.1357 284.199C35.8705 284.153 35.6508 284.095 35.4766 284.023L36.022 282.216C36.3061 282.303 36.5618 282.35 36.7891 282.358C37.0201 282.366 37.219 282.313 37.3857 282.199C37.5561 282.085 37.6944 281.892 37.8004 281.619L37.9425 281.25L34.8118 272.273H37.3572L39.1641 278.682H39.255L41.0788 272.273H43.6413L40.2493 281.943C40.0864 282.413 39.8648 282.822 39.5845 283.17C39.308 283.523 38.9576 283.794 38.5334 283.983C38.1091 284.176 37.5978 284.273 36.9993 284.273ZM46.9638 279.409L46.9013 280.034C46.852 280.534 46.7573 281.032 46.6172 281.528C46.4808 282.028 46.3369 282.481 46.1854 282.886C46.0376 283.292 45.9183 283.61 45.8274 283.841H44.2592C44.3161 283.617 44.3937 283.305 44.4922 282.903C44.5907 282.506 44.6835 282.059 44.7706 281.562C44.8577 281.066 44.9126 280.561 44.9354 280.045L44.9638 279.409H46.9638ZM54.7536 275.955V281H52.3331V272.273H54.6399V273.812H54.7422C54.9354 273.305 55.2592 272.903 55.7138 272.608C56.1683 272.309 56.7195 272.159 57.3672 272.159C57.9732 272.159 58.5017 272.292 58.9524 272.557C59.4032 272.822 59.7536 273.201 60.0036 273.693C60.2536 274.182 60.3786 274.765 60.3786 275.443V281H57.9581V275.875C57.9619 275.341 57.8255 274.924 57.549 274.625C57.2725 274.322 56.8918 274.17 56.407 274.17C56.0812 274.17 55.7933 274.241 55.5433 274.381C55.2971 274.521 55.1039 274.725 54.9638 274.994C54.8274 275.259 54.7573 275.58 54.7536 275.955ZM66.2294 281.17C65.3468 281.17 64.5836 280.983 63.9396 280.608C63.2995 280.229 62.8052 279.703 62.4567 279.028C62.1082 278.35 61.9339 277.564 61.9339 276.67C61.9339 275.769 62.1082 274.981 62.4567 274.307C62.8052 273.629 63.2995 273.102 63.9396 272.727C64.5836 272.348 65.3468 272.159 66.2294 272.159C67.112 272.159 67.8733 272.348 68.5135 272.727C69.1574 273.102 69.6536 273.629 70.0021 274.307C70.3506 274.981 70.5249 275.769 70.5249 276.67C70.5249 277.564 70.3506 278.35 70.0021 279.028C69.6536 279.703 69.1574 280.229 68.5135 280.608C67.8733 280.983 67.112 281.17 66.2294 281.17ZM66.2408 279.295C66.6423 279.295 66.9775 279.182 67.2464 278.955C67.5154 278.723 67.718 278.409 67.8544 278.011C67.9946 277.614 68.0646 277.161 68.0646 276.653C68.0646 276.146 67.9946 275.693 67.8544 275.295C67.718 274.898 67.5154 274.583 67.2464 274.352C66.9775 274.121 66.6423 274.006 66.2408 274.006C65.8355 274.006 65.4946 274.121 65.218 274.352C64.9453 274.583 64.7389 274.898 64.5987 275.295C64.4624 275.693 64.3942 276.146 64.3942 276.653C64.3942 277.161 64.4624 277.614 64.5987 278.011C64.7389 278.409 64.9453 278.723 65.218 278.955C65.4946 279.182 65.8355 279.295 66.2408 279.295ZM75.8018 281V272.273H78.2223V281H75.8018ZM77.0178 271.148C76.6579 271.148 76.3492 271.028 76.0916 270.79C75.8378 270.547 75.7109 270.258 75.7109 269.92C75.7109 269.587 75.8378 269.301 76.0916 269.062C76.3492 268.82 76.6579 268.699 77.0178 268.699C77.3776 268.699 77.6844 268.82 77.9382 269.062C78.1958 269.301 78.3246 269.587 78.3246 269.92C78.3246 270.258 78.1958 270.547 77.9382 270.79C77.6844 271.028 77.3776 271.148 77.0178 271.148ZM84.8033 272.273V274.091H79.5476V272.273H84.8033ZM80.7408 270.182H83.1612V278.318C83.1612 278.542 83.1953 278.716 83.2635 278.841C83.3317 278.962 83.4264 279.047 83.5476 279.097C83.6726 279.146 83.8165 279.17 83.9794 279.17C84.093 279.17 84.2067 279.161 84.3203 279.142C84.4339 279.119 84.5211 279.102 84.5817 279.091L84.9624 280.892C84.8411 280.93 84.6707 280.973 84.451 281.023C84.2313 281.076 83.9643 281.108 83.6499 281.119C83.0665 281.142 82.5552 281.064 82.1158 280.886C81.6802 280.708 81.3411 280.432 81.0987 280.057C80.8563 279.682 80.737 279.208 80.7408 278.636V270.182ZM90.2635 281.17C89.3658 281.17 88.593 280.989 87.9453 280.625C87.3014 280.258 86.8052 279.739 86.4567 279.068C86.1082 278.394 85.9339 277.597 85.9339 276.676C85.9339 275.778 86.1082 274.991 86.4567 274.312C86.8052 273.634 87.2957 273.106 87.9283 272.727C88.5646 272.348 89.3108 272.159 90.1669 272.159C90.7427 272.159 91.2786 272.252 91.7749 272.438C92.2749 272.619 92.7105 272.894 93.0817 273.261C93.4567 273.629 93.7483 274.091 93.9567 274.648C94.165 275.201 94.2692 275.848 94.2692 276.591V277.256H86.8999V275.756H91.9908C91.9908 275.407 91.915 275.098 91.7635 274.83C91.612 274.561 91.4018 274.35 91.1328 274.199C90.8677 274.044 90.5589 273.966 90.2067 273.966C89.8393 273.966 89.5135 274.051 89.2294 274.222C88.9491 274.388 88.7294 274.614 88.5703 274.898C88.4112 275.178 88.3298 275.491 88.326 275.835V277.261C88.326 277.693 88.4055 278.066 88.5646 278.381C88.7275 278.695 88.9567 278.938 89.2521 279.108C89.5476 279.278 89.898 279.364 90.3033 279.364C90.5722 279.364 90.8184 279.326 91.0419 279.25C91.2654 279.174 91.4567 279.061 91.6158 278.909C91.7749 278.758 91.8961 278.572 91.9794 278.352L94.218 278.5C94.1044 279.038 93.8714 279.508 93.5192 279.909C93.1707 280.307 92.7199 280.617 92.1669 280.841C91.6177 281.061 90.9832 281.17 90.2635 281.17ZM95.8487 281V272.273H98.1555V273.812H98.2578C98.4396 273.301 98.7427 272.898 99.1669 272.602C99.5911 272.307 100.099 272.159 100.69 272.159C101.288 272.159 101.798 272.309 102.218 272.608C102.638 272.903 102.919 273.305 103.059 273.812H103.15C103.328 273.312 103.65 272.913 104.116 272.614C104.585 272.311 105.14 272.159 105.781 272.159C106.595 272.159 107.256 272.419 107.763 272.938C108.275 273.453 108.531 274.184 108.531 275.131V281H106.116V275.608C106.116 275.123 105.987 274.759 105.729 274.517C105.472 274.275 105.15 274.153 104.763 274.153C104.324 274.153 103.981 274.294 103.735 274.574C103.489 274.85 103.366 275.216 103.366 275.67V281H101.019V275.557C101.019 275.129 100.896 274.788 100.65 274.534C100.407 274.28 100.087 274.153 99.6896 274.153C99.4207 274.153 99.1783 274.222 98.9624 274.358C98.7502 274.491 98.5817 274.678 98.4567 274.92C98.3317 275.159 98.2692 275.439 98.2692 275.761V281H95.8487ZM117.704 274.761L115.488 274.898C115.45 274.708 115.369 274.538 115.244 274.386C115.119 274.231 114.954 274.108 114.749 274.017C114.549 273.922 114.308 273.875 114.028 273.875C113.653 273.875 113.336 273.955 113.079 274.114C112.821 274.269 112.692 274.477 112.692 274.739C112.692 274.947 112.776 275.123 112.942 275.267C113.109 275.411 113.395 275.527 113.8 275.614L115.38 275.932C116.228 276.106 116.861 276.386 117.278 276.773C117.694 277.159 117.903 277.667 117.903 278.295C117.903 278.867 117.734 279.369 117.397 279.801C117.064 280.233 116.605 280.57 116.022 280.812C115.442 281.051 114.774 281.17 114.016 281.17C112.861 281.17 111.941 280.93 111.255 280.449C110.573 279.964 110.174 279.305 110.056 278.472L112.437 278.347C112.509 278.699 112.683 278.968 112.96 279.153C113.236 279.335 113.59 279.426 114.022 279.426C114.446 279.426 114.787 279.345 115.045 279.182C115.306 279.015 115.439 278.801 115.442 278.54C115.439 278.32 115.346 278.14 115.164 278C114.982 277.856 114.702 277.746 114.323 277.67L112.812 277.369C111.96 277.199 111.325 276.903 110.908 276.483C110.496 276.062 110.289 275.527 110.289 274.875C110.289 274.314 110.441 273.831 110.744 273.426C111.05 273.021 111.48 272.708 112.033 272.489C112.59 272.269 113.242 272.159 113.988 272.159C115.09 272.159 115.958 272.392 116.59 272.858C117.227 273.324 117.598 273.958 117.704 274.761ZM124.852 281L122.477 272.273H124.925L126.278 278.136H126.357L127.766 272.273H130.17L131.602 278.102H131.675L133.005 272.273H135.448L133.079 281H130.516L129.016 275.511H128.908L127.408 281H124.852ZM140.498 281.17C139.6 281.17 138.827 280.989 138.18 280.625C137.536 280.258 137.04 279.739 136.691 279.068C136.343 278.394 136.168 277.597 136.168 276.676C136.168 275.778 136.343 274.991 136.691 274.312C137.04 273.634 137.53 273.106 138.163 272.727C138.799 272.348 139.545 272.159 140.401 272.159C140.977 272.159 141.513 272.252 142.009 272.438C142.509 272.619 142.945 272.894 143.316 273.261C143.691 273.629 143.983 274.091 144.191 274.648C144.399 275.201 144.504 275.848 144.504 276.591V277.256H137.134V275.756H142.225C142.225 275.407 142.149 275.098 141.998 274.83C141.846 274.561 141.636 274.35 141.367 274.199C141.102 274.044 140.793 273.966 140.441 273.966C140.074 273.966 139.748 274.051 139.464 274.222C139.183 274.388 138.964 274.614 138.805 274.898C138.646 275.178 138.564 275.491 138.56 275.835V277.261C138.56 277.693 138.64 278.066 138.799 278.381C138.962 278.695 139.191 278.938 139.487 279.108C139.782 279.278 140.132 279.364 140.538 279.364C140.807 279.364 141.053 279.326 141.276 279.25C141.5 279.174 141.691 279.061 141.85 278.909C142.009 278.758 142.13 278.572 142.214 278.352L144.452 278.5C144.339 279.038 144.106 279.508 143.754 279.909C143.405 280.307 142.954 280.617 142.401 280.841C141.852 281.061 141.218 281.17 140.498 281.17ZM146.083 281V272.273H148.43V273.795H148.521C148.68 273.254 148.947 272.845 149.322 272.568C149.697 272.288 150.129 272.148 150.617 272.148C150.738 272.148 150.869 272.155 151.009 272.17C151.149 272.186 151.272 272.206 151.379 272.233V274.381C151.265 274.347 151.108 274.316 150.907 274.29C150.706 274.263 150.522 274.25 150.356 274.25C150 274.25 149.682 274.328 149.401 274.483C149.125 274.634 148.905 274.847 148.742 275.119C148.583 275.392 148.504 275.706 148.504 276.062V281H146.083ZM156.201 281.17C155.303 281.17 154.531 280.989 153.883 280.625C153.239 280.258 152.743 279.739 152.394 279.068C152.046 278.394 151.871 277.597 151.871 276.676C151.871 275.778 152.046 274.991 152.394 274.312C152.743 273.634 153.233 273.106 153.866 272.727C154.502 272.348 155.248 272.159 156.104 272.159C156.68 272.159 157.216 272.252 157.712 272.438C158.212 272.619 158.648 272.894 159.019 273.261C159.394 273.629 159.686 274.091 159.894 274.648C160.103 275.201 160.207 275.848 160.207 276.591V277.256H152.837V275.756H157.928C157.928 275.407 157.853 275.098 157.701 274.83C157.549 274.561 157.339 274.35 157.07 274.199C156.805 274.044 156.496 273.966 156.144 273.966C155.777 273.966 155.451 274.051 155.167 274.222C154.887 274.388 154.667 274.614 154.508 274.898C154.349 275.178 154.267 275.491 154.263 275.835V277.261C154.263 277.693 154.343 278.066 154.502 278.381C154.665 278.695 154.894 278.938 155.19 279.108C155.485 279.278 155.835 279.364 156.241 279.364C156.51 279.364 156.756 279.326 156.979 279.25C157.203 279.174 157.394 279.061 157.553 278.909C157.712 278.758 157.834 278.572 157.917 278.352L160.156 278.5C160.042 279.038 159.809 279.508 159.457 279.909C159.108 280.307 158.657 280.617 158.104 280.841C157.555 281.061 156.921 281.17 156.201 281.17ZM170.183 272.273V274.091H164.796V272.273H170.183ZM166.029 281V271.642C166.029 271.009 166.152 270.485 166.398 270.068C166.648 269.652 166.989 269.339 167.421 269.131C167.853 268.922 168.344 268.818 168.893 268.818C169.264 268.818 169.603 268.847 169.91 268.903C170.22 268.96 170.451 269.011 170.603 269.057L170.171 270.875C170.076 270.845 169.959 270.816 169.819 270.79C169.683 270.763 169.542 270.75 169.398 270.75C169.042 270.75 168.794 270.833 168.654 271C168.514 271.163 168.444 271.392 168.444 271.688V281H166.029ZM175.292 281.17C174.409 281.17 173.646 280.983 173.002 280.608C172.362 280.229 171.868 279.703 171.519 279.028C171.171 278.35 170.996 277.564 170.996 276.67C170.996 275.769 171.171 274.981 171.519 274.307C171.868 273.629 172.362 273.102 173.002 272.727C173.646 272.348 174.409 272.159 175.292 272.159C176.174 272.159 176.936 272.348 177.576 272.727C178.22 273.102 178.716 273.629 179.065 274.307C179.413 274.981 179.587 275.769 179.587 276.67C179.587 277.564 179.413 278.35 179.065 279.028C178.716 279.703 178.22 280.229 177.576 280.608C176.936 280.983 176.174 281.17 175.292 281.17ZM175.303 279.295C175.705 279.295 176.04 279.182 176.309 278.955C176.578 278.723 176.781 278.409 176.917 278.011C177.057 277.614 177.127 277.161 177.127 276.653C177.127 276.146 177.057 275.693 176.917 275.295C176.781 274.898 176.578 274.583 176.309 274.352C176.04 274.121 175.705 274.006 175.303 274.006C174.898 274.006 174.557 274.121 174.281 274.352C174.008 274.583 173.801 274.898 173.661 275.295C173.525 275.693 173.457 276.146 173.457 276.653C173.457 277.161 173.525 277.614 173.661 278.011C173.801 278.409 174.008 278.723 174.281 278.955C174.557 279.182 174.898 279.295 175.303 279.295ZM186.758 277.284V272.273H189.178V281H186.854V279.415H186.763C186.567 279.926 186.239 280.337 185.781 280.648C185.326 280.958 184.771 281.114 184.116 281.114C183.532 281.114 183.019 280.981 182.576 280.716C182.133 280.451 181.786 280.074 181.536 279.585C181.29 279.097 181.165 278.511 181.161 277.83V272.273H183.582V277.398C183.585 277.913 183.724 278.32 183.996 278.619C184.269 278.919 184.635 279.068 185.093 279.068C185.385 279.068 185.657 279.002 185.911 278.869C186.165 278.733 186.37 278.532 186.525 278.267C186.684 278.002 186.762 277.674 186.758 277.284ZM193.535 275.955V281H191.114V272.273H193.421V273.812H193.523C193.717 273.305 194.04 272.903 194.495 272.608C194.95 272.309 195.501 272.159 196.148 272.159C196.754 272.159 197.283 272.292 197.734 272.557C198.184 272.822 198.535 273.201 198.785 273.693C199.035 274.182 199.16 274.765 199.16 275.443V281H196.739V275.875C196.743 275.341 196.607 274.924 196.33 274.625C196.054 274.322 195.673 274.17 195.188 274.17C194.862 274.17 194.575 274.241 194.325 274.381C194.078 274.521 193.885 274.725 193.745 274.994C193.609 275.259 193.539 275.58 193.535 275.955ZM204.283 281.142C203.621 281.142 203.02 280.972 202.482 280.631C201.948 280.286 201.524 279.78 201.21 279.114C200.899 278.443 200.744 277.621 200.744 276.648C200.744 275.648 200.905 274.816 201.227 274.153C201.549 273.487 201.977 272.989 202.511 272.659C203.049 272.326 203.638 272.159 204.278 272.159C204.766 272.159 205.174 272.242 205.499 272.409C205.829 272.572 206.094 272.777 206.295 273.023C206.499 273.265 206.655 273.504 206.761 273.739H206.835V269.364H209.249V281H206.863V279.602H206.761C206.647 279.845 206.486 280.085 206.278 280.324C206.073 280.559 205.806 280.754 205.477 280.909C205.151 281.064 204.753 281.142 204.283 281.142ZM205.05 279.216C205.441 279.216 205.77 279.11 206.039 278.898C206.312 278.682 206.52 278.381 206.664 277.994C206.812 277.608 206.886 277.155 206.886 276.636C206.886 276.117 206.814 275.667 206.67 275.284C206.526 274.902 206.317 274.606 206.045 274.398C205.772 274.189 205.441 274.085 205.05 274.085C204.653 274.085 204.317 274.193 204.045 274.409C203.772 274.625 203.566 274.924 203.425 275.307C203.285 275.689 203.215 276.133 203.215 276.636C203.215 277.144 203.285 277.593 203.425 277.983C203.569 278.369 203.776 278.672 204.045 278.892C204.317 279.108 204.653 279.216 205.05 279.216ZM219.636 272.273V274.091H214.249V272.273H219.636ZM215.482 281V271.642C215.482 271.009 215.605 270.485 215.852 270.068C216.102 269.652 216.442 269.339 216.874 269.131C217.306 268.922 217.797 268.818 218.346 268.818C218.717 268.818 219.056 268.847 219.363 268.903C219.674 268.96 219.905 269.011 220.056 269.057L219.624 270.875C219.53 270.845 219.412 270.816 219.272 270.79C219.136 270.763 218.996 270.75 218.852 270.75C218.496 270.75 218.247 270.833 218.107 271C217.967 271.163 217.897 271.392 217.897 271.688V281H215.482ZM224.745 281.17C223.862 281.17 223.099 280.983 222.455 280.608C221.815 280.229 221.321 279.703 220.972 279.028C220.624 278.35 220.45 277.564 220.45 276.67C220.45 275.769 220.624 274.981 220.972 274.307C221.321 273.629 221.815 273.102 222.455 272.727C223.099 272.348 223.862 272.159 224.745 272.159C225.628 272.159 226.389 272.348 227.029 272.727C227.673 273.102 228.169 273.629 228.518 274.307C228.866 274.981 229.04 275.769 229.04 276.67C229.04 277.564 228.866 278.35 228.518 279.028C228.169 279.703 227.673 280.229 227.029 280.608C226.389 280.983 225.628 281.17 224.745 281.17ZM224.756 279.295C225.158 279.295 225.493 279.182 225.762 278.955C226.031 278.723 226.234 278.409 226.37 278.011C226.51 277.614 226.58 277.161 226.58 276.653C226.58 276.146 226.51 275.693 226.37 275.295C226.234 274.898 226.031 274.583 225.762 274.352C225.493 274.121 225.158 274.006 224.756 274.006C224.351 274.006 224.01 274.121 223.734 274.352C223.461 274.583 223.254 274.898 223.114 275.295C222.978 275.693 222.91 276.146 222.91 276.653C222.91 277.161 222.978 277.614 223.114 278.011C223.254 278.409 223.461 278.723 223.734 278.955C224.01 279.182 224.351 279.295 224.756 279.295ZM230.614 281V272.273H232.961V273.795H233.052C233.211 273.254 233.478 272.845 233.853 272.568C234.228 272.288 234.66 272.148 235.148 272.148C235.27 272.148 235.4 272.155 235.54 272.17C235.681 272.186 235.804 272.206 235.91 272.233V274.381C235.796 274.347 235.639 274.316 235.438 274.29C235.237 274.263 235.054 274.25 234.887 274.25C234.531 274.25 234.213 274.328 233.933 274.483C233.656 274.634 233.436 274.847 233.273 275.119C233.114 275.392 233.035 275.706 233.035 276.062V281H230.614ZM242.359 284.273C242.052 284.273 241.764 284.248 241.495 284.199C241.23 284.153 241.01 284.095 240.836 284.023L241.381 282.216C241.665 282.303 241.921 282.35 242.148 282.358C242.379 282.366 242.578 282.313 242.745 282.199C242.915 282.085 243.054 281.892 243.16 281.619L243.302 281.25L240.171 272.273H242.717L244.523 278.682H244.614L246.438 272.273H249.001L245.609 281.943C245.446 282.413 245.224 282.822 244.944 283.17C244.667 283.523 244.317 283.794 243.893 283.983C243.469 284.176 242.957 284.273 242.359 284.273ZM253.901 281.17C253.019 281.17 252.255 280.983 251.612 280.608C250.971 280.229 250.477 279.703 250.129 279.028C249.78 278.35 249.606 277.564 249.606 276.67C249.606 275.769 249.78 274.981 250.129 274.307C250.477 273.629 250.971 273.102 251.612 272.727C252.255 272.348 253.019 272.159 253.901 272.159C254.784 272.159 255.545 272.348 256.185 272.727C256.829 273.102 257.326 273.629 257.674 274.307C258.022 274.981 258.197 275.769 258.197 276.67C258.197 277.564 258.022 278.35 257.674 279.028C257.326 279.703 256.829 280.229 256.185 280.608C255.545 280.983 254.784 281.17 253.901 281.17ZM253.913 279.295C254.314 279.295 254.649 279.182 254.918 278.955C255.187 278.723 255.39 278.409 255.526 278.011C255.666 277.614 255.737 277.161 255.737 276.653C255.737 276.146 255.666 275.693 255.526 275.295C255.39 274.898 255.187 274.583 254.918 274.352C254.649 274.121 254.314 274.006 253.913 274.006C253.507 274.006 253.166 274.121 252.89 274.352C252.617 274.583 252.411 274.898 252.271 275.295C252.134 275.693 252.066 276.146 252.066 276.653C252.066 277.161 252.134 277.614 252.271 278.011C252.411 278.409 252.617 278.723 252.89 278.955C253.166 279.182 253.507 279.295 253.913 279.295ZM265.367 277.284V272.273H267.788V281H265.464V279.415H265.373C265.176 279.926 264.848 280.337 264.39 280.648C263.935 280.958 263.38 281.114 262.725 281.114C262.142 281.114 261.629 280.981 261.185 280.716C260.742 280.451 260.396 280.074 260.146 279.585C259.899 279.097 259.774 278.511 259.771 277.83V272.273H262.191V277.398C262.195 277.913 262.333 278.32 262.606 278.619C262.879 278.919 263.244 279.068 263.702 279.068C263.994 279.068 264.267 279.002 264.521 278.869C264.774 278.733 264.979 278.532 265.134 278.267C265.293 278.002 265.371 277.674 265.367 277.284ZM269.724 281V272.273H272.07V273.795H272.161C272.32 273.254 272.587 272.845 272.962 272.568C273.337 272.288 273.769 272.148 274.258 272.148C274.379 272.148 274.51 272.155 274.65 272.17C274.79 272.186 274.913 272.206 275.019 272.233V274.381C274.906 274.347 274.748 274.316 274.548 274.29C274.347 274.263 274.163 274.25 273.996 274.25C273.64 274.25 273.322 274.328 273.042 274.483C272.765 274.634 272.546 274.847 272.383 275.119C272.224 275.392 272.144 275.706 272.144 276.062V281H269.724ZM287.235 274.761L285.019 274.898C284.981 274.708 284.9 274.538 284.775 274.386C284.65 274.231 284.485 274.108 284.281 274.017C284.08 273.922 283.839 273.875 283.559 273.875C283.184 273.875 282.868 273.955 282.61 274.114C282.353 274.269 282.224 274.477 282.224 274.739C282.224 274.947 282.307 275.123 282.474 275.267C282.64 275.411 282.926 275.527 283.332 275.614L284.911 275.932C285.76 276.106 286.392 276.386 286.809 276.773C287.226 277.159 287.434 277.667 287.434 278.295C287.434 278.867 287.265 279.369 286.928 279.801C286.595 280.233 286.137 280.57 285.553 280.812C284.974 281.051 284.305 281.17 283.548 281.17C282.392 281.17 281.472 280.93 280.786 280.449C280.104 279.964 279.705 279.305 279.587 278.472L281.968 278.347C282.04 278.699 282.214 278.968 282.491 279.153C282.767 279.335 283.121 279.426 283.553 279.426C283.978 279.426 284.318 279.345 284.576 279.182C284.837 279.015 284.97 278.801 284.974 278.54C284.97 278.32 284.877 278.14 284.695 278C284.513 277.856 284.233 277.746 283.854 277.67L282.343 277.369C281.491 277.199 280.856 276.903 280.44 276.483C280.027 276.062 279.82 275.527 279.82 274.875C279.82 274.314 279.972 273.831 280.275 273.426C280.582 273.021 281.012 272.708 281.565 272.489C282.121 272.269 282.773 272.159 283.519 272.159C284.621 272.159 285.489 272.392 286.121 272.858C286.758 273.324 287.129 273.958 287.235 274.761ZM292.935 281.17C292.038 281.17 291.265 280.989 290.617 280.625C289.973 280.258 289.477 279.739 289.129 279.068C288.78 278.394 288.606 277.597 288.606 276.676C288.606 275.778 288.78 274.991 289.129 274.312C289.477 273.634 289.968 273.106 290.6 272.727C291.237 272.348 291.983 272.159 292.839 272.159C293.415 272.159 293.951 272.252 294.447 272.438C294.947 272.619 295.382 272.894 295.754 273.261C296.129 273.629 296.42 274.091 296.629 274.648C296.837 275.201 296.941 275.848 296.941 276.591V277.256H289.572V275.756H294.663C294.663 275.407 294.587 275.098 294.435 274.83C294.284 274.561 294.074 274.35 293.805 274.199C293.54 274.044 293.231 273.966 292.879 273.966C292.511 273.966 292.185 274.051 291.901 274.222C291.621 274.388 291.401 274.614 291.242 274.898C291.083 275.178 291.002 275.491 290.998 275.835V277.261C290.998 277.693 291.077 278.066 291.237 278.381C291.399 278.695 291.629 278.938 291.924 279.108C292.219 279.278 292.57 279.364 292.975 279.364C293.244 279.364 293.49 279.326 293.714 279.25C293.937 279.174 294.129 279.061 294.288 278.909C294.447 278.758 294.568 278.572 294.651 278.352L296.89 278.5C296.776 279.038 296.543 279.508 296.191 279.909C295.843 280.307 295.392 280.617 294.839 280.841C294.29 281.061 293.655 281.17 292.935 281.17ZM301.009 281.165C300.452 281.165 299.956 281.068 299.521 280.875C299.085 280.678 298.74 280.388 298.487 280.006C298.237 279.619 298.112 279.138 298.112 278.562C298.112 278.078 298.201 277.67 298.379 277.341C298.557 277.011 298.799 276.746 299.106 276.545C299.413 276.345 299.761 276.193 300.151 276.091C300.545 275.989 300.958 275.917 301.39 275.875C301.897 275.822 302.307 275.773 302.617 275.727C302.928 275.678 303.153 275.606 303.293 275.511C303.433 275.417 303.504 275.277 303.504 275.091V275.057C303.504 274.697 303.39 274.419 303.163 274.222C302.939 274.025 302.621 273.926 302.208 273.926C301.772 273.926 301.426 274.023 301.168 274.216C300.911 274.405 300.74 274.644 300.657 274.932L298.418 274.75C298.532 274.22 298.755 273.761 299.089 273.375C299.422 272.985 299.852 272.686 300.379 272.477C300.909 272.265 301.522 272.159 302.219 272.159C302.704 272.159 303.168 272.216 303.612 272.33C304.058 272.443 304.454 272.619 304.799 272.858C305.147 273.097 305.422 273.403 305.623 273.778C305.824 274.15 305.924 274.595 305.924 275.114V281H303.629V279.79H303.56C303.42 280.062 303.233 280.303 302.998 280.511C302.763 280.716 302.481 280.877 302.151 280.994C301.822 281.108 301.441 281.165 301.009 281.165ZM301.702 279.494C302.058 279.494 302.373 279.424 302.646 279.284C302.918 279.14 303.132 278.947 303.288 278.705C303.443 278.462 303.521 278.187 303.521 277.881V276.955C303.445 277.004 303.341 277.049 303.208 277.091C303.079 277.129 302.933 277.165 302.771 277.199C302.608 277.229 302.445 277.258 302.282 277.284C302.119 277.307 301.971 277.328 301.839 277.347C301.555 277.388 301.307 277.455 301.094 277.545C300.882 277.636 300.718 277.759 300.6 277.915C300.483 278.066 300.424 278.256 300.424 278.483C300.424 278.812 300.543 279.064 300.782 279.239C301.024 279.409 301.331 279.494 301.702 279.494ZM307.802 281V272.273H310.148V273.795H310.239C310.398 273.254 310.665 272.845 311.04 272.568C311.415 272.288 311.847 272.148 312.336 272.148C312.457 272.148 312.588 272.155 312.728 272.17C312.868 272.186 312.991 272.206 313.097 272.233V274.381C312.984 274.347 312.826 274.316 312.626 274.29C312.425 274.263 312.241 274.25 312.075 274.25C311.719 274.25 311.4 274.328 311.12 274.483C310.844 274.634 310.624 274.847 310.461 275.119C310.302 275.392 310.222 275.706 310.222 276.062V281H307.802ZM317.886 281.17C316.992 281.17 316.223 280.981 315.579 280.602C314.939 280.22 314.446 279.689 314.102 279.011C313.761 278.333 313.59 277.553 313.59 276.67C313.59 275.777 313.763 274.992 314.107 274.318C314.456 273.64 314.95 273.112 315.59 272.733C316.23 272.35 316.992 272.159 317.874 272.159C318.636 272.159 319.302 272.297 319.874 272.574C320.446 272.85 320.899 273.239 321.232 273.739C321.566 274.239 321.749 274.826 321.783 275.5H319.499C319.435 275.064 319.264 274.714 318.988 274.449C318.715 274.18 318.357 274.045 317.914 274.045C317.539 274.045 317.211 274.148 316.931 274.352C316.655 274.553 316.439 274.847 316.283 275.233C316.128 275.619 316.05 276.087 316.05 276.636C316.05 277.193 316.126 277.667 316.278 278.057C316.433 278.447 316.651 278.744 316.931 278.949C317.211 279.153 317.539 279.256 317.914 279.256C318.191 279.256 318.439 279.199 318.658 279.085C318.882 278.972 319.066 278.807 319.21 278.591C319.357 278.371 319.454 278.108 319.499 277.801H321.783C321.746 278.468 321.564 279.055 321.238 279.562C320.916 280.066 320.471 280.46 319.903 280.744C319.335 281.028 318.662 281.17 317.886 281.17ZM325.754 275.955V281H323.333V269.364H325.685V273.812H325.788C325.985 273.297 326.303 272.894 326.742 272.602C327.182 272.307 327.733 272.159 328.396 272.159C329.002 272.159 329.53 272.292 329.981 272.557C330.435 272.818 330.788 273.195 331.038 273.688C331.291 274.176 331.416 274.761 331.413 275.443V281H328.992V275.875C328.996 275.337 328.86 274.919 328.583 274.619C328.31 274.32 327.928 274.17 327.435 274.17C327.106 274.17 326.814 274.241 326.56 274.381C326.31 274.521 326.113 274.725 325.969 274.994C325.829 275.259 325.757 275.58 325.754 275.955ZM334.732 281.148C334.357 281.148 334.035 281.015 333.766 280.75C333.501 280.481 333.369 280.159 333.369 279.784C333.369 279.413 333.501 279.095 333.766 278.83C334.035 278.564 334.357 278.432 334.732 278.432C335.096 278.432 335.414 278.564 335.687 278.83C335.96 279.095 336.096 279.413 336.096 279.784C336.096 280.034 336.031 280.263 335.903 280.472C335.778 280.676 335.613 280.841 335.408 280.966C335.204 281.087 334.978 281.148 334.732 281.148ZM105.168 300V288.364H109.759C110.641 288.364 111.393 288.532 112.014 288.869C112.635 289.203 113.109 289.667 113.435 290.261C113.764 290.852 113.929 291.534 113.929 292.307C113.929 293.08 113.762 293.761 113.429 294.352C113.096 294.943 112.613 295.403 111.98 295.733C111.351 296.062 110.59 296.227 109.696 296.227H106.77V294.256H109.298C109.772 294.256 110.162 294.174 110.469 294.011C110.779 293.845 111.01 293.616 111.162 293.324C111.317 293.028 111.395 292.689 111.395 292.307C111.395 291.92 111.317 291.583 111.162 291.295C111.01 291.004 110.779 290.778 110.469 290.619C110.158 290.456 109.764 290.375 109.287 290.375H107.628V300H105.168ZM117.902 288.364V300H115.482V288.364H117.902ZM123.818 300.17C122.92 300.17 122.148 299.989 121.5 299.625C120.856 299.258 120.36 298.739 120.011 298.068C119.663 297.394 119.489 296.597 119.489 295.676C119.489 294.778 119.663 293.991 120.011 293.312C120.36 292.634 120.85 292.106 121.483 291.727C122.119 291.348 122.866 291.159 123.722 291.159C124.297 291.159 124.833 291.252 125.33 291.438C125.83 291.619 126.265 291.894 126.636 292.261C127.011 292.629 127.303 293.091 127.511 293.648C127.72 294.201 127.824 294.848 127.824 295.591V296.256H120.455V294.756H125.545C125.545 294.407 125.47 294.098 125.318 293.83C125.167 293.561 124.956 293.35 124.688 293.199C124.422 293.044 124.114 292.966 123.761 292.966C123.394 292.966 123.068 293.051 122.784 293.222C122.504 293.388 122.284 293.614 122.125 293.898C121.966 294.178 121.884 294.491 121.881 294.835V296.261C121.881 296.693 121.96 297.066 122.119 297.381C122.282 297.695 122.511 297.938 122.807 298.108C123.102 298.278 123.453 298.364 123.858 298.364C124.127 298.364 124.373 298.326 124.597 298.25C124.82 298.174 125.011 298.061 125.17 297.909C125.33 297.758 125.451 297.572 125.534 297.352L127.773 297.5C127.659 298.038 127.426 298.508 127.074 298.909C126.725 299.307 126.275 299.617 125.722 299.841C125.172 300.061 124.538 300.17 123.818 300.17ZM131.892 300.165C131.335 300.165 130.839 300.068 130.403 299.875C129.968 299.678 129.623 299.388 129.369 299.006C129.119 298.619 128.994 298.138 128.994 297.562C128.994 297.078 129.083 296.67 129.261 296.341C129.439 296.011 129.682 295.746 129.989 295.545C130.295 295.345 130.644 295.193 131.034 295.091C131.428 294.989 131.841 294.917 132.273 294.875C132.78 294.822 133.189 294.773 133.5 294.727C133.811 294.678 134.036 294.606 134.176 294.511C134.316 294.417 134.386 294.277 134.386 294.091V294.057C134.386 293.697 134.273 293.419 134.045 293.222C133.822 293.025 133.504 292.926 133.091 292.926C132.655 292.926 132.309 293.023 132.051 293.216C131.794 293.405 131.623 293.644 131.54 293.932L129.301 293.75C129.415 293.22 129.638 292.761 129.972 292.375C130.305 291.985 130.735 291.686 131.261 291.477C131.792 291.265 132.405 291.159 133.102 291.159C133.587 291.159 134.051 291.216 134.494 291.33C134.941 291.443 135.337 291.619 135.682 291.858C136.03 292.097 136.305 292.403 136.506 292.778C136.706 293.15 136.807 293.595 136.807 294.114V300H134.511V298.79H134.443C134.303 299.062 134.116 299.303 133.881 299.511C133.646 299.716 133.364 299.877 133.034 299.994C132.705 300.108 132.324 300.165 131.892 300.165ZM132.585 298.494C132.941 298.494 133.256 298.424 133.528 298.284C133.801 298.14 134.015 297.947 134.17 297.705C134.326 297.462 134.403 297.187 134.403 296.881V295.955C134.328 296.004 134.223 296.049 134.091 296.091C133.962 296.129 133.816 296.165 133.653 296.199C133.491 296.229 133.328 296.258 133.165 296.284C133.002 296.307 132.854 296.328 132.722 296.347C132.438 296.388 132.189 296.455 131.977 296.545C131.765 296.636 131.6 296.759 131.483 296.915C131.366 297.066 131.307 297.256 131.307 297.483C131.307 297.812 131.426 298.064 131.665 298.239C131.907 298.409 132.214 298.494 132.585 298.494ZM145.946 293.761L143.73 293.898C143.692 293.708 143.611 293.538 143.486 293.386C143.361 293.231 143.196 293.108 142.991 293.017C142.791 292.922 142.55 292.875 142.27 292.875C141.895 292.875 141.579 292.955 141.321 293.114C141.063 293.269 140.935 293.477 140.935 293.739C140.935 293.947 141.018 294.123 141.185 294.267C141.351 294.411 141.637 294.527 142.043 294.614L143.622 294.932C144.471 295.106 145.103 295.386 145.52 295.773C145.937 296.159 146.145 296.667 146.145 297.295C146.145 297.867 145.976 298.369 145.639 298.801C145.306 299.233 144.848 299.57 144.264 299.812C143.685 300.051 143.016 300.17 142.259 300.17C141.103 300.17 140.183 299.93 139.497 299.449C138.815 298.964 138.416 298.305 138.298 297.472L140.679 297.347C140.751 297.699 140.925 297.968 141.202 298.153C141.478 298.335 141.832 298.426 142.264 298.426C142.688 298.426 143.029 298.345 143.287 298.182C143.548 298.015 143.681 297.801 143.685 297.54C143.681 297.32 143.588 297.14 143.406 297C143.224 296.856 142.944 296.746 142.565 296.67L141.054 296.369C140.202 296.199 139.567 295.903 139.151 295.483C138.738 295.062 138.531 294.527 138.531 293.875C138.531 293.314 138.683 292.831 138.986 292.426C139.293 292.021 139.723 291.708 140.276 291.489C140.832 291.269 141.484 291.159 142.23 291.159C143.332 291.159 144.2 291.392 144.832 291.858C145.469 292.324 145.84 292.958 145.946 293.761ZM151.646 300.17C150.749 300.17 149.976 299.989 149.328 299.625C148.684 299.258 148.188 298.739 147.839 298.068C147.491 297.394 147.317 296.597 147.317 295.676C147.317 294.778 147.491 293.991 147.839 293.312C148.188 292.634 148.679 292.106 149.311 291.727C149.947 291.348 150.694 291.159 151.55 291.159C152.125 291.159 152.661 291.252 153.158 291.438C153.658 291.619 154.093 291.894 154.464 292.261C154.839 292.629 155.131 293.091 155.339 293.648C155.548 294.201 155.652 294.848 155.652 295.591V296.256H148.283V294.756H153.374C153.374 294.407 153.298 294.098 153.146 293.83C152.995 293.561 152.785 293.35 152.516 293.199C152.25 293.044 151.942 292.966 151.589 292.966C151.222 292.966 150.896 293.051 150.612 293.222C150.332 293.388 150.112 293.614 149.953 293.898C149.794 294.178 149.713 294.491 149.709 294.835V296.261C149.709 296.693 149.788 297.066 149.947 297.381C150.11 297.695 150.339 297.938 150.635 298.108C150.93 298.278 151.281 298.364 151.686 298.364C151.955 298.364 152.201 298.326 152.425 298.25C152.648 298.174 152.839 298.061 152.999 297.909C153.158 297.758 153.279 297.572 153.362 297.352L155.601 297.5C155.487 298.038 155.254 298.508 154.902 298.909C154.554 299.307 154.103 299.617 153.55 299.841C153 300.061 152.366 300.17 151.646 300.17ZM165.577 291.273V293.091H160.321V291.273H165.577ZM161.514 289.182H163.935V297.318C163.935 297.542 163.969 297.716 164.037 297.841C164.105 297.962 164.2 298.047 164.321 298.097C164.446 298.146 164.59 298.17 164.753 298.17C164.866 298.17 164.98 298.161 165.094 298.142C165.207 298.119 165.295 298.102 165.355 298.091L165.736 299.892C165.615 299.93 165.444 299.973 165.224 300.023C165.005 300.076 164.738 300.108 164.423 300.119C163.84 300.142 163.329 300.064 162.889 299.886C162.454 299.708 162.115 299.432 161.872 299.057C161.63 298.682 161.51 298.208 161.514 297.636V289.182ZM167.153 300V291.273H169.5V292.795H169.591C169.75 292.254 170.017 291.845 170.392 291.568C170.767 291.288 171.199 291.148 171.688 291.148C171.809 291.148 171.939 291.155 172.08 291.17C172.22 291.186 172.343 291.206 172.449 291.233V293.381C172.335 293.347 172.178 293.316 171.977 293.29C171.777 293.263 171.593 293.25 171.426 293.25C171.07 293.25 170.752 293.328 170.472 293.483C170.195 293.634 169.975 293.847 169.812 294.119C169.653 294.392 169.574 294.706 169.574 295.062V300H167.153ZM175.46 303.273C175.153 303.273 174.866 303.248 174.597 303.199C174.331 303.153 174.112 303.095 173.938 303.023L174.483 301.216C174.767 301.303 175.023 301.35 175.25 301.358C175.481 301.366 175.68 301.313 175.847 301.199C176.017 301.085 176.155 300.892 176.261 300.619L176.403 300.25L173.273 291.273H175.818L177.625 297.682H177.716L179.54 291.273H182.102L178.71 300.943C178.547 301.413 178.326 301.822 178.045 302.17C177.769 302.523 177.419 302.794 176.994 302.983C176.57 303.176 176.059 303.273 175.46 303.273ZM189.533 300.165C188.976 300.165 188.48 300.068 188.044 299.875C187.608 299.678 187.264 299.388 187.01 299.006C186.76 298.619 186.635 298.138 186.635 297.562C186.635 297.078 186.724 296.67 186.902 296.341C187.08 296.011 187.322 295.746 187.629 295.545C187.936 295.345 188.285 295.193 188.675 295.091C189.069 294.989 189.482 294.917 189.913 294.875C190.421 294.822 190.83 294.773 191.141 294.727C191.451 294.678 191.677 294.606 191.817 294.511C191.957 294.417 192.027 294.277 192.027 294.091V294.057C192.027 293.697 191.913 293.419 191.686 293.222C191.463 293.025 191.144 292.926 190.732 292.926C190.296 292.926 189.949 293.023 189.692 293.216C189.434 293.405 189.264 293.644 189.18 293.932L186.942 293.75C187.055 293.22 187.279 292.761 187.612 292.375C187.946 291.985 188.375 291.686 188.902 291.477C189.432 291.265 190.046 291.159 190.743 291.159C191.228 291.159 191.692 291.216 192.135 291.33C192.582 291.443 192.978 291.619 193.322 291.858C193.671 292.097 193.946 292.403 194.146 292.778C194.347 293.15 194.447 293.595 194.447 294.114V300H192.152V298.79H192.084C191.944 299.062 191.756 299.303 191.521 299.511C191.286 299.716 191.004 299.877 190.675 299.994C190.345 300.108 189.964 300.165 189.533 300.165ZM190.226 298.494C190.582 298.494 190.896 298.424 191.169 298.284C191.442 298.14 191.656 297.947 191.811 297.705C191.966 297.462 192.044 297.187 192.044 296.881V295.955C191.968 296.004 191.864 296.049 191.732 296.091C191.603 296.129 191.457 296.165 191.294 296.199C191.131 296.229 190.968 296.258 190.805 296.284C190.643 296.307 190.495 296.328 190.362 296.347C190.078 296.388 189.83 296.455 189.618 296.545C189.406 296.636 189.241 296.759 189.124 296.915C189.006 297.066 188.947 297.256 188.947 297.483C188.947 297.812 189.067 298.064 189.305 298.239C189.548 298.409 189.855 298.494 190.226 298.494ZM200.257 303.455C199.473 303.455 198.801 303.347 198.24 303.131C197.683 302.919 197.24 302.629 196.911 302.261C196.581 301.894 196.367 301.481 196.268 301.023L198.507 300.722C198.575 300.896 198.683 301.059 198.831 301.21C198.979 301.362 199.174 301.483 199.416 301.574C199.662 301.669 199.962 301.716 200.314 301.716C200.84 301.716 201.274 301.587 201.615 301.33C201.96 301.076 202.132 300.65 202.132 300.051V298.455H202.03C201.924 298.697 201.765 298.926 201.553 299.142C201.34 299.358 201.068 299.534 200.734 299.67C200.401 299.807 200.003 299.875 199.541 299.875C198.886 299.875 198.289 299.723 197.751 299.42C197.217 299.114 196.791 298.646 196.473 298.017C196.159 297.384 196.001 296.585 196.001 295.619C196.001 294.631 196.162 293.805 196.484 293.142C196.806 292.479 197.234 291.983 197.768 291.653C198.306 291.324 198.895 291.159 199.536 291.159C200.024 291.159 200.433 291.242 200.763 291.409C201.092 291.572 201.357 291.777 201.558 292.023C201.763 292.265 201.92 292.504 202.03 292.739H202.121V291.273H204.524V300.085C204.524 300.828 204.342 301.449 203.979 301.949C203.615 302.449 203.111 302.824 202.467 303.074C201.827 303.328 201.09 303.455 200.257 303.455ZM200.308 298.057C200.698 298.057 201.028 297.96 201.297 297.767C201.57 297.57 201.778 297.29 201.922 296.926C202.07 296.559 202.143 296.119 202.143 295.608C202.143 295.097 202.071 294.653 201.928 294.278C201.784 293.9 201.575 293.606 201.303 293.398C201.03 293.189 200.698 293.085 200.308 293.085C199.911 293.085 199.575 293.193 199.303 293.409C199.03 293.621 198.823 293.917 198.683 294.295C198.543 294.674 198.473 295.112 198.473 295.608C198.473 296.112 198.543 296.547 198.683 296.915C198.827 297.278 199.034 297.561 199.303 297.761C199.575 297.958 199.911 298.057 200.308 298.057ZM208.939 300.165C208.382 300.165 207.886 300.068 207.45 299.875C207.015 299.678 206.67 299.388 206.416 299.006C206.166 298.619 206.041 298.138 206.041 297.562C206.041 297.078 206.13 296.67 206.308 296.341C206.486 296.011 206.729 295.746 207.036 295.545C207.342 295.345 207.691 295.193 208.081 295.091C208.475 294.989 208.888 294.917 209.32 294.875C209.827 294.822 210.236 294.773 210.547 294.727C210.857 294.678 211.083 294.606 211.223 294.511C211.363 294.417 211.433 294.277 211.433 294.091V294.057C211.433 293.697 211.32 293.419 211.092 293.222C210.869 293.025 210.551 292.926 210.138 292.926C209.702 292.926 209.356 293.023 209.098 293.216C208.84 293.405 208.67 293.644 208.587 293.932L206.348 293.75C206.462 293.22 206.685 292.761 207.018 292.375C207.352 291.985 207.782 291.686 208.308 291.477C208.839 291.265 209.452 291.159 210.149 291.159C210.634 291.159 211.098 291.216 211.541 291.33C211.988 291.443 212.384 291.619 212.729 291.858C213.077 292.097 213.352 292.403 213.553 292.778C213.753 293.15 213.854 293.595 213.854 294.114V300H211.558V298.79H211.49C211.35 299.062 211.162 299.303 210.928 299.511C210.693 299.716 210.411 299.877 210.081 299.994C209.751 300.108 209.371 300.165 208.939 300.165ZM209.632 298.494C209.988 298.494 210.303 298.424 210.575 298.284C210.848 298.14 211.062 297.947 211.217 297.705C211.373 297.462 211.45 297.187 211.45 296.881V295.955C211.375 296.004 211.27 296.049 211.138 296.091C211.009 296.129 210.863 296.165 210.7 296.199C210.537 296.229 210.375 296.258 210.212 296.284C210.049 296.307 209.901 296.328 209.768 296.347C209.484 296.388 209.236 296.455 209.024 296.545C208.812 296.636 208.647 296.759 208.53 296.915C208.412 297.066 208.354 297.256 208.354 297.483C208.354 297.812 208.473 298.064 208.712 298.239C208.954 298.409 209.261 298.494 209.632 298.494ZM215.732 300V291.273H218.152V300H215.732ZM216.947 290.148C216.588 290.148 216.279 290.028 216.021 289.79C215.768 289.547 215.641 289.258 215.641 288.92C215.641 288.587 215.768 288.301 216.021 288.062C216.279 287.82 216.588 287.699 216.947 287.699C217.307 287.699 217.614 287.82 217.868 288.062C218.125 288.301 218.254 288.587 218.254 288.92C218.254 289.258 218.125 289.547 217.868 289.79C217.614 290.028 217.307 290.148 216.947 290.148ZM222.511 294.955V300H220.091V291.273H222.398V292.812H222.5C222.693 292.305 223.017 291.903 223.472 291.608C223.926 291.309 224.477 291.159 225.125 291.159C225.731 291.159 226.259 291.292 226.71 291.557C227.161 291.822 227.511 292.201 227.761 292.693C228.011 293.182 228.136 293.765 228.136 294.443V300H225.716V294.875C225.72 294.341 225.583 293.924 225.307 293.625C225.03 293.322 224.65 293.17 224.165 293.17C223.839 293.17 223.551 293.241 223.301 293.381C223.055 293.521 222.862 293.725 222.722 293.994C222.585 294.259 222.515 294.58 222.511 294.955ZM231.459 300.148C231.084 300.148 230.762 300.015 230.493 299.75C230.228 299.481 230.095 299.159 230.095 298.784C230.095 298.413 230.228 298.095 230.493 297.83C230.762 297.564 231.084 297.432 231.459 297.432C231.822 297.432 232.141 297.564 232.413 297.83C232.686 298.095 232.822 298.413 232.822 298.784C232.822 299.034 232.758 299.263 232.629 299.472C232.504 299.676 232.339 299.841 232.135 299.966C231.93 300.087 231.705 300.148 231.459 300.148Z" fill="#212121"/>
</svg>
