<svg width="25" height="25" viewBox="0 0 25 25" fill="none" xmlns="http://www.w3.org/2000/svg">
<path d="M12.9315 3.41003C9.62147 3.41003 6.93146 6.10003 6.93146 9.41003V12.3C6.93146 12.91 6.67146 13.84 6.36146 14.36L5.21146 16.27C4.50146 17.45 4.99146 18.76 6.29146 19.2C10.6015 20.64 15.2515 20.64 19.5615 19.2C20.7715 18.8 21.3015 17.37 20.6415 16.27L19.4915 14.36C19.1915 13.84 18.9315 12.91 18.9315 12.3V9.41003C18.9315 6.11003 16.2315 3.41003 12.9315 3.41003Z" stroke="#292D32" stroke-width="1.5" stroke-miterlimit="10" stroke-linecap="round"/>
<path d="M14.7813 3.69994C14.4713 3.60994 14.1513 3.53994 13.8213 3.49994C12.8613 3.37994 11.9413 3.44994 11.0813 3.69994C11.3713 2.95994 12.0913 2.43994 12.9313 2.43994C13.7713 2.43994 14.4913 2.95994 14.7813 3.69994Z" stroke="#292D32" stroke-width="1.5" stroke-miterlimit="10" stroke-linecap="round" stroke-linejoin="round"/>
<path d="M15.9314 19.5601C15.9314 21.2101 14.5814 22.5601 12.9314 22.5601C12.1114 22.5601 11.3514 22.2201 10.8114 21.6801C10.2714 21.1401 9.9314 20.3801 9.9314 19.5601" stroke="#292D32" stroke-width="1.5" stroke-miterlimit="10"/>
</svg>
