<svg width="20" height="20" viewBox="0 0 20 20" fill="none" xmlns="http://www.w3.org/2000/svg">
<path d="M16.5254 7.24998L12.7504 3.47498C11.9587 2.68331 10.8671 2.25831 9.75039 2.31665L5.58372 2.51665C3.91705 2.59165 2.59205 3.91665 2.50872 5.57498L2.30872 9.74165C2.25872 10.8583 2.67539 11.95 3.46705 12.7416L7.24205 16.5166C8.79205 18.0666 11.3087 18.0666 12.8671 16.5166L16.5254 12.8583C18.0837 11.3166 18.0837 8.79998 16.5254 7.24998ZM7.91705 10.3166C6.59205 10.3166 5.51705 9.24165 5.51705 7.91665C5.51705 6.59165 6.59205 5.51665 7.91705 5.51665C9.24205 5.51665 10.3171 6.59165 10.3171 7.91665C10.3171 9.24165 9.24205 10.3166 7.91705 10.3166Z" fill="#7D7D7D"/>
</svg>
