<svg width="14" height="14" viewBox="0 0 14 14" fill="none" xmlns="http://www.w3.org/2000/svg">
<path d="M12.2378 2.91372C11.3409 2.82459 10.444 2.75774 9.54148 2.7076V2.70203L9.41892 1.97782C9.33536 1.46531 9.2128 0.696533 7.90923 0.696533H6.44967C5.15166 0.696533 5.02911 1.43188 4.93997 1.97225L4.82299 2.68532C4.3049 2.71875 3.78681 2.75217 3.26872 2.80231L2.13227 2.91372C1.8983 2.93601 1.73117 3.14213 1.75346 3.37053C1.77574 3.59894 1.97629 3.76606 2.21026 3.74378L3.34672 3.63236C6.26583 3.34268 9.20723 3.4541 12.1598 3.74935C12.1765 3.74935 12.1876 3.74935 12.2043 3.74935C12.416 3.74935 12.5999 3.5878 12.6222 3.37053C12.6389 3.14213 12.4717 2.93601 12.2378 2.91372Z" fill="white"/>
<path d="M11.2128 4.53483C11.0791 4.39556 10.8952 4.31757 10.7058 4.31757H3.66427C3.47487 4.31757 3.28546 4.39556 3.15733 4.53483C3.0292 4.6741 2.95678 4.86351 2.96792 5.05849L3.31331 10.7742C3.37459 11.6209 3.45258 12.6794 5.3968 12.6794H8.97328C10.9175 12.6794 10.9955 11.6265 11.0568 10.7742L11.4022 5.06406C11.4133 4.86351 11.3409 4.6741 11.2128 4.53483ZM8.1098 9.8884H6.25471C6.02631 9.8884 5.8369 9.69899 5.8369 9.47059C5.8369 9.24218 6.02631 9.05277 6.25471 9.05277H8.1098C8.3382 9.05277 8.52761 9.24218 8.52761 9.47059C8.52761 9.69899 8.3382 9.8884 8.1098 9.8884ZM8.57775 7.66007H5.79233C5.56393 7.66007 5.37452 7.47066 5.37452 7.24225C5.37452 7.01385 5.56393 6.82444 5.79233 6.82444H8.57775C8.80615 6.82444 8.99556 7.01385 8.99556 7.24225C8.99556 7.47066 8.80615 7.66007 8.57775 7.66007Z" fill="white"/>
</svg>
