<svg width="20" height="20" viewBox="0 0 20 20" fill="none" xmlns="http://www.w3.org/2000/svg">
<path d="M13.1667 1.84158C12.8251 1.49991 12.2334 1.73325 12.2334 2.20825V5.11658C12.2334 6.33325 13.2667 7.34158 14.5251 7.34158C15.3167 7.34991 16.4167 7.34991 17.3584 7.34991C17.8334 7.34991 18.0834 6.79158 17.7501 6.45825C16.5501 5.24991 14.4001 3.07491 13.1667 1.84158Z" fill="#7D7D7D"/>
<path d="M17.0833 8.49175H14.6749C12.6999 8.49175 11.0916 6.88341 11.0916 4.90841V2.50008C11.0916 2.04175 10.7166 1.66675 10.2583 1.66675H6.72492C4.15825 1.66675 2.08325 3.33341 2.08325 6.30841V13.6917C2.08325 16.6667 4.15825 18.3334 6.72492 18.3334H13.2749C15.8416 18.3334 17.9166 16.6667 17.9166 13.6917V9.32508C17.9166 8.86675 17.5416 8.49175 17.0833 8.49175ZM9.58325 14.7917H6.24992C5.90825 14.7917 5.62492 14.5084 5.62492 14.1667C5.62492 13.8251 5.90825 13.5417 6.24992 13.5417H9.58325C9.92492 13.5417 10.2083 13.8251 10.2083 14.1667C10.2083 14.5084 9.92492 14.7917 9.58325 14.7917ZM11.2499 11.4584H6.24992C5.90825 11.4584 5.62492 11.1751 5.62492 10.8334C5.62492 10.4917 5.90825 10.2084 6.24992 10.2084H11.2499C11.5916 10.2084 11.8749 10.4917 11.8749 10.8334C11.8749 11.1751 11.5916 11.4584 11.2499 11.4584Z" fill="#7D7D7D"/>
</svg>
