<svg width="15" height="18" viewBox="0 0 15 18" fill="none" xmlns="http://www.w3.org/2000/svg">
<path d="M14.6834 6.04134C13.8084 2.19134 10.4501 0.458008 7.50008 0.458008C7.50008 0.458008 7.50008 0.458008 7.49175 0.458008C4.55008 0.458008 1.18341 2.18301 0.308413 6.03301C-0.666587 10.333 1.96675 13.9747 4.35008 16.2663C5.23341 17.1163 6.36675 17.5413 7.50008 17.5413C8.63341 17.5413 9.76675 17.1163 10.6417 16.2663C13.0251 13.9747 15.6584 10.3413 14.6834 6.04134ZM7.50008 10.2163C6.05008 10.2163 4.87508 9.04134 4.87508 7.59134C4.87508 6.14134 6.05008 4.96634 7.50008 4.96634C8.95008 4.96634 10.1251 6.14134 10.1251 7.59134C10.1251 9.04134 8.95008 10.2163 7.50008 10.2163Z" fill="white"/>
</svg>
