<svg width="207" height="206" viewBox="0 0 207 206" fill="none" xmlns="http://www.w3.org/2000/svg">
<path d="M61.9457 45.8108C63.3201 45.6576 64.6517 46.7865 64.7934 48.1477C64.7209 48.1263 64.5792 48.0834 64.5083 48.0604C64.1902 47.238 63.6464 46.3811 62.7103 46.2047C62.4318 46.0976 61.888 46.2657 61.9457 45.8108Z" fill="#9B3C82"/>
<path d="M71.6735 47.898L71.8581 47.8865C72.0377 48.5275 72.5832 49.19 73.3281 48.9923C73.516 48.984 74.0417 48.661 73.9642 49.0714C73.1534 50.0371 71.3027 49.1538 71.6735 47.898Z" fill="#9B3C82"/>
<path d="M63.8757 49.9667C64.3075 49.9584 64.7393 49.9189 65.1711 49.9041C64.9898 50.4858 64.2202 50.2188 63.7686 50.349C63.734 50.4067 63.6648 50.5221 63.6318 50.5797C63.7126 50.3754 63.7933 50.171 63.8757 49.9667Z" fill="#9B3C82"/>
<path d="M100.004 102.85C100.599 102.112 100.934 101.204 101.522 100.462C101.364 101.055 101.15 101.634 100.858 102.176C100.471 102.936 99.9006 103.735 98.9942 103.874C98.9892 103.325 99.7753 103.305 100.004 102.85Z" fill="#9B3C82"/>
<path d="M102.711 101.533C102.887 101.176 103.108 100.843 103.32 100.505C102.999 101.855 102.628 103.328 101.579 104.307C101.537 104.246 101.453 104.126 101.412 104.065C102.022 103.323 102.408 102.438 102.711 101.533Z" fill="#9B3C82"/>
<path d="M104.694 102.046C104.824 101.765 104.978 101.495 105.128 101.225C105.052 102.367 104.681 103.544 103.944 104.434C103.702 104.42 103.72 104.168 103.849 104.03C104.243 103.42 104.483 102.736 104.694 102.046Z" fill="#9B3C82"/>
<path d="M71.1746 102.366C71.0032 102.292 71.1697 101.944 71.3032 102.091C72.198 102.748 73.0682 103.452 74.0504 103.983C74.0257 104.075 73.9762 104.256 73.9515 104.349C72.9808 103.757 71.9887 103.169 71.1746 102.366Z" fill="#9B3C82"/>
<path d="M69.2459 103.003C69.9991 103.59 70.7374 104.203 71.5844 104.653C71.5465 104.73 71.4691 104.887 71.4312 104.964C70.6072 104.473 69.7947 103.954 69.1025 103.283C69.1388 103.212 69.2113 103.074 69.2459 103.003Z" fill="#9B3C82"/>
<path d="M67.5947 103.975C68.1567 104.257 68.6495 104.649 69.1834 104.977C69.0697 105.076 68.9543 105.172 68.8357 105.264C68.4698 104.796 67.5914 104.647 67.5947 103.975Z" fill="#9B3C82"/>
<path d="M36.9951 157.128C37.8587 156.311 38.6909 155.464 39.5841 154.677C40.2746 156.413 40.9998 158.143 41.9638 159.747C42.9411 161.438 44.1441 162.98 45.3373 164.521C43.1422 163.418 41.2717 161.766 39.5133 160.071C38.564 159.185 37.8191 158.12 36.9951 157.128Z" fill="#9B3C82"/>
<path d="M62.4817 164.062C64.3621 164.534 66.2391 165.029 68.1525 165.357C70.0411 165.698 71.9973 165.81 73.8793 165.36L73.9996 165.34L73.8875 165.395C72.757 165.99 71.5127 166.318 70.2537 166.497C67.5707 166.885 64.8499 166.904 62.1455 166.805C62.2114 165.884 62.3894 164.978 62.4817 164.062Z" fill="#9B3C82"/>
<path d="M142.685 74.9385C144.503 73.1389 147.131 72.4089 149.638 72.4221C152.087 72.4567 154.633 73.218 156.39 74.9946C158.386 76.9985 159.244 79.8595 159.455 82.6182C159.513 84.1278 159.462 85.639 159.482 87.1502C152.837 87.1502 146.194 87.1502 139.549 87.1502C139.557 85.6192 139.528 84.0882 139.572 82.5589C139.778 79.7919 140.661 76.9244 142.685 74.9385Z" fill="white"/>
<path d="M58.4258 98.5801C58.4736 98.4862 58.5692 98.295 58.6169 98.2011C60.3688 98.1895 62.1519 98.8422 63.383 100.108C63.3368 100.192 63.2445 100.357 63.1984 100.441C61.9822 99.1619 60.1809 98.4911 58.4258 98.5801Z" fill="white"/>
<path d="M56.108 100.128C56.9468 99.437 58.1103 99.353 59.1469 99.4766C60.6037 99.6826 62.0424 100.324 63.0362 101.429C63.5899 102.041 63.9525 102.888 63.7382 103.719C63.6229 103.9 63.5174 104.088 63.4037 104.272C62.728 105.039 61.6354 105.228 60.6614 105.192C58.9211 105.095 57.1726 104.333 56.0585 102.969C55.8278 102.621 55.6152 102.252 55.5213 101.843C55.3861 101.214 55.6086 100.536 56.108 100.128ZM60.0319 100.861C59.7863 101.456 59.5572 102.056 59.315 102.652C59.7649 102.926 60.2791 103.053 60.7636 103.247C61.2135 103.404 61.6469 103.639 62.1331 103.666C62.1215 103.592 62.0985 103.447 62.0869 103.372C61.3371 103.028 60.5411 102.792 59.7748 102.487C59.9462 101.996 60.1983 101.532 60.3186 101.026C60.2478 100.984 60.1044 100.902 60.0319 100.861Z" fill="white"/>
<path d="M127.457 151.361C131.277 151.26 135.105 151.346 138.927 151.318C149.754 151.318 160.581 151.316 171.409 151.318C172.417 151.268 173.413 151.885 173.797 152.823C174.026 153.319 173.991 153.877 173.996 154.413C173.981 156.173 174.011 157.933 173.983 159.693C173.942 161.002 172.701 162.088 171.401 162.004C156.896 161.999 142.391 162.01 127.885 161.997C126.567 162.027 125.392 160.83 125.439 159.513C125.436 157.592 125.43 155.67 125.441 153.75C125.43 152.605 126.331 151.547 127.457 151.361ZM132.018 153.739C132.022 154.251 132.017 154.764 132.01 155.278C131.593 154.973 131.28 154.556 130.884 154.228C130.67 154.451 130.453 154.67 130.233 154.889C130.608 155.26 130.983 155.629 131.346 156.011C130.817 156.01 130.288 156.008 129.761 156.006C129.756 156.321 129.756 156.638 129.759 156.956C130.283 156.956 130.809 156.951 131.334 156.949C130.973 157.325 130.604 157.691 130.237 158.06C130.456 158.294 130.682 158.531 130.952 158.711C131.28 158.337 131.626 157.979 132.008 157.661C132.015 158.167 132.023 158.675 132.02 159.182C132.333 159.177 132.649 159.176 132.966 159.177C132.958 158.675 132.953 158.174 132.984 157.674C133.366 157.986 133.704 158.348 134.034 158.716C134.294 158.526 134.518 158.292 134.736 158.057C134.372 157.689 134.002 157.328 133.661 156.943C134.167 156.952 134.673 156.959 135.181 156.951C135.177 156.636 135.177 156.323 135.181 156.011C134.672 156.003 134.162 156.01 133.653 156.018C133.983 155.621 134.37 155.278 134.716 154.897C134.495 154.691 134.337 154.337 134.03 154.278C133.656 154.584 133.373 154.988 132.977 155.275C132.958 154.766 132.956 154.256 132.966 153.75C132.649 153.742 132.333 153.74 132.018 153.739ZM140.593 153.739C140.599 154.255 140.593 154.772 140.581 155.29C140.176 154.965 139.855 154.556 139.454 154.23C139.243 154.452 139.027 154.672 138.81 154.887C139.18 155.26 139.561 155.626 139.915 156.015C139.39 156.011 138.862 156.005 138.338 156.006C138.33 156.321 138.33 156.638 138.337 156.956C138.859 156.957 139.383 156.951 139.907 156.946C139.551 157.325 139.18 157.691 138.811 158.057C139.026 158.269 139.24 158.488 139.444 158.716C139.859 158.406 140.171 157.981 140.583 157.666C140.591 158.17 140.599 158.675 140.594 159.182C140.908 159.177 141.224 159.174 141.542 159.176C141.532 158.673 141.535 158.174 141.549 157.674C141.946 157.973 142.272 158.353 142.612 158.716C142.869 158.525 143.094 158.292 143.314 158.058C142.948 157.691 142.582 157.328 142.233 156.949C142.74 156.954 143.248 156.954 143.757 156.951C143.754 156.636 143.754 156.325 143.757 156.013C143.246 156.005 142.735 156.008 142.226 156.018C142.564 155.622 142.94 155.263 143.31 154.899C143.076 154.7 142.913 154.344 142.605 154.279C142.229 154.588 141.946 154.993 141.549 155.276C141.534 154.769 141.532 154.263 141.545 153.757C141.226 153.744 140.909 153.737 140.593 153.739ZM149.166 153.747C149.172 154.258 149.169 154.769 149.161 155.281C148.764 154.978 148.432 154.606 148.103 154.238C147.826 154.411 147.607 154.655 147.388 154.894C147.762 155.262 148.137 155.627 148.493 156.015C147.963 156.01 147.434 156.005 146.906 156.01C146.906 156.323 146.906 156.636 146.906 156.952C147.43 156.954 147.956 156.954 148.483 156.951C148.124 157.327 147.758 157.696 147.389 158.063C147.605 158.299 147.832 158.533 148.103 158.712C148.429 158.34 148.769 157.977 149.157 157.669C149.169 158.17 149.172 158.675 149.167 159.179C149.482 159.176 149.799 159.176 150.117 159.177C150.108 158.671 150.112 158.165 150.125 157.661C150.509 157.979 150.852 158.343 151.185 158.717C151.445 158.525 151.669 158.291 151.89 158.055C151.521 157.691 151.156 157.327 150.805 156.947C151.313 156.956 151.824 156.956 152.335 156.949C152.33 156.634 152.33 156.323 152.333 156.011C151.819 156.005 151.306 156.008 150.796 156.016C151.143 155.626 151.517 155.26 151.89 154.892C151.674 154.675 151.463 154.457 151.26 154.232C150.843 154.538 150.54 154.965 150.13 155.278C150.108 154.766 150.107 154.253 150.115 153.742C149.797 153.74 149.48 153.74 149.166 153.747ZM157.742 153.745C157.75 154.255 157.745 154.766 157.732 155.276C157.335 154.975 157.005 154.601 156.671 154.235C156.404 154.418 156.181 154.655 155.962 154.891C156.333 155.26 156.714 155.622 157.063 156.015C156.536 156.01 156.01 156.005 155.484 156.01C155.482 156.323 155.482 156.636 155.482 156.954C156.003 156.957 156.526 156.952 157.05 156.946C156.704 157.331 156.338 157.696 155.965 158.057C156.176 158.297 156.405 158.525 156.664 158.717C157.002 158.352 157.336 157.979 157.732 157.674C157.744 158.175 157.75 158.676 157.745 159.181C158.058 159.176 158.375 159.176 158.691 159.177C158.685 158.675 158.686 158.174 158.698 157.674C159.093 157.971 159.423 158.343 159.751 158.712C160.021 158.531 160.242 158.291 160.464 158.055C160.097 157.691 159.733 157.323 159.375 156.951C159.886 156.956 160.397 156.952 160.909 156.951C160.906 156.636 160.906 156.325 160.909 156.015C160.395 156.005 159.883 156.006 159.37 156.016C159.718 155.626 160.094 155.262 160.464 154.892C160.245 154.655 160.023 154.421 159.761 154.233C159.426 154.597 159.092 154.968 158.703 155.276C158.686 154.766 158.681 154.256 158.693 153.747C158.375 153.74 158.057 153.74 157.742 153.745ZM166.313 153.757C166.326 154.266 166.321 154.774 166.308 155.285C165.914 154.972 165.578 154.599 165.239 154.232C164.98 154.426 164.751 154.652 164.542 154.897C164.912 155.262 165.29 155.622 165.637 156.015C165.11 156.01 164.584 156.005 164.059 156.01C164.059 156.323 164.057 156.636 164.057 156.952C164.581 156.956 165.105 156.952 165.629 156.949C165.278 157.331 164.909 157.697 164.54 158.063C164.757 158.296 164.98 158.531 165.245 158.716C165.573 158.345 165.919 157.987 166.3 157.671C166.328 158.17 166.325 158.673 166.316 159.176C166.631 159.176 166.948 159.176 167.266 159.181C167.257 158.675 167.264 158.167 167.277 157.663C167.658 157.979 167.999 158.338 168.327 158.711C168.601 158.534 168.816 158.287 169.039 158.055C168.673 157.689 168.309 157.323 167.948 156.956C168.459 156.956 168.97 156.951 169.484 156.952C169.481 156.638 169.481 156.325 169.486 156.011C168.968 156.006 168.452 156.006 167.936 156.013C168.297 155.632 168.668 155.26 169.041 154.891C168.821 154.67 168.607 154.451 168.398 154.228C168.002 154.561 167.669 154.955 167.281 155.293C167.262 154.774 167.257 154.256 167.266 153.739C166.946 153.737 166.628 153.742 166.313 153.757Z" fill="white"/>
<path d="M32.7939 160.545C32.9802 160.401 33.1664 160.259 33.3526 160.118C35.3582 162.899 37.3721 165.675 39.3728 168.458C39.1668 168.574 38.9624 168.692 38.7564 168.811C36.7673 166.057 34.7814 163.3 32.7939 160.545Z" fill="white"/>
<path d="M25.1016 165.981C25.4262 165.663 25.6981 166.045 25.9734 166.178C27.4071 167.03 29.1952 166.378 30.6586 167.128C31.153 167.373 31.6029 167.701 32.0199 168.062C32.2786 168.184 32.0841 168.702 31.8221 168.425C31.3673 168.107 30.9619 167.713 30.4477 167.489C29.3287 166.94 28.0383 167.248 26.8616 166.95C26.214 166.782 25.5185 166.536 25.1016 165.981Z" fill="white"/>
<path d="M19.6611 169.862C20.7323 169.056 21.848 168.31 22.9291 167.517C24.3167 167.711 25.6978 168.443 26.4196 169.682C27.0903 170.762 26.8102 172.154 27.4891 173.234C27.8847 173.975 28.5933 174.458 29.2822 174.905C30.0485 175.388 30.566 176.166 30.9038 176.993C31.8695 179.183 33.1352 181.332 35.0815 182.791C36.3916 183.817 37.9918 184.371 39.6052 184.696C39.5113 184.977 39.4322 185.264 39.3597 185.554C37.4694 185.699 35.7176 184.724 34.3003 183.568C31.8596 181.569 29.5706 179.397 27.2683 177.243C24.6958 174.822 22.1579 172.362 19.6611 169.862ZM22.6638 169.191C22.1348 169.315 21.8414 169.9 21.9535 170.412C22.1035 171.289 22.7429 172.008 23.468 172.484C23.9937 172.81 24.6793 173.057 25.2792 172.785C25.7258 172.576 25.8988 172.029 25.795 171.571C25.6368 170.791 25.0946 170.142 24.4667 169.682C23.9525 169.316 23.3016 169.035 22.6638 169.191Z" fill="white"/>
<path d="M22.6077 169.581C22.9851 169.395 23.4218 169.522 23.7843 169.682C24.5012 170.025 25.106 170.64 25.3812 171.393C25.518 171.744 25.5312 172.268 25.1406 172.465C24.7105 172.662 24.2211 172.489 23.8255 172.287C23.135 171.907 22.5533 171.276 22.3292 170.509C22.2319 170.185 22.2731 169.751 22.6077 169.581Z" fill="white"/>
<path d="M61.6924 169.654C65.3246 169.692 68.9568 169.811 72.589 169.862C72.5148 170.101 72.4423 170.343 72.3714 170.587C68.7672 170.5 65.1631 170.44 61.5605 170.363C61.6034 170.124 61.6462 169.888 61.6924 169.654Z" fill="white"/>
<path d="M63.6206 176.325C64.5105 175.664 65.6641 175.432 66.7534 175.493L66.8441 175.709C66.7996 175.751 66.7106 175.836 66.6661 175.878C65.9871 175.957 65.2818 175.961 64.644 176.238C63.5497 176.696 62.8362 177.711 61.8144 178.284C61.2211 178.645 60.5388 178.841 59.8467 178.868C59.8681 178.762 59.9126 178.551 59.934 178.446C60.3839 178.349 60.8536 178.301 61.2673 178.083C62.172 177.671 62.823 176.894 63.6206 176.325Z" fill="white"/>
<path d="M59.2431 181.483C60.456 180.656 62.0249 180.233 63.4603 180.678C64.6683 181.01 65.4049 182.169 66.5866 182.555C67.4847 182.912 68.4669 182.751 69.3898 182.589C70.2962 182.426 71.2075 182.688 72.0332 183.054C74.2151 183.977 76.5652 184.687 78.9614 184.507C80.7824 184.395 82.5343 183.723 84.0504 182.721C84.2086 182.995 84.3536 183.276 84.4789 183.571C83.1226 184.964 81.145 185.485 79.2597 185.607C75.6473 185.836 72.0233 185.791 68.4059 185.783C65.0819 185.753 61.7579 185.712 58.4355 185.589C58.6465 184.209 58.9712 182.851 59.2431 181.483ZM61.486 182.134C60.8993 182.294 60.2549 182.64 60.0934 183.275C59.9567 183.866 60.4296 184.386 60.9306 184.621C61.8469 185.058 62.9626 185.063 63.8921 184.657C64.3321 184.455 64.7639 184.091 64.8215 183.581C64.8776 183.084 64.5167 182.655 64.1113 182.423C63.3235 181.971 62.3528 181.92 61.486 182.134Z" fill="white"/>
<path d="M61.6579 182.47C62.4572 182.293 63.3553 182.362 64.0508 182.826C64.3359 183.016 64.5946 183.393 64.4117 183.741C64.1859 184.184 63.6784 184.376 63.2268 184.498C62.4424 184.667 61.5722 184.601 60.88 184.17C60.5851 183.982 60.3115 183.611 60.4746 183.252C60.6856 182.793 61.1998 182.592 61.6579 182.47Z" fill="white"/>
<path d="M67.5632 36.9887C68.0609 35.4248 70.1176 34.8414 71.4772 35.6341C72.0293 35.9208 72.3836 36.4498 72.6637 36.9871C71.9238 37.3364 71.3272 37.9874 71.1443 38.7982C71.5217 38.8147 71.6519 38.4521 71.8332 38.2C72.054 37.8292 72.4116 37.5754 72.7429 37.3117C73.3938 37.0217 74.1502 36.9426 74.8358 37.1618C76.4492 37.6232 77.2534 39.8068 76.319 41.201C75.9762 41.7284 75.4044 42.0365 74.8226 42.2277C74.8177 42.6611 74.8144 43.0962 74.816 43.5313C74.2887 43.3879 73.7349 43.3286 73.2307 43.1143C72.8813 42.7089 73.5108 42.4073 73.7597 42.17C72.8236 42.147 71.8859 42.2129 70.9713 42.4172C71.3421 42.5441 72.1924 42.7353 71.8529 43.294C71.2877 43.6895 70.64 43.9466 70.0912 44.3652C69.8259 44.5349 69.437 44.8398 69.1486 44.5646C68.9574 43.9828 69.3562 43.4406 69.6644 42.9825C68.641 43.7224 67.8598 44.7574 67.2995 45.8813C67.1001 46.2258 66.9452 46.6312 66.6041 46.8619C66.3173 47.0135 66.0322 46.7614 65.8328 46.5801C65.0731 45.8203 64.4452 44.8661 63.4201 44.4311L63.3163 44.3783C63.6673 42.9083 63.2191 41.4103 62.6835 40.0441C62.1429 38.4637 63.4119 36.7679 64.9462 36.4037C65.8542 36.1482 66.8232 36.4366 67.5632 36.9887Z" fill="#5B2448"/>
<path d="M73.1556 44.6553C73.6549 44.7855 74.2185 44.6454 74.6915 44.8085C74.7393 45.3491 74.0109 45.6457 73.528 45.5666C73.79 45.8979 74.1971 46.1863 74.235 46.6378C74.1246 46.9822 73.8181 47.3547 73.4225 47.3366C73.4934 47.0037 73.9697 46.8685 73.9466 46.529C73.5989 45.9638 72.8029 45.4035 73.1556 44.6553Z" fill="#5B2448"/>
<path d="M69.6463 45.456C70.4109 45.3242 71.1426 45.072 71.8595 44.782C72.2831 44.9204 72.3193 45.7065 71.8612 45.8598C71.3387 46.0691 70.7438 46.0312 70.2099 45.8927C70.0055 45.7939 69.6265 45.7609 69.6463 45.456Z" fill="#5B2448"/>
<path d="M67.7282 51.9961C68.5967 52.6602 69.5509 53.2321 70.6122 53.5304C70.5364 54.2522 70.4738 54.979 70.3617 55.6975C69.7619 55.4635 69.1455 55.2212 68.6659 54.7763C67.8897 54.1022 67.453 53.0129 67.7282 51.9961Z" fill="#5B2448"/>
<path d="M61.3173 92.2632C62.728 93.1267 64.1815 93.9343 65.7059 94.5836C65.6466 95.2856 65.3038 95.9102 65.0582 96.5595C64.5507 97.7642 64.0233 98.9673 63.3822 100.108C62.1512 98.842 60.368 98.1894 58.6162 98.2009C59.6413 96.2843 60.7817 94.3891 61.3173 92.2632Z" fill="#5B2448"/>
<path d="M146.728 98.5934C148.946 97.2124 152.085 97.7134 153.783 99.6943C155.492 101.548 155.683 104.567 154.233 106.629C153.569 107.623 152.572 108.363 151.459 108.785C152.57 112.573 153.724 116.352 154.839 120.141C155.052 120.723 154.528 121.387 153.913 121.323C151.004 121.326 148.094 121.333 145.187 121.319C144.608 121.347 144.13 120.708 144.325 120.164C145.419 116.359 146.639 112.585 147.684 108.768C146.05 108.172 144.716 106.809 144.206 105.141C143.389 102.713 144.511 99.8558 146.728 98.5934Z" fill="#5B2448"/>
<path d="M56.0961 99.5913C56.6944 98.9436 57.5793 98.6914 58.4248 98.5794C60.1799 98.4904 61.9812 99.1611 63.1974 100.44C63.9373 101.302 64.5306 102.708 63.7379 103.718C63.9522 102.887 63.5896 102.04 63.0359 101.429C62.0421 100.323 60.6034 99.6819 59.1466 99.4759C58.11 99.3523 56.9465 99.4363 56.1077 100.127C55.6083 100.536 55.3859 101.213 55.521 101.842C55.4897 101.617 55.4699 101.388 55.4551 101.162C55.5144 100.592 55.6825 100.007 56.0961 99.5913Z" fill="#5B2448"/>
<path d="M60.0323 100.86C60.1048 100.901 60.2482 100.984 60.3191 101.025C60.1988 101.531 59.9466 101.996 59.7752 102.487C60.5415 102.792 61.3375 103.027 62.0874 103.372C62.0989 103.446 62.122 103.591 62.1335 103.665C61.6473 103.639 61.2139 103.403 60.764 103.246C60.2795 103.052 59.7653 102.925 59.3154 102.651C59.5577 102.055 59.7868 101.455 60.0323 100.86Z" fill="#5B2448"/>
<path d="M30.6558 146.106L30.7069 146.113C31.3645 146.21 32.0434 146.223 32.673 146.457C33.8925 146.873 34.9423 147.672 35.8355 148.588C37.5049 150.32 38.7178 152.444 39.583 154.677C38.6898 155.464 37.8576 156.311 36.994 157.128C36.5145 157.606 35.9805 158.025 35.4614 158.46C33.3585 156.993 31.4683 155.182 30.0576 153.033C29.2797 151.812 28.6074 150.452 28.525 148.984C28.4689 148.074 28.7788 147.093 29.5204 146.522C29.878 146.332 30.2949 146.294 30.6558 146.106Z" fill="#5B2448"/>
<path d="M30.5012 162.02C30.6825 161.917 30.8704 161.776 31.0895 161.795C31.8344 163.331 31.401 165.216 32.4376 166.636C33.4923 167.968 34.7844 169.09 35.8424 170.42C36.4142 171.182 37.0619 171.905 37.4788 172.767C35.7254 172.002 33.6785 171.814 31.8559 172.439C31.3812 172.587 31.4834 173.372 31.9729 173.416C32.2481 173.393 32.5167 173.326 32.787 173.273C34.3246 172.93 35.9775 173.161 37.3668 173.902C37.6222 174.067 37.9188 174.067 38.1809 173.916C38.3852 174.326 38.5748 174.746 38.7461 175.173C37.0157 174.298 34.9459 174.094 33.0869 174.659C32.6996 174.715 32.5019 175.226 32.7771 175.517C32.9897 175.786 33.3506 175.641 33.6308 175.595C35.1782 175.198 36.8757 175.369 38.2913 176.117C38.55 176.264 38.8368 176.351 39.1301 176.256C39.3098 176.696 39.4416 177.156 39.5751 177.614C38.0326 176.821 36.1802 176.582 34.5075 177.072C33.9851 177.189 34.0444 178.069 34.5998 178.07C35.7418 177.835 36.9449 177.752 38.0705 178.121C38.6901 178.261 39.1961 178.729 39.8404 178.776C40.2936 180.961 40.3546 183.268 39.758 185.432C39.674 185.593 39.6839 185.939 39.4086 185.897C37.4063 186.083 35.5408 185.036 34.0428 183.807C28.8565 179.408 24.0213 174.618 19.1465 169.881C19.5008 169.466 19.9919 169.211 20.4154 168.878C23.7197 166.508 27.1162 164.272 30.5012 162.02ZM25.1007 165.98C25.5177 166.536 26.2131 166.781 26.8608 166.95C28.0374 167.248 29.3278 166.94 30.4468 167.488C30.961 167.713 31.3664 168.106 31.8213 168.424C32.0833 168.701 32.2777 168.184 32.019 168.062C31.6021 167.701 31.1522 167.373 30.6578 167.127C29.1943 166.378 27.4063 167.03 25.9725 166.178C25.6973 166.045 25.4254 165.662 25.1007 165.98ZM19.6607 169.862C22.1574 172.362 24.6953 174.822 27.2678 177.243C29.5701 179.397 31.8592 181.569 34.2998 183.568C35.7171 184.723 37.4689 185.699 39.3592 185.554C39.4317 185.264 39.5108 184.977 39.6048 184.695C37.9914 184.371 36.3912 183.817 35.081 182.79C33.1347 181.332 31.869 179.183 30.9033 176.992C30.5655 176.165 30.048 175.387 29.2817 174.904C28.5928 174.458 27.8842 173.975 27.4887 173.233C26.8097 172.154 27.0898 170.761 26.4191 169.682C25.6973 168.443 24.3163 167.711 22.9286 167.516C21.8476 168.309 20.7319 169.056 19.6607 169.862Z" fill="#5B2448"/>
<path d="M52.967 164.54C55.9499 163.233 59.3646 163.292 62.4809 164.062C62.3886 164.978 62.2106 165.884 62.1447 166.806C62.1052 167.221 62.0426 167.635 61.9717 168.048C61.881 168.584 61.7888 169.119 61.6915 169.655C61.6454 169.889 61.6025 170.125 61.5597 170.364C61.5514 170.406 61.5333 170.492 61.5251 170.535L61.5547 170.306C58.8405 170.797 56.0274 171.008 53.3032 170.481C52.2551 170.248 51.1608 169.907 50.3846 169.128C49.9017 168.65 49.704 167.934 49.8358 167.272C50.4241 165.958 51.7013 165.12 52.967 164.54Z" fill="#5B2448"/>
<path d="M60.6253 173.883C60.8758 172.875 61.062 171.84 61.4592 170.877C61.4526 171.082 61.4476 171.289 61.4443 171.498C62.7726 171.863 63.5521 173.118 64.7584 173.708C65.566 174.17 66.5152 174.205 67.4216 174.269C68.6461 174.34 69.8738 174.407 71.0934 174.552C72.0228 174.664 72.949 174.827 73.8554 175.063C74.0647 175.121 74.2773 175.121 74.4899 175.063C72.4282 175.577 70.6023 176.976 69.5508 178.819C69.2789 179.17 69.6085 179.737 70.0502 179.659C70.3633 179.638 70.4885 179.3 70.6599 179.091C71.6026 177.611 73.1188 176.523 74.8162 176.087C75.1062 176.039 75.2677 175.795 75.3534 175.536C75.8149 175.701 76.2648 175.892 76.7081 176.105C74.7453 176.665 72.9968 177.995 71.9899 179.776C71.7295 180.132 72.0723 180.678 72.5073 180.599C72.8122 180.571 72.9309 180.241 73.1039 180.037C74.0186 178.623 75.4655 177.555 77.0987 177.13C77.3772 177.074 77.6079 176.906 77.7299 176.645C78.2061 176.831 78.628 177.126 79.0812 177.364C77.3574 177.835 75.7852 178.941 74.8475 180.472C74.5443 180.823 74.8656 181.419 75.3254 181.349C75.6039 181.324 75.7358 181.047 75.8973 180.859C76.6883 179.707 77.8831 178.83 79.2328 178.456C79.5295 178.371 79.8327 178.273 80.0634 178.056C82.069 179.473 83.8505 181.316 84.8871 183.567C83.7681 184.954 81.9916 185.599 80.276 185.839C78.2292 186.1 76.1626 186.103 74.1043 186.144C69.3448 186.195 64.5871 186.115 59.8293 186.007C59.2195 185.981 58.6048 186.014 58 185.928C58.7202 181.881 59.6892 177.884 60.6253 173.883ZM63.6197 176.325C62.822 176.894 62.1711 177.672 61.2663 178.084C60.8527 178.301 60.383 178.349 59.9331 178.446C59.9117 178.552 59.8672 178.763 59.8458 178.868C60.5379 178.842 61.2202 178.646 61.8135 178.285C62.8352 177.711 63.5488 176.696 64.6431 176.238C65.2809 175.961 65.9862 175.958 66.6652 175.879C66.7097 175.836 66.7987 175.752 66.8432 175.709L66.7525 175.493C65.6632 175.432 64.5096 175.665 63.6197 176.325ZM59.2426 181.484C58.9707 182.852 58.646 184.21 58.4351 185.589C61.7574 185.712 65.0815 185.754 68.4055 185.783C72.0228 185.792 75.6468 185.836 79.2592 185.607C81.1445 185.485 83.1221 184.964 84.4784 183.572C84.3532 183.277 84.2081 182.995 84.0499 182.721C82.5338 183.723 80.7819 184.396 78.9609 184.508C76.5647 184.687 74.2147 183.977 72.0327 183.054C71.2071 182.688 70.2957 182.426 69.3893 182.59C68.4664 182.751 67.4842 182.913 66.5861 182.555C65.4045 182.169 64.6678 181.011 63.4598 180.678C62.0244 180.233 60.4555 180.656 59.2426 181.484Z" fill="#5B2448"/>
<path d="M71.1455 38.7992C71.3284 37.9884 71.925 37.3374 72.665 36.988L72.7441 37.3127C72.4128 37.5764 72.0552 37.8302 71.8344 38.201C71.6531 38.4531 71.5229 38.8157 71.1455 38.7992Z" fill="#92397A"/>
<path d="M127.291 151.041C128.635 150.894 129.997 151.011 131.348 150.974C144.751 150.977 158.156 150.969 171.558 150.979C173.038 150.947 174.359 152.274 174.336 153.75C174.339 155.733 174.354 157.719 174.33 159.701C174.29 161.133 172.983 162.374 171.551 162.346C156.996 162.353 142.442 162.351 127.887 162.346C126.388 162.383 125.048 161.028 125.092 159.532C125.091 157.61 125.082 155.687 125.094 153.767C125.073 152.49 126.045 151.3 127.291 151.041ZM127.457 151.362C126.332 151.549 125.43 152.607 125.442 153.752C125.43 155.672 125.437 157.594 125.44 159.515C125.392 160.832 126.567 162.028 127.886 161.999C142.391 162.012 156.897 162 171.401 162.005C172.701 162.089 173.942 161.003 173.983 159.695C174.012 157.935 173.982 156.175 173.997 154.415C173.992 153.879 174.026 153.32 173.797 152.824C173.413 151.887 172.418 151.27 171.409 151.32C160.582 151.318 149.755 151.32 138.927 151.32C135.106 151.348 131.277 151.262 127.457 151.362Z" fill="#76B8F4"/>
<path d="M70.9725 42.4186C71.8871 42.2142 72.8248 42.1483 73.7609 42.1714C73.512 42.4087 72.8825 42.7103 73.2319 43.1157C73.7362 43.3299 74.2899 43.3892 74.8173 43.5326C74.9178 44.968 74.9277 46.4743 75.577 47.796C76.0483 48.8029 76.7207 49.7703 76.7916 50.914C76.874 51.8188 76.2823 52.6757 75.4847 53.0564C73.99 53.8046 72.2266 53.8508 70.6132 53.531C69.5519 53.2328 68.5977 52.6609 67.7292 51.9968C67.454 53.0136 67.8907 54.1029 68.6669 54.7769C69.1465 55.2219 69.7628 55.4641 70.3627 55.6982C70.2671 56.5716 70.249 57.4516 70.2325 58.33L70.2309 58.4322C70.0183 59.6089 69.7497 60.7757 69.3673 61.9095C69.3443 62.0034 69.2981 62.1929 69.275 62.2869C69.3574 62.0314 69.2734 61.8617 69.0245 61.7809C66.5987 60.8548 64.3492 59.454 62.4095 57.7301C61.6431 57.0347 60.9576 56.2453 60.4368 55.3504C61.8063 53.9908 62.8132 52.3165 63.6323 50.5811C63.6652 50.5234 63.7345 50.4081 63.7691 50.3504C64.2206 50.2202 64.9902 50.4872 65.1715 49.9054C64.7397 49.9203 64.308 49.9598 63.8762 49.9681C62.6122 49.7341 61.4207 48.9809 60.7351 47.885C60.1913 47.0363 60.2061 45.8398 60.8867 45.0702C61.4751 44.3253 62.5495 44.0386 63.4213 44.4324C64.4464 44.8675 65.0743 45.8217 65.834 46.5814C66.0334 46.7627 66.3185 47.0148 66.6053 46.8632C66.9464 46.6325 67.1013 46.2271 67.3007 45.8827C67.8611 44.7587 68.6422 43.7238 69.6656 42.9838C69.3574 43.442 68.9586 43.9842 69.1498 44.5659C69.4382 44.8411 69.8271 44.5363 70.0924 44.3665C70.6412 43.9479 71.2889 43.6908 71.8542 43.2953C72.1936 42.7366 71.3433 42.5455 70.9725 42.4186ZM73.1561 44.6566C72.8034 45.4048 73.5994 45.9651 73.9471 46.5303C73.9702 46.8698 73.4939 47.005 73.4231 47.3379C73.8186 47.356 74.1251 46.9835 74.2355 46.6391C74.1976 46.1876 73.7906 45.8992 73.5285 45.5679C74.0114 45.647 74.7398 45.3504 74.692 44.8098C74.219 44.6467 73.6554 44.7868 73.1561 44.6566ZM69.6475 45.4575C69.6277 45.7624 70.0067 45.7953 70.2111 45.8942C70.7451 46.0326 71.34 46.0705 71.8624 45.8612C72.3205 45.708 72.2843 44.9219 71.8608 44.7835C71.1439 45.0735 70.4122 45.3256 69.6475 45.4575ZM61.9464 45.8118C61.8887 46.2667 62.4325 46.0986 62.7111 46.2057C63.6471 46.382 64.191 47.239 64.509 48.0613C64.5799 48.0844 64.7216 48.1272 64.7941 48.1487C64.6524 46.7874 63.3208 45.6585 61.9464 45.8118ZM68.4543 46.7116C67.5595 46.9951 67.2051 48.1965 67.7325 48.9562C68.3406 50.0439 70.2193 49.7308 70.455 48.5063C70.8275 47.3758 69.5371 46.2304 68.4543 46.7116ZM71.6745 47.8998C71.3037 49.1556 73.1544 50.0389 73.9652 49.0732C74.0427 48.6628 73.517 48.9859 73.3291 48.9941C72.5842 49.1919 72.0387 48.5294 71.8591 47.8883L71.6745 47.8998Z" fill="#F4ADA2"/>
<path d="M59.5283 91.4378C59.6272 91.3966 59.825 91.3109 59.9255 91.2681C60.3408 91.6619 60.8418 91.9487 61.3181 92.2635C60.7825 94.3894 59.642 96.2846 58.617 98.2012C58.5692 98.2951 58.4736 98.4863 58.4258 98.5802C57.5804 98.6923 56.6954 98.9445 56.0972 99.5921C55.6835 100.007 55.5154 100.592 55.4561 101.163C54.8134 100.957 54.1806 100.719 53.5312 100.533C56.0428 97.8733 57.7748 94.6168 59.5283 91.4378Z" fill="#F4ADA2"/>
<path d="M65.9916 94.6803C68.8245 95.4351 71.8025 95.0511 74.6304 94.4627C75.1281 94.3952 75.6439 94.3161 76.1433 94.4314C76.5091 94.5336 76.6641 94.9374 76.5932 95.2884C75.8005 96.2541 74.7178 96.8968 73.7009 97.5923C73.0796 98.0059 72.6116 98.8184 72.9742 99.5534C73.6564 100.981 75.1973 101.694 76.0823 102.966C76.2158 103.197 76.1894 103.472 76.2125 103.731C75.5978 104.224 74.7672 104.212 74.0503 103.985C73.0681 103.454 72.198 102.751 71.3031 102.093C71.1696 101.946 71.0032 102.294 71.1746 102.368C71.9887 103.171 72.9808 103.759 73.9514 104.351C73.3944 105.076 72.3397 104.957 71.5849 104.654C70.7378 104.204 69.9995 103.591 69.2464 103.004C69.2118 103.075 69.1393 103.214 69.103 103.284C69.7952 103.955 70.6076 104.474 71.4316 104.965C70.7757 105.455 69.8792 105.292 69.1838 104.979C68.6498 104.651 68.1571 104.258 67.5951 103.977C67.5918 104.649 68.4702 104.797 68.836 105.265C68.3779 105.409 67.8934 105.424 67.4204 105.354C66.041 105.168 64.7161 104.723 63.4042 104.273C63.518 104.089 63.6234 103.901 63.7388 103.72C64.5315 102.709 63.9382 101.304 63.1982 100.442C63.2444 100.358 63.3367 100.193 63.3828 100.109C64.0239 98.9684 64.5512 97.7653 65.0588 96.5606C65.3044 95.9113 65.6472 95.2867 65.7065 94.5847C65.7774 94.6078 65.9191 94.6572 65.9916 94.6803Z" fill="#F4ADA2"/>
<path d="M104.37 99.2539C104.638 99.0594 104.876 99.3247 104.892 99.5934C105.003 100.414 104.833 101.24 104.694 102.047C104.483 102.738 104.243 103.422 103.849 104.031C103.72 104.17 103.702 104.422 103.945 104.435C104.681 103.545 105.052 102.369 105.128 101.227C105.334 100.824 105.563 100.431 105.863 100.093C106.041 99.8966 106.341 99.651 106.57 99.9279C106.87 100.79 106.604 101.721 106.413 102.58C106.206 103.089 105.909 103.554 105.703 104.063C105.767 104.107 105.896 104.198 105.96 104.242C106.398 103.751 106.578 103.099 106.817 102.5C107.397 102.395 107.995 102.375 108.566 102.553C108.587 102.655 108.628 102.858 108.648 102.96C106.504 104.321 104.116 105.437 101.547 105.604C98.3776 105.821 95.1821 105.358 92.1366 104.481C90.4309 104.041 88.7302 103.573 87.0938 102.916C87.3393 102.84 87.5898 102.767 87.8502 102.779C91.0918 102.795 94.3318 102.782 97.5717 102.787C98.3826 102.795 99.1967 102.741 100.004 102.851C99.7751 103.306 98.989 103.326 98.994 103.875C99.9004 103.736 100.471 102.937 100.858 102.177C101.15 101.635 101.364 101.057 101.522 100.464C101.835 100.126 102.267 99.4368 102.786 99.7334C102.979 100.32 102.819 100.948 102.71 101.536C102.407 102.441 102.021 103.326 101.412 104.068C101.453 104.129 101.537 104.249 101.578 104.31C102.628 103.331 102.999 101.858 103.32 100.508C103.613 100.052 103.912 99.5637 104.37 99.2539Z" fill="#F4ADA2"/>
<path d="M35.4619 158.461C35.981 158.026 36.5149 157.607 36.9945 157.129C37.8185 158.121 38.5634 159.186 39.5127 160.072C41.2711 161.767 43.1415 163.42 45.3367 164.522C45.3828 164.562 45.4735 164.642 45.5196 164.682C44.1106 165.545 42.7098 166.422 41.3123 167.302C39.221 164.471 37.1478 161.627 35.0449 158.805C35.1834 158.688 35.3234 158.574 35.4619 158.461Z" fill="#F4ADA2"/>
<path d="M70.2529 166.498C71.512 166.319 72.7562 165.991 73.8867 165.396C73.6049 166.375 73.2901 167.344 73.0215 168.329C69.3382 168.24 65.655 168.13 61.9717 168.049C62.0425 167.635 62.1052 167.222 62.1447 166.806C64.8491 166.905 67.5699 166.886 70.2529 166.498Z" fill="#F4ADA2"/>
<path d="M68.4538 46.7114C69.5365 46.2302 70.8269 47.3756 70.4544 48.5061C70.2188 49.7306 68.3401 50.0437 67.7319 48.956C67.2046 48.1963 67.5589 46.9949 68.4538 46.7114Z" fill="#EC8E91"/>
<path d="M40.3218 57.607C44.6511 55.6129 49.4352 54.3967 54.2243 54.6966C55.9333 54.8532 57.756 55.107 59.1667 56.1617C60.0088 57.8047 59.6644 59.7527 59.1205 61.4336C58.1762 64.1841 56.5216 66.6298 54.7072 68.8777C51.103 73.2498 46.6979 76.8869 42.0753 80.1302C41.6303 80.5307 41.0502 80.1961 40.5426 80.1549C38.7364 79.9275 36.9055 79.8418 35.0894 79.9572C34.8719 79.9473 34.74 80.056 34.6955 80.2835C36.5429 80.267 38.4002 80.1862 40.2344 80.4549C40.8838 80.5521 41.5644 80.6114 42.1379 80.9624C46.543 83.6058 50.9283 86.2822 55.3499 88.8976C53.6887 91.241 51.8528 93.4576 50.0483 95.6923C49.1172 96.8524 48.0855 97.9286 47.1791 99.1086C45.2246 98.6521 43.2684 98.2005 41.3353 97.6649C36.8511 96.4124 32.39 94.86 28.4315 92.3682C26.0204 90.8422 23.8121 88.9025 22.3009 86.4585C20.7732 84.0475 20.2145 81.0712 20.6925 78.263C21.2627 74.7528 23.1579 71.6084 25.4272 68.9304C27.4196 66.5836 29.7383 64.5335 32.1823 62.6713C34.7334 60.7415 37.4081 58.9452 40.3218 57.607Z" fill="#5D5FEF"/>
<path d="M59.4805 56.01C59.8117 55.8106 60.1298 55.5864 60.4363 55.3491C60.9571 56.244 61.6426 57.0334 62.409 57.7288C64.3487 59.4526 66.5982 60.8534 69.024 61.7796C68.7538 63.1953 68.5511 64.6455 67.9743 65.9787C67.76 66.4418 67.5029 66.9412 67.0333 67.19C66.6081 67.3977 66.1763 67.0631 65.8648 66.8011C64.8744 65.893 64.1624 64.7361 63.4489 63.6122C61.9755 61.1633 60.6242 58.6303 59.4805 56.01Z" fill="#5D5FEF"/>
<path d="M60.0679 58.1689C61.5165 60.9178 62.8827 63.7491 64.8208 66.198C65.3498 66.7814 65.9068 67.5296 66.7539 67.6037C67.741 67.5065 68.1201 66.432 68.5189 65.6756C68.481 66.1436 68.5387 66.8242 69.0561 67.0055C70.1158 67.1934 71.271 67.0352 72.1972 66.4699C72.3966 66.2623 72.6142 66.0431 72.6669 65.7481C72.8762 64.7626 72.6174 63.7557 72.3702 62.8015C71.9681 61.2688 71.2776 59.84 70.6514 58.3914C72.9553 58.5826 75.0829 59.7939 76.6501 61.4584C78.6508 63.5727 79.9263 66.2606 80.8459 68.9947C81.9303 72.2593 82.5302 75.6707 82.8186 79.0953C83.0196 81.6513 83.0707 84.2337 82.7559 86.7832C81.7886 87.065 80.864 87.5231 80.0664 88.1395C79.8769 88.2038 80.0367 88.619 80.2213 88.4345C81.1079 87.8972 82.0193 87.3962 82.9966 87.032C84.7385 88.9289 86.7342 90.5752 88.6739 92.2644C89.8786 93.2911 91.1031 94.2964 92.3358 95.2901C87.0885 95.3 81.8397 95.3066 76.5924 95.2869C76.6633 94.9358 76.5084 94.5321 76.1425 94.4299C75.6432 94.3145 75.1274 94.3936 74.6297 94.4612C75.4504 90.8356 75.5871 87.0897 75.4586 83.3866C75.2971 79.4529 74.8192 75.5224 73.8749 71.6974C73.4464 70.0593 72.9767 68.4113 72.1956 66.9017C71.1985 67.3846 70.0614 67.523 68.9704 67.3697C70.4174 76.526 69.1599 86.0053 65.9908 94.6787C65.9183 94.6557 65.7766 94.6062 65.7057 94.5832C64.1813 93.9338 62.7278 93.1263 61.3171 92.2628C60.8408 91.948 60.3398 91.6613 59.9246 91.2674C59.5851 90.7318 58.9786 90.4978 58.4677 90.1698C53.1035 86.9381 47.7359 83.7097 42.375 80.473C47.7261 76.7007 52.8546 72.4307 56.6763 67.0649C58.4727 64.4363 60.1355 61.4485 60.0679 58.1689Z" fill="#5D5FEF"/>
<path d="M70.2298 58.4316C70.8576 59.5358 71.3191 60.724 71.741 61.9188C72.0459 62.9884 72.4826 64.0925 72.2865 65.2214C71.8151 63.7679 70.6582 62.6604 69.3662 61.9089C69.7485 60.7751 70.0172 59.6083 70.2298 58.4316Z" fill="#5D5FEF"/>
<path d="M49.3989 97.0118C51.571 94.441 53.6359 91.7811 55.691 89.1179C56.9649 89.8991 58.2602 90.6456 59.5275 91.4367C57.7741 94.6156 56.042 97.8721 53.5305 100.532C51.5545 100.041 49.5588 99.6355 47.5713 99.1954C48.1349 98.4291 48.8073 97.7551 49.3989 97.0118ZM56.2118 92.4716C55.8574 92.6776 55.775 93.2989 56.2035 93.4719C56.5183 93.6598 56.9896 93.4917 57.0325 93.1028C57.1775 92.638 56.6172 92.2574 56.2118 92.4716Z" fill="#66B0F0"/>
<path d="M33.3525 160.117C33.9178 159.682 34.4831 159.244 35.045 158.804C37.1479 161.625 39.2211 164.47 41.3124 167.301C40.6762 167.705 40.0203 168.072 39.3727 168.458C37.372 165.674 35.3582 162.899 33.3525 160.117Z" fill="#66B0F0"/>
<path d="M31.0908 161.795C31.6577 161.377 32.2296 160.965 32.7949 160.544C34.7823 163.3 36.7682 166.057 38.7573 168.811C37.7899 169.353 36.8226 169.897 35.8437 170.421C34.7856 169.091 33.4936 167.969 32.4389 166.637C31.4023 165.217 31.8357 163.331 31.0908 161.795Z" fill="#66B0F0"/>
<path d="M61.9716 168.048C65.6548 168.129 69.3381 168.239 73.0214 168.328C72.8863 168.841 72.733 169.35 72.588 169.863C68.9558 169.812 65.3236 169.693 61.6914 169.655C61.7886 169.12 61.8809 168.584 61.9716 168.048Z" fill="#66B0F0"/>
<path d="M61.5597 170.364C65.1622 170.441 68.7664 170.5 72.3706 170.588C71.9553 171.913 71.54 173.238 71.0934 174.553C69.8739 174.408 68.6461 174.34 67.4216 174.269C66.5152 174.205 65.566 174.17 64.7585 173.709C63.5521 173.119 62.7726 171.863 61.4443 171.499C61.4476 171.29 61.4526 171.082 61.4592 170.878C61.4756 170.792 61.5086 170.621 61.5251 170.535C61.5333 170.492 61.5515 170.406 61.5597 170.364Z" fill="#66B0F0"/>
<path d="M59.1665 56.1624C59.2456 56.1245 59.4021 56.0486 59.4796 56.0107C60.6233 58.6311 61.9747 61.164 63.448 63.613C64.1616 64.7369 64.8735 65.8938 65.8639 66.8018C66.1754 67.0639 66.6072 67.3984 67.0324 67.1908C67.5021 66.9419 67.7591 66.4426 67.9734 65.9795C68.5502 64.6463 68.7529 63.196 69.0232 61.7804C69.272 61.8611 69.3561 62.0309 69.2737 62.2863C69.0298 63.4185 68.8402 64.5639 68.5189 65.6763C68.1201 66.4327 67.741 67.5072 66.7539 67.6044C65.9068 67.5303 65.3498 66.7821 64.8208 66.1987C62.8827 63.7498 61.5165 60.9185 60.0679 58.1696C60.1355 61.4491 58.4727 64.437 56.6763 67.0655C52.8546 72.4314 47.7261 76.7014 42.375 80.4737C47.7359 83.7103 53.1035 86.9388 58.4677 90.1705C58.9786 90.4984 59.5851 90.7325 59.9245 91.2681C59.824 91.3109 59.6263 91.3966 59.5274 91.4378C58.2601 90.6468 56.9647 89.9002 55.6908 89.1191C53.6358 91.7822 51.5708 94.4421 49.3988 97.013C48.8071 97.7562 48.1348 98.4303 47.5711 99.1966C47.4723 99.1752 47.2761 99.1307 47.1789 99.1092C48.0853 97.9293 49.117 96.8531 50.0481 95.6929C51.8526 93.4582 53.6885 91.2417 55.3497 88.8982C50.9281 86.2829 46.5428 83.6065 42.1377 80.9631C41.5642 80.6121 40.8836 80.5528 40.2342 80.4555C38.4 80.1869 36.5427 80.2677 34.6953 80.2841C34.7398 80.0567 34.8716 79.9479 35.0892 79.9578C36.9053 79.8425 38.7362 79.9282 40.5424 80.1556C41.05 80.1968 41.6301 80.5313 42.0751 80.1309C46.6977 76.8876 51.1028 73.2505 54.707 68.8783C56.5214 66.6305 58.176 64.1848 59.1203 61.4343C59.6642 59.7534 60.0086 57.8054 59.1665 56.1624Z" fill="#B0DCF7"/>
<path d="M56.2117 92.4724C56.6171 92.2581 57.1775 92.6388 57.0324 93.1036C56.9896 93.4925 56.5183 93.6606 56.2035 93.4727C55.775 93.2997 55.8574 92.6784 56.2117 92.4724Z" fill="#B0DCF7"/>
<path d="M70.2311 58.3296C70.3317 58.3345 70.5344 58.3461 70.6349 58.3527L70.6514 58.3922C71.2776 59.8408 71.9681 61.2696 72.3702 62.8023C72.6174 63.7565 72.8762 64.7634 72.6669 65.7489C72.6141 66.0439 72.3966 66.2631 72.1972 66.4707C72.2368 66.0554 72.2631 65.6385 72.2862 65.2215C72.4823 64.0926 72.0456 62.9885 71.7407 61.9189C71.3188 60.7241 70.8574 59.5359 70.2295 58.4318L70.2311 58.3296Z" fill="#A6D6F6"/>
<path d="M80.0667 88.1395C80.8643 87.5232 81.7889 87.065 82.7562 86.7832L82.9968 87.0321C82.0196 87.3963 81.1082 87.8973 80.2216 88.4345C80.037 88.6191 79.8772 88.2038 80.0667 88.1395Z" fill="#A6D6F6"/>
<path d="M69.3672 61.9089C70.6592 62.6604 71.8161 63.7679 72.2875 65.2214C72.2644 65.6384 72.238 66.0553 72.1985 66.4706C71.2723 67.0359 70.117 67.1941 69.0574 67.0062C68.5399 66.8249 68.4822 66.1443 68.5201 65.6763C68.8415 64.5639 69.031 63.4185 69.2749 62.2863C69.298 62.1924 69.3441 62.0029 69.3672 61.9089Z" fill="#F94F46"/>
<path d="M68.9718 67.3701C70.0628 67.5234 71.1999 67.385 72.1969 66.9021C72.9781 68.4117 73.4477 70.0597 73.8762 71.6978C74.8205 75.5228 75.2984 79.4533 75.4599 83.387C75.5885 87.0901 75.4517 90.836 74.631 94.4616C71.803 95.0499 68.8251 95.4339 65.9922 94.6791C69.1613 86.0057 70.4187 76.5264 68.9718 67.3701Z" fill="#F94F46"/>
<path d="M146.195 67.5421C149.026 66.9653 152.002 67.1499 154.748 68.0431C157.192 68.8358 159.392 70.3486 161.005 72.3493C162.846 74.6054 163.922 77.4087 164.395 80.263C164.809 82.5372 164.628 84.8543 164.669 87.1516C162.94 87.1533 161.21 87.1516 159.481 87.1516C159.461 85.6404 159.512 84.1292 159.454 82.6196C159.244 79.8609 158.385 77 156.389 74.996C154.632 73.2194 152.086 72.4581 149.637 72.4235C147.131 72.4103 144.502 73.1403 142.684 74.94C140.661 76.9258 139.777 79.7933 139.571 82.5603C139.527 84.0896 139.556 85.6206 139.548 87.1516C137.81 87.1516 136.071 87.1533 134.334 87.1516C134.385 84.851 134.199 82.5306 134.617 80.2548C135.156 76.9983 136.499 73.7979 138.84 71.4231C140.799 69.3895 143.431 68.0678 146.195 67.5421Z" fill="#FFCF2D"/>
<path d="M16.6569 101.188C15.9185 95.7398 18.1153 90.0213 22.3013 86.46C23.8125 88.9039 26.0208 90.8436 28.4318 92.3697C26.6899 93.6337 25.4374 95.5701 25.093 97.7026C24.7057 99.9142 25.2742 102.273 26.6404 104.056C28.178 106.116 30.7242 107.373 33.2967 107.325C35.7737 107.319 38.2012 106.107 39.7091 104.146C41.1395 102.34 41.7065 99.9291 41.3357 97.6664C43.2688 98.202 45.2249 98.6535 47.1795 99.11C47.2767 99.1314 47.4728 99.1759 47.5717 99.1973C49.5592 99.6374 51.5549 100.043 53.5309 100.534C54.1802 100.72 54.813 100.957 55.4557 101.163C55.4706 101.389 55.4903 101.618 55.5216 101.844C55.6156 102.253 55.8282 102.622 56.0589 102.97C53.8555 102.968 51.6521 102.966 49.4488 102.97C48.755 105.824 47.3113 108.494 45.2744 110.615C43.3067 112.681 40.7984 114.232 38.066 115.059C34.1899 116.248 29.8821 115.951 26.2054 114.24C21.0653 111.905 17.3095 106.803 16.6569 101.188Z" fill="#FFCF2D"/>
<path d="M73.7013 97.5916C74.7181 96.8962 75.8009 96.2534 76.5936 95.2877C81.8408 95.3075 87.0897 95.3009 92.3369 95.291C97.7753 95.3075 103.212 95.2943 108.65 95.2993C110.968 95.2976 113.285 95.2976 115.602 95.2976C118.779 95.2993 121.955 95.2993 125.13 95.2993C129.626 95.3091 134.12 95.2844 138.616 95.291C139.079 95.2383 139.554 95.5992 139.555 96.0821C139.583 97.1269 139.57 98.175 139.562 99.2231C139.593 99.6648 139.221 100.088 138.769 100.072C137.996 100.108 137.223 100.074 136.452 100.078C136.419 103.966 136.454 107.854 136.436 111.743C136.479 112.198 136.114 112.653 135.64 112.631C134.321 112.649 133.001 112.648 131.685 112.633C131.202 112.663 130.816 112.204 130.867 111.738C130.849 109.098 130.879 106.458 130.856 103.818C130.885 103.432 130.608 103.03 130.211 102.994C129.603 102.943 128.987 102.943 128.379 102.992C127.977 103.023 127.691 103.43 127.723 103.819C127.701 106.46 127.728 109.1 127.713 111.74C127.744 112.139 127.477 112.574 127.057 112.615C126.467 112.677 125.872 112.63 125.282 112.641C124.448 112.62 123.613 112.686 122.782 112.613C122.37 112.557 122.111 112.135 122.143 111.741C122.126 109.1 122.154 106.456 122.133 103.816C122.176 103.351 121.769 102.934 121.304 102.976C119.404 102.953 117.502 102.976 115.602 102.967C113.285 102.962 110.966 102.977 108.649 102.959C108.629 102.857 108.588 102.654 108.566 102.552C107.996 102.374 107.398 102.394 106.818 102.499C106.717 102.519 106.515 102.559 106.414 102.578C106.605 101.72 106.871 100.789 106.571 99.9268C106.342 99.65 106.042 99.8955 105.864 100.092C105.564 100.429 105.335 100.823 105.129 101.225C104.979 101.496 104.825 101.766 104.695 102.046C104.834 101.239 105.003 100.413 104.893 99.5923C104.877 99.3237 104.639 99.0583 104.371 99.2528C103.912 99.5626 103.614 100.05 103.321 100.507C103.108 100.845 102.887 101.178 102.711 101.535C102.82 100.947 102.98 100.319 102.787 99.7324C102.268 99.4357 101.836 100.125 101.523 100.462C100.935 101.204 100.6 102.112 100.005 102.85C99.1975 102.74 98.3834 102.794 97.5726 102.786C94.3326 102.781 91.0927 102.794 87.851 102.778C87.5907 102.766 87.3402 102.839 87.0946 102.915C86.8046 103.009 86.4947 102.959 86.1965 102.969C82.8263 102.964 79.4545 102.971 76.0827 102.966C75.1977 101.693 73.6568 100.98 72.9745 99.5527C72.612 98.8177 73.08 98.0053 73.7013 97.5916Z" fill="#FFCF2D"/>
<path d="M132.019 153.741C132.333 153.743 132.65 153.744 132.966 153.753C132.956 154.258 132.958 154.768 132.978 155.277C133.373 154.99 133.657 154.586 134.031 154.28C134.337 154.339 134.495 154.694 134.716 154.9C134.37 155.28 133.983 155.623 133.653 156.02C134.163 156.012 134.672 156.005 135.181 156.014C135.178 156.325 135.178 156.638 135.181 156.953C134.673 156.961 134.168 156.955 133.662 156.945C134.003 157.33 134.372 157.691 134.736 158.059C134.519 158.294 134.294 158.528 134.034 158.718C133.704 158.35 133.367 157.988 132.984 157.676C132.953 158.176 132.958 158.677 132.966 159.179C132.65 159.178 132.333 159.179 132.02 159.184C132.023 158.677 132.015 158.169 132.009 157.663C131.626 157.981 131.28 158.339 130.952 158.713C130.682 158.533 130.456 158.296 130.237 158.062C130.605 157.693 130.974 157.327 131.335 156.951C130.809 156.953 130.283 156.958 129.759 156.958C129.756 156.64 129.756 156.323 129.761 156.009C130.288 156.01 130.817 156.012 131.346 156.014C130.984 155.631 130.608 155.262 130.234 154.891C130.453 154.672 130.67 154.453 130.885 154.23C131.28 154.558 131.593 154.975 132.01 155.28C132.017 154.766 132.022 154.253 132.019 153.741Z" fill="#FFCF2D"/>
<path d="M140.593 153.741C140.909 153.74 141.226 153.746 141.545 153.759C141.532 154.265 141.534 154.771 141.549 155.279C141.946 154.995 142.229 154.59 142.605 154.282C142.913 154.346 143.076 154.702 143.31 154.901C142.94 155.266 142.564 155.625 142.226 156.02C142.735 156.011 143.246 156.007 143.757 156.015C143.754 156.327 143.754 156.638 143.757 156.953C143.248 156.956 142.74 156.956 142.233 156.952C142.582 157.331 142.948 157.693 143.314 158.061C143.095 158.295 142.869 158.527 142.612 158.718C142.272 158.356 141.946 157.975 141.549 157.677C141.536 158.176 141.532 158.675 141.542 159.178C141.224 159.176 140.908 159.18 140.595 159.185C140.599 158.677 140.591 158.173 140.583 157.668C140.171 157.983 139.86 158.408 139.444 158.718C139.24 158.491 139.026 158.272 138.811 158.059C139.181 157.693 139.551 157.327 139.907 156.948C139.383 156.953 138.859 156.96 138.337 156.958C138.33 156.64 138.33 156.324 138.338 156.009C138.862 156.007 139.39 156.014 139.916 156.017C139.561 155.628 139.181 155.262 138.81 154.89C139.027 154.674 139.243 154.455 139.454 154.232C139.855 154.559 140.176 154.967 140.581 155.292C140.593 154.775 140.599 154.257 140.593 153.741Z" fill="#FFCF2D"/>
<path d="M149.166 153.749C149.48 153.742 149.797 153.742 150.115 153.744C150.107 154.255 150.108 154.767 150.13 155.28C150.54 154.967 150.843 154.54 151.26 154.234C151.463 154.459 151.674 154.677 151.89 154.894C151.517 155.262 151.143 155.628 150.796 156.018C151.306 156.01 151.819 156.007 152.333 156.013C152.33 156.325 152.33 156.636 152.335 156.951C151.824 156.958 151.313 156.958 150.805 156.949C151.156 157.328 151.521 157.693 151.89 158.057C151.669 158.293 151.445 158.527 151.184 158.719C150.852 158.345 150.509 157.981 150.125 157.663C150.112 158.167 150.108 158.673 150.117 159.179C149.798 159.178 149.482 159.178 149.167 159.181C149.172 158.677 149.169 158.172 149.157 157.671C148.768 157.979 148.429 158.342 148.103 158.714C147.832 158.535 147.605 158.301 147.389 158.065C147.758 157.698 148.124 157.328 148.483 156.953C147.956 156.956 147.43 156.956 146.906 156.954C146.906 156.638 146.906 156.325 146.906 156.012C147.434 156.007 147.963 156.012 148.493 156.017C148.137 155.629 147.762 155.264 147.387 154.896C147.607 154.657 147.826 154.413 148.103 154.24C148.432 154.608 148.764 154.98 149.161 155.283C149.169 154.771 149.172 154.26 149.166 153.749Z" fill="#FFCF2D"/>
<path d="M157.742 153.748C158.057 153.743 158.375 153.743 158.693 153.75C158.681 154.259 158.686 154.768 158.703 155.279C159.092 154.971 159.426 154.6 159.761 154.236C160.023 154.424 160.245 154.658 160.464 154.895C160.094 155.264 159.718 155.628 159.37 156.019C159.883 156.009 160.395 156.007 160.909 156.017C160.906 156.327 160.906 156.639 160.909 156.953C160.397 156.955 159.886 156.958 159.375 156.953C159.733 157.326 160.097 157.693 160.464 158.057C160.242 158.293 160.021 158.534 159.751 158.715C159.423 158.346 159.093 157.973 158.698 157.677C158.686 158.176 158.684 158.677 158.691 159.18C158.375 159.178 158.058 159.178 157.745 159.183C157.75 158.679 157.743 158.178 157.732 157.677C157.336 157.982 157.002 158.354 156.664 158.72C156.405 158.527 156.176 158.3 155.965 158.059C156.338 157.698 156.704 157.334 157.05 156.948C156.526 156.955 156.003 156.96 155.482 156.957C155.482 156.639 155.482 156.325 155.484 156.012C156.01 156.007 156.535 156.012 157.063 156.017C156.713 155.625 156.333 155.262 155.962 154.893C156.181 154.658 156.404 154.42 156.671 154.237C157.005 154.603 157.335 154.977 157.732 155.279C157.745 154.768 157.75 154.257 157.742 153.748Z" fill="#FFCF2D"/>
<path d="M166.314 153.759C166.628 153.745 166.947 153.74 167.266 153.741C167.258 154.259 167.263 154.776 167.281 155.295C167.67 154.957 168.003 154.564 168.398 154.231C168.608 154.453 168.822 154.672 169.041 154.893C168.669 155.262 168.298 155.635 167.937 156.016C168.453 156.009 168.969 156.009 169.486 156.014C169.481 156.327 169.481 156.64 169.484 156.955C168.97 156.953 168.459 156.958 167.949 156.958C168.309 157.326 168.674 157.692 169.04 158.057C168.817 158.29 168.601 158.537 168.328 158.713C168 158.341 167.658 157.982 167.278 157.665C167.265 158.169 167.258 158.677 167.266 159.183C166.948 159.178 166.632 159.178 166.317 159.178C166.325 158.675 166.329 158.173 166.301 157.673C165.92 157.99 165.574 158.347 165.246 158.718C164.98 158.534 164.758 158.298 164.54 158.066C164.91 157.7 165.279 157.334 165.63 156.952C165.106 156.955 164.582 156.958 164.058 156.955C164.058 156.638 164.059 156.325 164.059 156.012C164.585 156.007 165.111 156.012 165.638 156.017C165.29 155.625 164.913 155.264 164.542 154.9C164.751 154.654 164.98 154.428 165.239 154.234C165.579 154.602 165.915 154.974 166.309 155.287C166.322 154.776 166.327 154.269 166.314 153.759Z" fill="#FFCF2D"/>
<path d="M31.8565 172.441C33.6792 171.816 35.726 172.004 37.4795 172.769C37.931 172.95 38.5902 173.349 38.1815 173.918C37.9195 174.069 37.6228 174.069 37.3674 173.904C35.9781 173.163 34.3252 172.932 32.7876 173.275C32.5173 173.328 32.2487 173.395 31.9735 173.418C31.484 173.374 31.3819 172.589 31.8565 172.441Z" fill="#FFCF2D"/>
<path d="M33.0874 174.661C34.9464 174.095 37.0163 174.3 38.7467 175.175C39.2147 175.307 39.5542 175.86 39.1307 176.258C38.8373 176.353 38.5506 176.266 38.2918 176.119C36.8762 175.371 35.1788 175.2 33.6313 175.597C33.3511 175.643 32.9902 175.788 32.7776 175.519C32.5024 175.228 32.7002 174.717 33.0874 174.661Z" fill="#FFCF2D"/>
<path d="M74.49 175.064C74.8674 174.875 75.2761 175.147 75.3536 175.537C75.2679 175.796 75.1064 176.04 74.8163 176.088C73.1189 176.524 71.6027 177.612 70.6601 179.092C70.4887 179.301 70.3634 179.639 70.0503 179.66C69.6086 179.738 69.279 179.171 69.551 178.82C70.6024 176.978 72.4284 175.578 74.49 175.064Z" fill="#FFCF2D"/>
<path d="M76.708 176.106C77.1463 175.873 77.7445 176.093 77.7297 176.646C77.6078 176.907 77.377 177.075 77.0985 177.131C75.4654 177.556 74.0184 178.624 73.1038 180.038C72.9307 180.242 72.8121 180.572 72.5072 180.6C72.0721 180.679 71.7293 180.133 71.9897 179.777C72.9967 177.996 74.7452 176.666 76.708 176.106Z" fill="#FFCF2D"/>
<path d="M34.5075 177.072C36.1802 176.583 38.0326 176.822 39.5751 177.615C39.8058 177.741 40.1189 177.865 40.1618 178.165C40.2244 178.422 40.025 178.628 39.8404 178.776C39.196 178.73 38.6901 178.262 38.0705 178.122C36.9449 177.753 35.7418 177.835 34.5998 178.071C34.0444 178.069 33.9851 177.189 34.5075 177.072Z" fill="#FFCF2D"/>
<path d="M79.0818 177.365C79.5745 177.068 80.2634 177.457 80.064 178.057C79.8333 178.274 79.5301 178.372 79.2334 178.457C77.8837 178.831 76.6889 179.708 75.8979 180.86C75.7364 181.048 75.6045 181.325 75.326 181.35C74.8662 181.42 74.5449 180.824 74.8481 180.473C75.7858 178.942 77.358 177.836 79.0818 177.365Z" fill="#FFCF2D"/>
<path d="M128.137 89.0888C129.835 87.632 132.121 87.0123 134.334 87.1507C136.071 87.1524 137.81 87.1507 139.548 87.1507C146.193 87.1507 152.836 87.1507 159.481 87.1507C161.21 87.1507 162.94 87.1524 164.669 87.1507C166.607 87.0453 168.617 87.3996 170.247 88.5054C172.554 89.9902 174.031 92.6699 174.034 95.4171C174.036 100.419 174.046 105.419 174.029 110.419C173.934 117.08 170.939 123.619 165.984 128.066C161.404 132.25 155.181 134.562 148.978 134.377C142.429 134.254 136.008 131.319 131.598 126.48C128.093 122.693 125.848 117.769 125.281 112.64C125.871 112.629 126.466 112.677 127.056 112.614C127.477 112.573 127.744 112.138 127.712 111.739C127.727 109.099 127.701 106.459 127.722 103.819C127.691 103.43 127.976 103.023 128.378 102.991C128.986 102.942 129.603 102.942 130.211 102.993C130.608 103.029 130.885 103.431 130.855 103.817C130.878 106.457 130.848 109.097 130.867 111.737C130.815 112.204 131.201 112.662 131.684 112.632C133.001 112.647 134.321 112.649 135.639 112.63C136.114 112.652 136.478 112.197 136.435 111.742C136.453 107.853 136.419 103.965 136.452 100.078C137.223 100.073 137.996 100.107 138.769 100.071C139.22 100.088 139.593 99.664 139.561 99.2223C139.57 98.1742 139.583 97.1261 139.555 96.0812C139.553 95.5984 139.079 95.2375 138.615 95.2902C134.12 95.2836 129.626 95.3083 125.13 95.2984C125.189 92.9237 126.303 90.6016 128.137 89.0888ZM146.729 98.5928C144.512 99.8552 143.39 102.713 144.207 105.14C144.716 106.808 146.051 108.171 147.684 108.768C146.64 112.584 145.42 116.358 144.326 120.163C144.131 120.707 144.609 121.347 145.188 121.319C148.095 121.332 151.005 121.325 153.914 121.322C154.529 121.386 155.053 120.722 154.84 120.14C153.724 116.352 152.571 112.573 151.46 108.784C152.572 108.362 153.569 107.622 154.234 106.628C155.684 104.567 155.493 101.548 153.784 99.6937C152.086 97.7128 148.947 97.2118 146.729 98.5928Z" fill="#21A0AA"/>
<path d="M49.4491 102.968C51.6524 102.965 53.8558 102.967 56.0592 102.968C57.1732 104.333 58.9218 105.094 60.6621 105.191C61.636 105.228 62.7286 105.038 63.4043 104.272C64.7161 104.722 66.0411 105.167 67.4205 105.353C67.8935 105.422 68.378 105.407 68.8361 105.264C68.9548 105.172 69.0701 105.076 69.1839 104.977C69.8793 105.29 70.7758 105.453 71.4317 104.964C71.4696 104.886 71.5471 104.73 71.585 104.652C72.3398 104.956 73.3945 105.074 73.9515 104.349C73.9763 104.257 74.0257 104.076 74.0504 103.983C74.7673 104.211 75.5979 104.222 76.2126 103.73C77.7765 110.62 79.324 117.538 80.0261 124.582C80.532 129.509 80.6572 134.486 80.2139 139.424C79.7657 144.087 78.9582 148.715 77.854 153.267C76.8256 157.385 75.6012 161.474 73.879 165.36C71.997 165.81 70.0408 165.698 68.1522 165.357C66.2389 165.029 64.3618 164.534 62.4814 164.061C59.3651 163.292 55.9504 163.232 52.9675 164.539C51.7019 165.119 50.4247 165.958 49.8363 167.272C50.306 165.441 51.3261 163.814 52.3627 162.255C53.2131 160.993 54.1739 159.811 55.1248 158.624C55.3374 158.381 55.4906 158.066 55.7757 157.899C55.9603 157.837 56.1317 157.749 56.2899 157.639C59.7524 154.386 62.9165 150.726 65.0589 146.457C66.6987 143.245 67.7501 139.768 68.5016 136.251C69.8876 129.699 69.5299 122.93 68.6647 116.335C68.2857 113.153 67.7831 109.977 67.7073 106.768C67.6282 106.767 67.4716 106.765 67.3941 106.764C67.3315 107.869 67.4436 108.977 67.5457 110.078C67.994 114.425 68.7125 118.743 68.963 123.108C69.1822 127.284 69.08 131.507 68.2511 135.617C67.2656 140.524 65.7577 145.427 62.9215 149.607C61.0856 152.408 58.7372 154.813 56.3904 157.181C52.9527 159.94 49.2645 162.362 45.5202 164.681C45.4741 164.641 45.3834 164.561 45.3373 164.521C44.1442 162.98 42.9411 161.438 41.9638 159.747C40.9998 158.143 40.2746 156.413 39.5841 154.678C38.7189 152.444 37.506 150.32 35.8366 148.588C34.9434 147.672 33.8936 146.873 32.6741 146.457C32.0445 146.223 31.3656 146.21 30.708 146.113C34.0914 145.014 37.4038 143.646 40.4427 141.782C42.9461 140.239 45.3208 138.364 46.9787 135.907C47.1682 135.74 47.3742 135.587 47.5242 135.381C49.0931 133.191 50.3373 130.778 51.3162 128.272C51.5255 127.751 51.7777 127.23 51.7909 126.658C51.5453 126.709 51.3822 126.879 51.3245 127.118C50.7856 128.664 50.1429 130.173 49.3996 131.632C49.0206 132.352 48.658 133.087 48.1455 133.725C49.1392 131.075 49.3304 128.184 48.9118 125.397C48.1801 120.36 46.3096 115.585 45.2747 110.613C47.3116 108.492 48.7553 105.823 49.4491 102.968Z" fill="#21A0AA"/>
<path d="M106.413 102.579C106.514 102.559 106.717 102.52 106.817 102.5C106.578 103.098 106.399 103.751 105.96 104.242C105.896 104.197 105.767 104.107 105.703 104.062C105.909 103.553 106.206 103.088 106.413 102.579Z" fill="#A94E85"/>
<path d="M67.3938 106.765C67.4712 106.767 67.6278 106.768 67.7069 106.77C67.7827 109.978 68.2854 113.154 68.6644 116.336C69.5296 122.932 69.8872 129.7 68.5012 136.253C67.7498 139.769 66.6983 143.247 65.0586 146.459C62.9162 150.727 59.752 154.387 56.2896 157.64C56.1314 157.751 55.96 157.838 55.7754 157.901C55.9649 157.649 56.1742 157.413 56.3901 157.182C58.7368 154.814 61.0852 152.41 62.9211 149.608C65.7573 145.429 67.2652 140.526 68.2507 135.618C69.0797 131.508 69.1819 127.286 68.9627 123.11C68.7122 118.744 67.9937 114.426 67.5454 110.079C67.4432 108.978 67.3312 107.871 67.3938 106.765Z" fill="#63D8D6"/>
<path opacity="0.98" d="M51.3243 127.119C51.382 126.88 51.5451 126.71 51.7907 126.659C51.7775 127.231 51.5253 127.752 51.3161 128.273C50.3371 130.779 49.0929 133.192 47.524 135.382C47.374 135.588 47.168 135.741 46.9785 135.908C47.3839 135.189 47.7547 134.453 48.1453 133.726C48.6578 133.088 49.0204 132.353 49.3994 131.633C50.1427 130.174 50.7854 128.665 51.3243 127.119Z" fill="#5DD0CE"/>
<path d="M22.6637 169.193C23.3015 169.036 23.9524 169.318 24.4666 169.684C25.0945 170.144 25.6367 170.793 25.7949 171.572C25.8987 172.03 25.7257 172.578 25.2791 172.787C24.6792 173.059 23.9936 172.812 23.4679 172.485C22.7428 172.009 22.1034 171.291 21.9534 170.414C21.8413 169.901 22.1347 169.316 22.6637 169.193ZM22.6076 169.583C22.2731 169.753 22.2319 170.186 22.3291 170.511C22.5533 171.277 23.135 171.909 23.8255 172.289C24.221 172.49 24.7105 172.663 25.1406 172.467C25.5312 172.269 25.518 171.745 25.3812 171.394C25.106 170.641 24.5012 170.027 23.7843 169.684C23.4218 169.524 22.985 169.397 22.6076 169.583Z" fill="#6D2A53"/>
<path d="M61.4858 182.135C62.3527 181.921 63.3233 181.972 64.1111 182.423C64.5165 182.656 64.8774 183.084 64.8214 183.582C64.7637 184.091 64.3319 184.455 63.8919 184.658C62.9624 185.063 61.8467 185.058 60.9304 184.622C60.4294 184.386 59.9565 183.867 60.0932 183.275C60.2547 182.641 60.8991 182.295 61.4858 182.135ZM61.6572 182.471C61.1991 182.593 60.6849 182.794 60.4739 183.252C60.3108 183.612 60.5844 183.982 60.8793 184.17C61.5715 184.602 62.4416 184.668 63.2261 184.498C63.6776 184.376 64.1852 184.185 64.411 183.742C64.5939 183.394 64.3352 183.017 64.0501 182.827C63.3546 182.362 62.4565 182.293 61.6572 182.471Z" fill="#6D2A53"/>
</svg>
